<?xml version="1.0" encoding="utf-8"?>
<!-- Generator: Adobe Illustrator 18.1.1, SVG Export Plug-In . SVG Version: 6.00 Build 0)  -->
<svg version="1.1" id="Layer_1" xmlns="http://www.w3.org/2000/svg" xmlns:xlink="http://www.w3.org/1999/xlink" x="0px" y="0px"
	 viewBox="0 0 600 600" enable-background="new 0 0 600 600" xml:space="preserve">
<path fill="#FFFFFF" d="M223.8,412.5c-4.3-4-7.7-6.9-10.8-10C177,366.7,141.3,330.6,105.1,295c-16.9-16.6-34.4-16.5-51.5,0
	c-13.7,13.2-27.2,26.7-40.4,40.4c-15.2,15.8-15.9,33.8-0.8,49c60.9,61.4,121.9,122.9,183.7,183.4c29.9,29.2,60.6,25.3,84.2-9
	c25.9-37.5,51.2-75.3,76.7-113c76.7-113.1,153.4-226.1,230.1-339.2c19-28,16-42.1-12.4-61.4c-11.5-7.8-22.9-15.6-34.3-23.3
	c-26.8-18-41.1-15.5-59,10.8c-53.4,78.7-106.8,157.4-160.1,236.2C289,316.4,256.7,364.1,223.8,412.5z"/>
</svg>
