<?xml version="1.0" encoding="utf-8"?>
<!-- Generator: Adobe Illustrator 18.1.1, SVG Export Plug-In . SVG Version: 6.00 Build 0)  -->
<svg version="1.1" id="Layer_1" xmlns="http://www.w3.org/2000/svg" xmlns:xlink="http://www.w3.org/1999/xlink" x="0px" y="0px"
	 viewBox="0 0 111.8 154.5" enable-background="new 0 0 111.8 154.5" xml:space="preserve">
<path fill="#CCCCCC" d="M41.6,153.6l-11.8-12.2c-0.6-0.6-1.5-0.9-2.4-0.8l-16.8,2.3c-2.1,0.3-3.7-1.7-3-3.7l18.7-53.7
	c0.5-1.5,2.1-2.2,3.6-1.7l33.4,11.6c1.5,0.5,2.2,2.1,1.7,3.6l-18.7,53.7C45.6,154.6,43,155.1,41.6,153.6z"/>
<path fill="#B3B3B3" d="M72.9,153.6l11.8-12.2c0.6-0.6,1.5-0.9,2.4-0.8l16.8,2.3c2.1,0.3,3.7-1.7,3-3.7L88.2,85.5
	c-0.5-1.5-2.1-2.2-3.6-1.7L51.3,95.3c-1.5,0.5-2.2,2.1-1.7,3.6l18.7,53.7C68.9,154.6,71.4,155.1,72.9,153.6z"/>
<path fill="#E6E6E6" d="M58.1,6.5l7.4-5.8c1.7-1.4,4.3-0.8,5.3,1.2l4.1,8.4c0.7,1.4,2.3,2.2,3.9,1.9l9.2-2c2.2-0.5,4.2,1.2,4.2,3.4
	l0.1,9.4c0,1.6,1.1,3,2.7,3.4l9.1,2.1c2.2,0.5,3.3,2.9,2.3,4.9l-4,8.5c-0.7,1.4-0.3,3.2,1,4.2l7.3,5.9c1.7,1.4,1.7,4,0,5.4l-7.3,5.9
	c-1.2,1-1.6,2.7-1,4.2l4,8.5c0.9,2-0.2,4.4-2.3,4.9l-9.1,2.1c-1.6,0.4-2.7,1.8-2.7,3.4l-0.1,9.4c0,2.2-2.1,3.8-4.2,3.4l-9.2-2
	c-1.6-0.3-3.2,0.4-3.9,1.9l-4.1,8.4c-1,2-3.5,2.6-5.3,1.2l-7.4-5.8c-1.3-1-3-1-4.3,0l-7.4,5.8c-1.7,1.4-4.3,0.8-5.3-1.2L37,98.8
	c-0.7-1.4-2.3-2.2-3.9-1.9L24,99c-2.2,0.5-4.2-1.2-4.2-3.4l-0.1-9.4c0-1.6-1.1-3-2.7-3.4l-9.1-2.1c-2.2-0.5-3.3-2.9-2.3-4.9l4-8.5
	c0.7-1.4,0.3-3.2-1-4.2l-7.3-5.9c-1.7-1.4-1.7-4,0-5.4L8.6,46c1.2-1,1.6-2.7,1-4.2l-4-8.5c-0.9-2,0.2-4.4,2.3-4.9l9.1-2.1
	c1.6-0.4,2.7-1.8,2.7-3.4l0.1-9.4c0-2.2,2.1-3.8,4.2-3.4l9.2,2c1.6,0.3,3.2-0.4,3.9-1.9l4.1-8.4c1-2,3.5-2.6,5.3-1.2l7.4,5.8
	C55,7.5,56.8,7.5,58.1,6.5z"/>
</svg>
