<?xml version="1.0" encoding="utf-8"?>
<!-- Generator: Adobe Illustrator 18.1.1, SVG Export Plug-In . SVG Version: 6.00 Build 0)  -->
<svg version="1.1" id="Layer_1" xmlns="http://www.w3.org/2000/svg" xmlns:xlink="http://www.w3.org/1999/xlink" x="0px" y="0px"
	 viewBox="0 0 600 600" enable-background="new 0 0 600 600" xml:space="preserve">
<g>
	<path fill="#27718F" d="M299.5,0C465,0,599.1,134.1,599.1,299.5c0,165.4-134.1,299.5-299.5,299.5S0,465,0,299.5
		C0,134.1,134.1,0,299.5,0z"/>
	<path fill="#FDC96B" d="M317.5,350c0-57.7-57.7-104.5-128.8-104.5S59.9,292.3,59.9,350s57.7,104.4,128.8,104.4
		c6.3,0,12.4-0.5,18.4-1.2c26.8,20.8,53.7,26,54.1,25.3c-9.4-9.7-15.1-22-18.6-33.8C286.8,428.3,317.5,392.1,317.5,350z"/>
	<path fill="#FFFFFF" d="M146.8,335.5c-8.3,0-15,6.7-15,15c0,8.3,6.7,15,15,15s15-6.7,15-15C161.8,342.2,155.1,335.5,146.8,335.5z
		 M194.7,335.5c-8.3,0-15,6.7-15,15c0,8.3,6.7,15,15,15s15-6.7,15-15C209.7,342.2,203,335.5,194.7,335.5z"/>
	<path fill="#FFB819" d="M317.5,350c0-48.4-40.7-89-95.8-100.9l-0.1,2c0,55.3,35.7,103.8,89.4,131.3
		C315.2,372.2,317.5,361.4,317.5,350z"/>
	<path fill="#FFB819" d="M77.9,349.4c0-44.3,30.8-82.3,75.2-99.7C99.3,262.3,59.9,302.4,59.9,350c0,50.1,43.6,92,101.6,102.1
		C112.7,436.5,77.9,396.5,77.9,349.4z"/>
	<path fill="#27A6D1" d="M526.9,104.5c-28.1-13.1-60.7-20.7-95.5-20.7c-105.9,0-191.7,69.5-191.7,155.3
		c0,62.6,45.8,116.5,111.6,141.1c-5.3,17.5-13.8,35.8-27.8,50.1c0.5,0.9,40.6-6.7,80.3-37.5c9,1.1,18.2,1.6,27.5,1.6
		c71.9,0,134.5-32.1,167.3-79.5c0.3-5.3,0.4-10.7,0.4-16C599.1,224.6,571.9,156.8,526.9,104.5z"/>
	<path fill="#FFFFFF" d="M347.5,215.7c-13.2,0-24,10.7-24,24c0,13.2,10.7,24,24,24s24-10.7,24-24
		C371.4,226.4,360.7,215.7,347.5,215.7z M431.4,215.7c-13.2,0-24,10.7-24,24c0,13.2,10.7,24,24,24s24-10.7,24-24
		C455.3,226.4,444.6,215.7,431.4,215.7z M515.2,215.7c-13.2,0-24,10.7-24,24c0,13.2,10.7,24,24,24s24-10.7,24-24
		C539.2,226.4,528.5,215.7,515.2,215.7z"/>
	<path fill="#2395BC" d="M341.5,424.4c14-14.4,22.5-32.6,27.8-50.1c-65.9-24.6-111.6-78.5-111.6-141.1c0-62,44.9-115.6,109.8-140.5
		C293,114,239.6,171.5,239.6,239.1c0,62.6,45.8,116.5,111.6,141.1c-5.3,17.5-13.8,35.8-27.8,50.1c0.3,0.5,11.6-1.4,28-7.9
		C345.4,424.2,341.6,424.7,341.5,424.4z"/>
	<g>
		<path fill="#2395BC" d="M347.5,263.6c-13.2,0-24-10.7-24-24c0-5.1,1.6-9.8,4.3-13.7c-6.2,4.3-10.3,11.5-10.3,19.7
			c0,13.2,10.7,24,24,24c8.1,0,15.3-4.1,19.7-10.3C357.3,262,352.6,263.6,347.5,263.6z M431.4,263.6c-13.2,0-24-10.7-24-24
			c0-5.1,1.6-9.8,4.3-13.7c-6.2,4.3-10.3,11.5-10.3,19.7c0,13.2,10.7,24,24,24c8.1,0,15.3-4.1,19.7-10.3
			C441.1,262,436.4,263.6,431.4,263.6z M515.2,263.6c-13.2,0-24-10.7-24-24c0-5.1,1.6-9.8,4.3-13.7c-6.2,4.3-10.3,11.5-10.3,19.7
			c0,13.2,10.7,24,24,24c8.1,0,15.3-4.1,19.7-10.3C525,262,520.3,263.6,515.2,263.6z"/>
	</g>
</g>
</svg>
