<?xml version="1.0" encoding="utf-8"?>
<!-- Generator: Adobe Illustrator 18.1.1, SVG Export Plug-In . SVG Version: 6.00 Build 0)  -->
<svg version="1.1" id="Layer_1" xmlns="http://www.w3.org/2000/svg" xmlns:xlink="http://www.w3.org/1999/xlink" x="0px" y="0px"
	 viewBox="0 0 600 600" enable-background="new 0 0 600 600" xml:space="preserve">
<path fill="#B4B4B4" d="M354,299.5l53-53c7.3-7.3,7.3-19.2,0-26.5l-26.5-26.5c-7.3-7.3-19.2-7.3-26.5,0l-53,53l-53-53
	c-7.3-7.3-19.2-7.3-26.5,0L195,220c-7.3,7.3-7.3,19.2,0,26.5l53,53l-52.9,52.9c-7.3,7.3-7.3,19.2,0,26.5l26.5,26.5
	c7.3,7.3,19.2,7.3,26.5,0l52.9-52.9l53.2,53.3c7.3,7.3,19.2,7.3,26.5,0l26.5-26.5c7.3-7.3,7.3-19.2,0-26.5L354,299.5z M300.9,0
	C135.4,0,1.2,134.2,1.2,299.7c0,165.5,134.2,299.7,299.7,299.7s299.7-134.2,299.7-299.7C600.6,134.2,466.4,0,300.9,0z M300.9,543.2
	c-134.5,0-243.5-109-243.5-243.5s109-243.5,243.5-243.5s243.5,109,243.5,243.5S435.4,543.2,300.9,543.2z"/>
</svg>
