<svg xmlns="http://www.w3.org/2000/svg" viewBox="0 0 600 600"><path fill="#012639" d="M74.9 37h449.8c20.6 0 37.5 16.9 37.5 37.5v487.3c0 20.6-16.9 37.5-37.5 37.5H74.9c-20.6 0-37.5-16.9-37.5-37.5V74.5C37.4 53.9 54.3 37 74.9 37z"/><path fill="#2C435E" d="M524.7 37H74.9c-20.6 0-37.5 16.9-37.5 37.5V98c0-20.6 16.9-37.5 37.5-37.5h449.8c20.6 0 37.5 16.9 37.5 37.5V74.5c0-20.6-16.9-37.5-37.5-37.5z"/><path fill="#FFF" d="M121.7 102.6h356.1c10.3 0 18.7 8.4 18.7 18.7V515c0 10.3-8.4 18.7-18.7 18.7H121.7c-10.3 0-18.7-8.4-18.7-18.7V121.4c0-10.3 8.4-18.8 18.7-18.8z"/><path fill="#CCD0D2" d="M159.2 74.5h281.1c5.2 0 9.4 4.2 9.4 9.4v37.5c0 15.5-12.7 28.1-28.1 28.1H178c-15.5 0-28.1-12.7-28.1-28.1V83.9c0-5.2 4.2-9.4 9.3-9.4z"/><path fill="#4D4D4D" d="M220.1 238.5h206.2c5.2 0 9.4-4.2 9.4-9.4s-4.2-9.4-9.4-9.4H220.1c-5.2 0-9.4 4.2-9.4 9.4.1 5.2 4.3 9.4 9.4 9.4zm206.2 28.1H220.1c-5.2 0-9.4 4.2-9.4 9.4s4.2 9.4 9.4 9.4h206.2c5.2 0 9.4-4.2 9.4-9.4 0-5.1-4.2-9.4-9.4-9.4zm0 46.9H220.1c-5.2 0-9.4 4.2-9.4 9.4s4.2 9.4 9.4 9.4h206.2c5.2 0 9.4-4.2 9.4-9.4s-4.2-9.4-9.4-9.4zm-243.6-93.7h-9.4c-5.2 0-9.4 4.2-9.4 9.4s4.2 9.4 9.4 9.4h9.4c5.2 0 9.4-4.2 9.4-9.4-.1-5.2-4.3-9.4-9.4-9.4zm0 46.8h-9.4c-5.2 0-9.4 4.2-9.4 9.4s4.2 9.4 9.4 9.4h9.4c5.2 0 9.4-4.2 9.4-9.4-.1-5.1-4.3-9.4-9.4-9.4zm0 46.9h-9.4c-5.2 0-9.4 4.2-9.4 9.4s4.2 9.4 9.4 9.4h9.4c5.2 0 9.4-4.2 9.4-9.4s-4.3-9.4-9.4-9.4zm243.6 46.9H220.1c-5.2 0-9.4 4.2-9.4 9.4s4.2 9.4 9.4 9.4h206.2c5.2 0 9.4-4.2 9.4-9.4s-4.2-9.4-9.4-9.4zm0 46.8H220.1c-5.2 0-9.4 4.2-9.4 9.4s4.2 9.4 9.4 9.4h206.2c5.2 0 9.4-4.2 9.4-9.4s-4.2-9.4-9.4-9.4zm-243.6-46.8h-9.4c-5.2 0-9.4 4.2-9.4 9.4s4.2 9.4 9.4 9.4h9.4c5.2 0 9.4-4.2 9.4-9.4s-4.3-9.4-9.4-9.4zm0 46.8h-9.4c-5.2 0-9.4 4.2-9.4 9.4s4.2 9.4 9.4 9.4h9.4c5.2 0 9.4-4.2 9.4-9.4s-4.3-9.4-9.4-9.4z"/><path fill="#CCD0D2" d="M238.9-.4h121.8c15.5 0 28.1 12.7 28.1 28.1v46.9h-178V27.7c0-15.5 12.6-28.1 28.1-28.1z"/><path fill="#BCC0C2" d="M149.9 83.9v18.7h299.9V83.9c0-5.2-4.2-9.4-9.4-9.4H159.2c-5.1 0-9.3 4.2-9.3 9.4z"/><path fill="#AEB1B3" d="M210.8 55.8h178.1v18.7H210.8V55.8z"/></svg>