<svg xmlns="http://www.w3.org/2000/svg" width="128" height="128"><path fill="#334D5D" d="M64 0c35.346 0 64 28.654 64 64 0 35.347-28.654 64-64 64-35.346 0-64-28.653-64-64C0 28.654 28.654 0 64 0z"/><path fill="#2D4453" d="M40 34a4 4 0 0 0-4 4v54a4 4 0 0 0 8 0V38a4 4 0 0 0-4-4zm24 0a4 4 0 0 0-4 4v54a4 4 0 0 0 8 0V38a4 4 0 0 0-4-4zm24 0a4 4 0 0 0-4 4v54a4 4 0 0 0 8 0V38a4 4 0 0 0-4-4z"/><path fill="#5C707C" d="M88 36c1.104 0 2 .897 2 2v54c0 1.103-.896 2-2 2s-2-.897-2-2V38c0-1.103.896-2 2-2m-24 0c1.104 0 2 .897 2 2v54c0 1.103-.896 2-2 2-1.103 0-2-.897-2-2V38c0-1.103.897-2 2-2m-24 0c1.103 0 2 .897 2 2v54c0 1.103-.897 2-2 2s-2-.897-2-2V38c0-1.103.897-2 2-2m48-2a4 4 0 0 0-4 4v54a4 4 0 0 0 8 0V38a4 4 0 0 0-4-4zm-24 0a4 4 0 0 0-4 4v54a4 4 0 0 0 8 0V38a4 4 0 0 0-4-4zm-24 0a4 4 0 0 0-4 4v54a4 4 0 0 0 8 0V38a4 4 0 0 0-4-4z"/><circle fill="#fff" cx="40" cy="56" r="7"/><circle fill="#fff" cx="64" cy="75" r="7"/><circle fill="#fff" cx="88" cy="56" r="7"/><circle fill="#45B39C" cx="40" cy="56" r="4.96"/><circle fill="#45B39C" cx="64" cy="75" r="4.96"/><circle fill="#45B39C" cx="88" cy="56" r="4.96"/></svg>