<svg xmlns="http://www.w3.org/2000/svg" viewBox="0 0 487.5 223"><path fill="#EFEFEF" d="M291.6 242.1L281.3 95h-67.1l-10.3 147.1-.2 4.4v.6c13.9 4.4 28.7 6.7 44.1 6.7s30.2-2.4 44.1-6.7l-.3-5z"/><path fill="#DEDEDE" d="M213.4 106.8h68.8l-.4-5.9h-67.9l-.5 5.9z"/><path fill="#FECC6C" d="M215.5 45h64.7v44.1h-64.7V45z"/><path fill="#EFEFEF" d="M247.9 15.6l26.5 23.5h-52.9l26.4-23.5z"/><path fill="#D7D7D7" d="M215.6 250.3L226.5 95h-12.3l-10.3 147.1-.2 4.4v.6c3.9 1.2 7.9 2.3 11.9 3.2z"/><path fill="#C8C8C8" d="M213.4 106.8h12.3l.4-5.9h-12.3l-.4 5.9z"/><path fill="#F4F4F4" d="M267.8 95l11 155.6c4.5-1 8.9-2.1 13.2-3.5l-.4-5L281.3 95h-13.5z"/><path fill="#E0E0E0" d="M268.6 106.8h13.5l-.4-5.9h-13.5l.4 5.9z"/><path fill="#F1C266" d="M215.5 45h32.4v44.1h-32.4V45z"/><path fill="#EFEFEF" d="M283.2 89.1h-2.9V74.4h5.9c1.6 0 2.9-1.3 2.9-2.9 0-1.6-1.3-2.9-2.9-2.9h-76.5c-1.6 0-2.9 1.3-2.9 2.9 0 1.6 1.3 2.9 2.9 2.9h5.9v14.7h-2.9c-3.2 0-5.9 2.6-5.9 5.9 0 3.3 2.6 5.9 5.9 5.9h70.6c3.2 0 5.9-2.6 5.9-5.9-.1-3.2-2.8-5.9-6-5.9zm-61.8 0V74.4h5.9v14.7h-5.9zm11.8 0V74.4h5.9v14.7h-5.9zm11.7 0V74.4h5.9v14.7h-5.9zm11.8 0V74.4h5.9v14.7h-5.9zm11.8 0V74.4h5.9v14.7h-5.9zm-54.5-50h67.7c2.4 0 4.4 2 4.4 4.4s-2 4.4-4.4 4.4H214c-2.4 0-4.4-2-4.4-4.4s2-4.4 4.4-4.4z"/><path fill="#D7D7D7" d="M221.4 43.5c0-2.4 2-4.4 4.4-4.4H214c-2.4 0-4.4 2-4.4 4.4s2 4.4 4.4 4.4h11.8c-2.4.1-4.4-1.9-4.4-4.4z"/><path fill="#E3E3E3" d="M221.4 39.1h26.5V15.6l-26.5 23.5z"/><path fill="#E2574C" d="M209.3 165.6l-1.4 20.6h79.9l-1.4-20.6h-77.1zm2.8-41.2l-1.4 20.6h74.1l-1.4-20.6h-71.3zm78.5 103l-1.4-20.6h-82.7l-1.4 20.6h85.5z"/><path fill="#CB4E44" d="M212.1 124.4l-1.4 20.6H223l1.5-20.6h-12.4zm-2.8 41.2l-1.4 20.6h12.2l1.5-20.6h-12.3zm7.9 61.8l1.5-20.6h-12.2l-1.4 20.6h12.1z"/><path fill="#E5685E" d="M269.9 124.4l1.5 20.6h13.5l-1.4-20.6h-13.6zm2.9 41.2l1.5 20.6h13.5l-1.4-20.6h-13.6zm17.8 61.8l-1.4-20.6h-13.5l1.5 20.6h13.4z"/><linearGradient id="a" gradientUnits="userSpaceOnUse" x1="274.35" y1="43.767" x2="863" y2="43.767"><stop offset="0" stop-color="#ffb819" stop-opacity=".3"/><stop offset=".047" stop-color="#e5a516" stop-opacity=".286"/><stop offset=".151" stop-color="#b07f11" stop-opacity=".255"/><stop offset=".26" stop-color="#815d0d" stop-opacity=".222"/><stop offset=".371" stop-color="#594009" stop-opacity=".189"/><stop offset=".484" stop-color="#392906" stop-opacity=".155"/><stop offset=".601" stop-color="#201703" stop-opacity=".12"/><stop offset=".722" stop-color="#0e0a01" stop-opacity=".084"/><stop offset=".851" stop-color="#030200" stop-opacity=".045"/><stop offset="1" stop-opacity="0"/></linearGradient><path fill="url(#a)" d="M281.3 47.8L863-84.8v257.1L274.3 74.4z"/><linearGradient id="b" gradientUnits="userSpaceOnUse" x1="-14120.65" y1="46.643" x2="-13534.65" y2="46.643" gradientTransform="matrix(-1 0 0 1 -13902.65 0)"><stop offset="0" stop-color="#ffb819" stop-opacity=".3"/><stop offset=".047" stop-color="#e5a516" stop-opacity=".286"/><stop offset=".151" stop-color="#b07f11" stop-opacity=".255"/><stop offset=".26" stop-color="#815d0d" stop-opacity=".222"/><stop offset=".371" stop-color="#594009" stop-opacity=".189"/><stop offset=".484" stop-color="#392906" stop-opacity=".155"/><stop offset=".601" stop-color="#201703" stop-opacity=".12"/><stop offset=".722" stop-color="#0e0a01" stop-opacity=".084"/><stop offset=".851" stop-color="#030200" stop-opacity=".045"/><stop offset="1" stop-opacity="0"/></linearGradient><path fill="url(#b)" d="M218 48L-368-79v251.3L218 72z"/></svg>