<svg xmlns="http://www.w3.org/2000/svg" viewBox="0 0 175 175"><path fill="#E6E6E6" d="M.7 0h173.5v175H.7z"/><path fill="#F2F2F2" d="M.7 0h173.5v163.3H.7z"/><path fill="#BE382E" d="M.7 5.9h173.5v38.9H.7z"/><path fill="#E1564E" d="M.7 0h173.5v36.5H.7z"/><circle fill="#BE382E" cx="87.4" cy="17.7" r="5.8"/><path d="M58.1 95.7c.2.9.2 1.6.2 1.9 0 1.7-.9 2.5-2.7 2.5H45c-1.5 0-2.5-1-2.9-3.1-.2-1.3-.4-2.7-.4-4.5 0-6.1 1.8-10.9 5.3-14.1 3.5-3.3 8.9-4.9 16.1-4.9 7.6 0 13.2 1.7 16.8 5.2 3.6 3.5 5.4 8 5.4 13.6 0 6.1-2 11.8-5.9 17.1-3.9 5.3-8.6 9.9-14.1 13.7h17.4c1.9 0 2.9 1 2.9 3v8.9c0 1.9-1 2.9-2.9 2.9H44.6c-1.9 0-2.9-1-2.9-2.9v-7.3c0-1.4.7-2.6 2.2-3.6 6.1-3.8 11.6-8.4 16.3-13.9 4.7-5.5 7.1-10.9 7.1-16.3 0-1.9-.4-3.3-1.1-4.3-.7-1-2-1.4-3.8-1.4-3.1 0-4.7 1.7-4.7 5 .1.7.2 1.6.4 2.5zm61.8-7.8c-3.9 0-6.7.8-8.3 2.4-1.6 1.6-2.4 4.2-2.5 7.7 2.7-1.9 6.4-2.9 10.9-2.9 6 0 10.5 1.9 13.6 5.7 3.1 3.8 4.7 8.7 4.7 14.8 0 7.1-2 12.7-5.9 16.9-3.9 4.1-9.3 6.2-16 6.2-8.7 0-14.9-2.7-18.7-8.1-3.8-5.4-5.6-12.9-5.6-22.6 0-12 1.9-20.8 5.8-26.3s10.7-8.3 20.5-8.3c4.5 0 8.4.6 11.7 1.7.9.3 1.5.7 1.8 1.2.3.5.5 1.2.4 2.1l-.8 8.3c-.2 1.7-1.3 2.4-3.5 2.1-4.2-.6-6.9-.9-8.1-.9zm2.4 27.9c0-2.4-.6-4.3-1.7-5.7-1.1-1.3-2.7-2-4.9-2-4.4 0-6.6 2.6-6.6 7.8 0 5.5 2.3 8.3 6.9 8.3 4.2 0 6.3-2.8 6.3-8.4z" fill="#012639"/></svg>