<svg xmlns="http://www.w3.org/2000/svg" viewBox="0 0 175 175"><path fill="#004D71" d="M90 157.9H8.5c-4.4 0-7.9-3.5-7.9-7.9V78.5c0-4.4 3.5-7.9 7.9-7.9H90c4.4 0 7.9 3.5 7.9 7.9V150c0 4.4-3.5 7.9-7.9 7.9z"/><path fill="#64B1BC" d="M167 99.2H70.2c-4.4 0-7.9-3.5-7.9-7.9V8.2c0-4.4 3.5-7.9 7.9-7.9H167c4.4 0 7.9 3.5 7.9 7.9v83.1c0 4.3-3.5 7.9-7.9 7.9z"/><path fill="#004D71" d="M54.7 153.4v21.2l-20.5-20.5z"/><path fill="#64B1BC" d="M114.7 93.7v21.2l20.4-20.5z"/><circle fill="#FFF" cx="96.9" cy="50.4" r="6.7"/><circle fill="#FFF" cx="120" cy="50.4" r="6.7"/><circle fill="#FFF" cx="143.1" cy="50.4" r="6.7"/></svg>