<svg xmlns="http://www.w3.org/2000/svg" viewBox="0 0 600 600"><linearGradient id="a" gradientUnits="userSpaceOnUse" x1="350.253" y1="213.873" x2="724" y2="213.873"><stop offset="0" stop-color="#ffb819" stop-opacity=".3"/><stop offset=".144" stop-color="#ffb819" stop-opacity=".257"/><stop offset="1" stop-color="#ffb819" stop-opacity="0"/></linearGradient><path fill="url(#a)" d="M357 211.1L724 30.7v366.4L350.3 262.7z"/><linearGradient id="b" gradientUnits="userSpaceOnUse" x1="-5008.809" y1="213.873" x2="-4635.039" y2="213.873" gradientTransform="matrix(-1 0 0 1 -4767.04 0)"><stop offset="0" stop-color="#ffb819" stop-opacity=".3"/><stop offset=".144" stop-color="#ffb819" stop-opacity=".257"/><stop offset="1" stop-color="#ffb819" stop-opacity="0"/></linearGradient><path fill="url(#b)" d="M235.1 211.1L-132 30.7v366.4l373.8-134.4z"/><path fill="#F0EFEF" d="M382.9 586.8L363 302.5H233.3l-19.9 284.3s-.4 8.6-.3 8.6v1.1c26.9 8.5 55.6 13 85.3 13s58.4-4.6 85.3-13l-.8-9.7z"/><path fill="#DFDFDE" d="M231.7 325.2h132.9l-.8-11.4H232.5l-.8 11.4z"/><path fill="#FFCC6D" d="M235.8 205.8h125.1v85.3H235.8v-85.3z"/><path fill="#F0EFEF" d="M298.4 148.9l51.2 45.5H247.2l51.2-45.5z"/><path fill="#D7D7D7" d="M235.9 602.6L257 302.5h-23.8l-19.9 284.3s-.4 8.6-.3 8.6v1.1c7.5 2.3 15.2 4.3 22.9 6.1z"/><path fill="#C8C8C8" d="M231.7 325.2h23.7l.8-11.4h-23.8l-.7 11.4z"/><path fill="#F4F4F4" d="M336.8 302.5L358 603.2c8.7-1.9 17.2-4.1 25.6-6.7l-.8-9.7L363 302.5h-26.2z"/><path fill="#E0E1E0" d="M338.4 325.2h26.1l-.8-11.4h-26.1l.8 11.4z"/><path fill="#F1C266" d="M235.8 205.8h62.5v85.3h-62.5v-85.3z"/><path fill="#F0EFEF" d="M366.6 291.1h-5.7v-28.4h11.4c3.1 0 5.7-2.5 5.7-5.7 0-3.1-2.5-5.7-5.7-5.7H224.4c-3.1 0-5.7 2.5-5.7 5.7 0 3.1 2.5 5.7 5.7 5.7h11.4v28.4h-5.7c-6.3 0-11.4 5.1-11.4 11.4 0 6.3 5.1 11.4 11.4 11.4h136.5c6.3 0 11.4-5.1 11.4-11.4 0-6.3-5.1-11.4-11.4-11.4zm-119.4 0v-28.4h11.4v28.4h-11.4zm22.7 0v-28.4h11.4v28.4h-11.4zm22.8 0v-28.4h11.4v28.4h-11.4zm22.7 0v-28.4h11.4v28.4h-11.4zm22.8 0v-28.4h11.4v28.4h-11.4zM233 194.4h130.8c4.7 0 8.5 3.8 8.5 8.5s-3.8 8.5-8.5 8.5H233c-4.7 0-8.5-3.8-8.5-8.5s3.8-8.5 8.5-8.5z"/><path fill="#D7D7D7" d="M242.5 211.5h13.2c-4.7 0-8.5-3.8-8.5-8.5s3.8-8.5 8.5-8.5H233c-4.7 0-8.5 3.8-8.5 8.5s3.8 8.5 8.5 8.5h9.5"/><path fill="#E3E3E3" d="M247.2 194.4h51.2v-45.5l-51.2 45.5z"/><path fill="#E2584C" d="M223.7 438.9l-2.8 39.8h154.4l-2.8-39.8H223.7zm5.6-79.6l-2.8 39.8h143.2l-2.8-39.8H229.3zm151.6 199l-2.8-39.8H218.2l-2.8 39.8h165.5z"/><path fill="#CC4E44" d="M229.3 359.3l-2.8 39.8h23.7l2.8-39.8h-23.7zm-5.6 79.6l-2.8 39.8h23.7l2.8-39.8h-23.7zM239 558.3l2.8-39.8h-23.6l-2.8 39.8H239z"/><path fill="#E6695F" d="M340.9 359.3l2.8 39.8h26.1l-2.8-39.8h-26.1zm5.6 79.6l2.8 39.8h26l-2.8-39.8h-26zm34.4 119.4l-2.8-39.8h-26l2.8 39.8h26z"/></svg>