<svg xmlns="http://www.w3.org/2000/svg" viewBox="0 0 600 600"><path fill="#CDCCCC" d="M425.7 93l124.1 7.6c28.6 1.7 51.1 12.5 49.4 41.1l-20.4 334.4c-1.7 28.6-25.5 36.5-54 34.8l-124.1-7.6c-28.6-1.7-51.1-12.5-49.4-41.1l20.4-334.4c1.7-28.6 25.4-36.6 54-34.8z"/><path fill="#F3F3F3" d="M435.3 474.1l62 3.8c4.8.3 8.4 4.4 8.1 9.1-.3 4.8-4.4 8.4-9.1 8.1l-62-3.8c-4.8-.3-8.4-4.4-8.1-9.1.3-4.7 4.4-8.4 9.1-8.1z"/><path fill="#00C4B3" d="M381.4 138.7l206.8 12.6-19.3 317.1-206.8-12.6 19.3-317.1z"/><path fill="#F3F3F3" d="M465.8 116.2l41.4 2.5c1.9.1 3.4 1.8 3.2 3.7s-1.8 3.4-3.7 3.2l-41.4-2.5c-1.9-.1-3.4-1.8-3.2-3.7s1.8-3.3 3.7-3.2z"/><path fill="#2E4553" d="M531.3 120.2c-1.9-.1-3.5 1.3-3.7 3.2-.1 1.9 1.3 3.5 3.2 3.7 1.9.1 3.5-1.3 3.7-3.2.1-2-1.3-3.6-3.2-3.7zm13.7.8c-1.9-.1-3.5 1.3-3.7 3.2-.1 1.9 1.3 3.5 3.2 3.7 1.9.1 3.5-1.3 3.7-3.2.2-1.9-1.3-3.6-3.2-3.7zm17.5-2.4c-3.8-.2-7.1 2.7-7.3 6.5s2.7 7.1 6.5 7.3c3.8.2 7.1-2.7 7.3-6.5s-2.7-7.1-6.5-7.3z"/><path fill="#3C5867" d="M491.5 256l6.7-5.9c.8-.7.9-2.2.2-3s-2.2-.9-3-.2l-8.6 7.3c-2.9-.9-5.8-1.5-8.8-1.6-3-.2-5.9 0-8.9.6l-6.9-8.2c-.7-.8-2.2-.9-3-.2s-.9 2.2-.2 3l5.9 6.7c-11 3.4-18.9 11.9-19.5 22.2l62.8 3.7c.7-10.4-6.2-19.7-16.7-24.4zM468 270.5c-2.2-.1-3.6-1.7-3.5-3.9.1-2.2 1.7-3.6 3.9-3.5 2.2.1 3.6 1.7 3.5 3.9-.1 2.3-1.7 3.7-3.9 3.5zm18.5 1.1c-2.2-.1-3.6-1.7-3.5-3.9.1-2.2 1.7-3.6 3.9-3.5 2.2.1 3.6 1.7 3.5 3.9-.1 2.3-1.7 3.7-3.9 3.5zM442.8 321c-.4 6.3 4.1 11.4 10.4 11.7l-.9 15.5c-.2 3.7 2.9 6.9 7 7.1s7.6-2.5 7.8-6.2l.9-15.5 11.1.7-.9 15.5c-.2 3.7 2.9 6.9 7 7.1 4.1.2 7.6-2.5 7.8-6.2l.9-15.5c6.3.4 11.4-4.1 11.7-10.4l2.4-40.7-62.8-3.7-2.4 40.6zm-6.9-41.2c-3-.2-5.7 2.3-5.9 5.2l-1.8 29.6c-.2 3 2.3 5.7 5.2 5.9 3 .2 5.7-2.3 5.9-5.2l1.8-29.6c.2-3-2.2-5.8-5.2-5.9zm81.4 4.8c-3-.2-5.7 2.3-5.9 5.2l-1.8 29.6c-.2 3 2.3 5.7 5.2 5.9 3 .2 5.7-2.3 5.9-5.2l1.8-29.6c.1-3-2.3-5.7-5.2-5.9z"/><path fill="#CDCCCC" d="M49.7 100.7l124.1-7.8c28.6-1.8 52.3 6.1 54.1 34.7l21 334.3c1.8 28.6-20.8 39.4-49.3 41.2l-124.1 7.8c-28.6 1.8-52.3-6.1-54.1-34.7L.4 141.9c-1.8-28.6 20.7-39.4 49.3-41.2z"/><path fill="#F3F3F3" d="M106.3 477.8l62-3.9c4.8-.3 8.9 3.3 9.2 8.1.3 4.8-3.3 8.9-8.1 9.2l-62 3.9c-4.8.3-8.9-3.3-9.2-8.1s3.3-8.9 8.1-9.2z"/><path fill="#3C5867" d="M11.3 151.6l206.8-13 20 317.1-206.8 13-20-317.1z"/><path fill="#F3F3F3" d="M92.3 118.8l41.4-2.6c1.9-.1 3.5 1.3 3.7 3.2s-1.3 3.5-3.2 3.7l-41.4 2.6c-1.9.1-3.5-1.3-3.7-3.2s1.3-3.6 3.2-3.7z"/><path fill="#2E4553" d="M157.8 114.7c-1.9.1-3.3 1.8-3.2 3.7s1.8 3.3 3.7 3.2c1.9-.1 3.3-1.8 3.2-3.7-.1-1.9-1.8-3.4-3.7-3.2zm13.8-.9c-1.9.1-3.3 1.8-3.2 3.7s1.8 3.3 3.7 3.2c1.9-.1 3.3-1.8 3.2-3.7-.2-1.9-1.8-3.3-3.7-3.2zm17-4.5c-3.8.2-6.7 3.5-6.5 7.3.2 3.8 3.5 6.7 7.3 6.5 3.8-.2 6.7-3.5 6.5-7.3s-3.5-6.8-7.3-6.5z"/><path fill="#0BA" d="M136.9 247.6l5.9-6.7c.7-.8.6-2.3-.2-3-.8-.7-2.3-.6-3 .2l-7.6 8.3c-3-.5-6-.7-8.9-.5-3 .2-5.9.8-8.8 1.7l-7.9-7.3c-.8-.7-2.3-.6-3 .2s-.6 2.3.2 3l6.7 5.9c-10.4 4.8-17.2 14.1-16.6 24.5l62.8-4.2c-.7-10.3-8.6-18.7-19.6-22.1zM115.4 265c-2.2.1-3.8-1.2-3.9-3.4-.1-2.2 1.2-3.8 3.4-3.9 2.2-.1 3.8 1.2 3.9 3.4s-1.2 3.8-3.4 3.9zm18.5-1.2c-2.2.1-3.8-1.2-3.9-3.4s1.2-3.8 3.4-3.9c2.2-.1 3.8 1.2 3.9 3.4s-1.2 3.8-3.4 3.9zm-37.2 54.4c.4 6.3 5.5 10.8 11.8 10.3l1 15.5c.2 3.7 3.8 6.4 7.8 6.2s7.2-3.4 6.9-7.1l-1-15.5 11.1-.7 1 15.5c.2 3.7 3.8 6.4 7.8 6.2s7.2-3.4 6.9-7.1l-1-15.5c6.3-.4 10.8-5.5 10.3-11.8l-2.7-40.6-62.6 4 2.7 40.6zm-12-40c-3 .2-5.4 3-5.2 5.9l2 29.6c.2 3 3 5.4 5.9 5.2s5.4-3 5.2-5.9l-2-29.6c-.1-3-2.9-5.4-5.9-5.2zm81.3-5.4c-3 .2-5.4 3-5.2 5.9l2 29.6c.2 3 3 5.4 5.9 5.2 3-.2 5.4-3 5.2-5.9l-2-29.6c-.2-3-2.9-5.4-5.9-5.2z"/><circle fill="#EC0044" cx="269.5" cy="270.5" r="5.9"/><circle fill="#EC0044" cx="289.7" cy="270.5" r="5.9"/><circle fill="#EC0044" cx="309.9" cy="270.5" r="5.9"/><circle fill="#EC0044" cx="330.1" cy="270.5" r="5.9"/></svg>