<svg xmlns="http://www.w3.org/2000/svg" viewBox="0 0 468.7 468.7"><path fill="#D0D2D3" d="M217.5 45.9h31.1V422h-31.1z"/><path fill="#D0D2D3" d="M234.6 217.6h61v31.1h-61zm-62.5-98.2h61v31.1h-61zm0 194.4h61v31.1h-61z"/><path fill="#012639" d="M146.1 366.4c-20.4 0-37.1-16.6-37.1-37.1s16.6-37 37.1-37c20.4 0 37 16.6 37 37s-16.6 37.1-37 37.1z"/><path fill="#CCCBCB" d="M146.1 299.3c16.6 0 30.1 13.5 30.1 30s-13.5 30-30.1 30-30.1-13.5-30.1-30 13.5-30 30.1-30m0-14c-24.3 0-44.1 19.8-44.1 44s19.8 44 44.1 44 44.1-19.8 44.1-44-19.8-44-44.1-44z"/><path fill="#012639" d="M146.1 171.4c-20.4 0-37.1-16.6-37.1-37s16.6-37.1 37.1-37.1c20.4 0 37 16.6 37 37.1 0 20.4-16.6 37-37 37z"/><path fill="#CCCBCB" d="M146.1 104.3c16.6 0 30.1 13.5 30.1 30.1s-13.5 30.1-30.1 30.1-30.1-13.6-30.1-30.2 13.5-30 30.1-30m0-14c-24.3 0-44.1 19.8-44.1 44.1s19.8 44.1 44.1 44.1 44.1-19.8 44.1-44.1-19.8-44.1-44.1-44.1z"/><path fill="#012639" d="M326.1 270.9c-21.3 0-38.6-17.3-38.6-38.5 0-21.3 17.3-38.6 38.6-38.6s38.5 17.3 38.5 38.6c0 21.2-17.3 38.5-38.5 38.5z"/><path fill="#CCCBCB" d="M326.1 202.3c16.6 0 30 13.5 30 30.1s-13.5 30-30 30c-16.6 0-30.1-13.5-30.1-30s13.5-30.1 30.1-30.1m0-17c-25.9 0-47.1 21.1-47.1 47.1s21.1 47 47.1 47c25.9 0 47-21.1 47-47s-21.1-47.1-47-47.1z"/><path fill="#FFF" d="M321.9 238.5c-.2-.2-.4-.4-.6-.5l-5.8-5.8c-.9-.9-1.9-.9-2.8 0-.7.7-1.5 1.4-2.2 2.2-.8.9-.9 1.8 0 2.7l9.9 9.9c1.6 1.6 3.3 1.4 4.6-.5 1.4-2 2.8-4.1 4.2-6.1 4.2-6.1 8.3-12.2 12.5-18.4 1-1.5.9-2.3-.7-3.3-.6-.4-1.2-.8-1.9-1.3-1.5-1-2.2-.8-3.2.6-2.9 4.3-5.8 8.5-8.7 12.8-1.7 2.5-3.5 5.1-5.3 7.7zm-180-97.4c-.2-.2-.4-.4-.6-.5l-5.8-5.8c-.9-.9-1.9-.9-2.8 0-.7.7-1.5 1.4-2.2 2.2-.8.9-.9 1.8 0 2.7l9.9 9.9c1.6 1.6 3.3 1.4 4.6-.5 1.4-2 2.8-4.1 4.2-6.1 4.2-6.1 8.3-12.2 12.5-18.4 1-1.5.9-2.3-.7-3.3-.6-.4-1.2-.8-1.9-1.3-1.5-1-2.2-.8-3.2.6-2.9 4.3-5.8 8.5-8.7 12.8-1.7 2.5-3.5 5.1-5.3 7.7zm0 194.4c-.2-.2-.4-.4-.6-.5l-5.8-5.8c-.9-.9-1.9-.9-2.8 0-.7.7-1.5 1.4-2.2 2.2-.8.9-.9 1.8 0 2.7l9.9 9.9c1.6 1.6 3.3 1.4 4.6-.5 1.4-2 2.8-4.1 4.2-6.1 4.2-6.1 8.3-12.2 12.5-18.4 1-1.5.9-2.3-.7-3.3-.6-.4-1.2-.8-1.9-1.3-1.5-1-2.2-.8-3.2.6-2.9 4.3-5.8 8.5-8.7 12.8-1.7 2.5-3.5 5.1-5.3 7.7z"/><path fill="#D0D2D3" d="M461.3 222.3H394c-3.9 0-7-3.1-7-7s3.1-7 7-7h67.3c3.9 0 7 3.1 7 7s-3.1 7-7 7zm0 32.4H394c-3.9 0-7-3.1-7-7s3.1-7 7-7h67.3c3.9 0 7 3.1 7 7s-3.1 7-7 7zM76 125.8H8.7c-3.9 0-7-3.1-7-7s3.1-7 7-7H76c3.9 0 7 3.1 7 7s-3.1 7-7 7zm0 32.3H8.7c-3.9 0-7-3.1-7-7s3.1-7 7-7H76c3.9 0 7 3.1 7 7s-3.1 7-7 7zm0 162.1H8.7c-3.9 0-7-3.1-7-7s3.1-7 7-7H76c3.9 0 7 3.1 7 7s-3.1 7-7 7zm0 32.3H8.7c-3.9 0-7-3.1-7-7s3.1-7 7-7H76c3.9 0 7 3.1 7 7s-3.1 7-7 7z"/></svg>