<svg xmlns="http://www.w3.org/2000/svg" viewBox="0 0 600 600"><path fill="#B4B4B4" d="M354 299.5l53-53c7.3-7.3 7.3-19.2 0-26.5l-26.5-26.5c-7.3-7.3-19.2-7.3-26.5 0l-53 53-53-53c-7.3-7.3-19.2-7.3-26.5 0L195 220c-7.3 7.3-7.3 19.2 0 26.5l53 53-52.9 52.9c-7.3 7.3-7.3 19.2 0 26.5l26.5 26.5c7.3 7.3 19.2 7.3 26.5 0l52.9-52.9 53.2 53.3c7.3 7.3 19.2 7.3 26.5 0l26.5-26.5c7.3-7.3 7.3-19.2 0-26.5L354 299.5zM300.9 0C135.4 0 1.2 134.2 1.2 299.7s134.2 299.7 299.7 299.7 299.7-134.2 299.7-299.7S466.4 0 300.9 0zm0 543.2c-134.5 0-243.5-109-243.5-243.5s109-243.5 243.5-243.5 243.5 109 243.5 243.5-109 243.5-243.5 243.5z"/></svg>