<svg xmlns="http://www.w3.org/2000/svg" viewBox="-293 381 32 32"><path fill="#E2574C" d="M-289 381h17l9 9v21c0 1.1-.9 2-2 2h-24c-1.1 0-2-.9-2-2v-28c0-1.1.9-2 2-2z"/><path fill="#B53629" d="M-263 390h-7c-1.1 0-2-.9-2-2v-7l9 9z"/><path fill="#FFF" d="M-270.5 396.2c.3 0 .5-.3.5-.6s-.2-.6-.5-.6h-1.9c-.4 0-.6.3-.6.6v4.7c0 .4.2.6.6.6.3 0 .6-.2.6-.6V399h1.2c.4 0 .5-.3.5-.6s-.2-.6-.5-.6h-1.2v-1.7c-.1.1 1.3.1 1.3.1zm-6.5-1.2h-1.4c-.4 0-.6.3-.6.6v4.7c0 .5.4.6.7.6h1.5c1.7 0 2.9-1.1 2.9-2.9-.1-1.8-1.2-3-3.1-3zm.1 4.8h-.9v-3.7h.8c1.2 0 1.7.8 1.7 1.9 0 1-.5 1.8-1.6 1.8zm-5.1-4.8h-1.4c-.4 0-.6.3-.6.6v4.7c0 .4.3.6.6.6s.6-.2.6-.6V399h.9c1.1 0 2-.8 2-2-.1-1.2-1-2-2.1-2zm0 2.9h-.8v-1.8h.8c.5 0 .8.4.8.9s-.3.9-.8.9z"/></svg>