<svg xmlns="http://www.w3.org/2000/svg" viewBox="0 0 182.8 44.6"><path fill="#EC0044" d="M14.9 0h167.9v44.6H14.9L0 22.3z"/><path fill="#E4003F" d="M182.8 22.1v22.3H14.9L0 22.1z"/><path d="M30.3 25.6c.4-.1.7 0 .8.4l.4 1.7v.5c0 .1-.2.2-.4.3-.8.4-1.7.6-2.8.6-1.8 0-3.2-.5-4.1-1.5s-1.3-2.7-1.3-5.1c0-2.4.4-4.1 1.3-5.1s2.2-1.5 4-1.5c1 0 1.9.2 2.8.6.4.2.5.4.5.8l-.5 1.6c-.1.4-.3.5-.8.4-.5-.1-1-.2-1.4-.2-.9 0-1.5.2-1.8.7s-.5 1.3-.5 2.7c0 1.3.2 2.3.5 2.7.3.5 1 .7 1.9.7.4 0 .9-.1 1.4-.3zm3.6 2.4c-.8-.7-1.2-1.8-1.2-3.3v-7.9c0-.4.2-.6.6-.6h2.4c.4 0 .6.2.6.6v7.5c0 .6.1 1 .2 1.2s.4.4.8.4.7-.1.8-.4.2-.6.2-1.2v-7.5c0-.4.2-.6.6-.6h2.4c.4 0 .6.2.6.6v7.9c0 1.5-.4 2.6-1.2 3.3s-1.9 1-3.5 1c-1.4 0-2.5-.3-3.3-1zm14.3-11.9c1.7 0 3 .3 3.8 1s1.2 1.9 1.2 3.6c0 1.9-.7 3.2-2 3.8l1.9 3.6c.1.2.1.4.1.5-.1.2-.2.2-.4.2h-2.4c-.4 0-.7-.2-.8-.5L48 25h-.5v3.2c0 .4-.2.6-.6.6h-2.4c-.4 0-.6-.2-.6-.6V16.7c0-.4.2-.6.6-.6h3.7zm-.1 6.1c.5 0 .9-.1 1.1-.3s.3-.6.3-1.1c0-.6-.1-1-.3-1.2s-.5-.3-1.1-.3h-.9v2.9h.9zm10.8-6.1c1.7 0 3 .3 3.8 1s1.2 1.9 1.2 3.6c0 1.9-.7 3.2-2 3.8l1.9 3.6c.1.2.1.4.1.5-.1.2-.2.2-.4.2h-2.4c-.4 0-.7-.2-.8-.5L58.7 25H58v3.2c0 .4-.2.6-.6.6H55c-.4 0-.6-.2-.6-.6V16.7c0-.4.2-.6.6-.6h3.9zm0 6.1c.5 0 .9-.1 1.1-.3s.3-.6.3-1.1c0-.6-.1-1-.3-1.2s-.5-.3-1.1-.3H58v2.9h.9zm9.8 1.7v1.8h3.7c.4 0 .6.2.6.6v1.9c0 .4-.2.6-.6.6h-6.7c-.4 0-.6-.2-.6-.6V16.7c0-.4.2-.6.6-.6h6.6c.4 0 .6.2.6.6v1.9c0 .4-.2.6-.6.6h-3.6v1.6h3.4c.4 0 .6.2.6.6v1.8c0 .4-.2.6-.6.6h-3.4zM84 28.3c0 .4-.2.6-.6.6h-2.2c-.4 0-.6-.2-.8-.5L77.8 23v5.3c0 .4-.2.6-.6.6H75c-.4 0-.6-.2-.6-.6V16.7c0-.4.2-.6.6-.6h2.2c.4 0 .6.2.8.5l2.6 5.4v-5.3c0-.4.2-.6.6-.6h2.3c.4 0 .6.2.6.6v11.6zm1.1-11.6c0-.4.2-.6.6-.6h7.1c.4 0 .6.2.6.6v2c0 .4-.2.6-.6.6H91v8.9c0 .4-.2.6-.6.6H88c-.4 0-.6-.2-.6-.6v-8.9h-1.8c-.4 0-.6-.2-.6-.6v-2zm19.9-.6c.4 0 .7.2.8.6l2.8 11.4c.1.2 0 .4 0 .5-.1.1-.2.2-.4.2h-2.5c-.4 0-.6-.2-.7-.6l-.3-1.5h-2.6l-.3 1.5c-.1.4-.3.6-.7.6h-2.5c-.2 0-.4-.1-.4-.2s-.1-.3-.1-.5l2.8-11.4c.1-.4.4-.6.8-.6h3.3zm-.8 7.7l-.8-4.1h-.1l-.9 4.1h1.8zm12.4 1.8c.4-.1.7 0 .8.4l.4 1.7v.5c0 .1-.2.2-.4.3-.8.4-1.7.6-2.8.6-1.8 0-3.2-.5-4.1-1.5s-1.3-2.7-1.3-5.1c0-2.4.4-4.1 1.3-5.1s2.2-1.5 4-1.5c1 0 1.9.2 2.8.6.4.2.5.4.5.8l-.4 1.7c-.1.4-.3.5-.8.4-.5-.1-1-.2-1.4-.2-.9 0-1.5.2-1.8.7s-.5 1.3-.5 2.7c0 1.3.2 2.3.5 2.7.3.5 1 .7 1.9.7.3-.1.8-.2 1.3-.4zm2.1-8.9c0-.4.2-.6.6-.6h7.1c.4 0 .6.2.6.6v2c0 .4-.2.6-.6.6h-1.8v8.9c0 .4-.2.6-.6.6h-2.4c-.4 0-.6-.2-.6-.6v-8.9h-1.8c-.4 0-.6-.2-.6-.6v-2zm9.6 0c0-.4.2-.6.6-.6h2.4c.4 0 .6.2.6.6v11.5c0 .4-.2.6-.6.6h-2.4c-.4 0-.6-.2-.6-.6V16.7zm8.2 12.2c-.4 0-.7-.2-.8-.6l-2.8-11.4c-.1-.2 0-.4 0-.5s.2-.2.4-.2h2.6c.4 0 .6.2.7.6l1 5.9.4 2.6h.1l.4-2.6 1-5.9c.1-.4.3-.6.7-.6h2.6c.2 0 .4.1.4.2s.1.3 0 .5l-2.8 11.4c-.1.4-.4.6-.8.6h-3.1zm8-12.2c0-.4.2-.6.6-.6h2.4c.4 0 .6.2.6.6v11.5c0 .4-.2.6-.6.6h-2.4c-.4 0-.6-.2-.6-.6V16.7zm4.8 0c0-.4.2-.6.6-.6h7.1c.4 0 .6.2.6.6v2c0 .4-.2.6-.6.6h-1.8v8.9c0 .4-.2.6-.6.6h-2.4c-.4 0-.6-.2-.6-.6v-8.9h-1.8c-.4 0-.6-.2-.6-.6v-2zm16 11.6c0 .4-.2.6-.6.6h-2.4c-.4 0-.6-.2-.6-.6v-4.1l-3.3-7.2c-.1-.2-.1-.3 0-.5s.2-.3.5-.3h2.5c.4 0 .7.2.8.6l1 2.8.4 1.6h.1l.4-1.6 1-2.8c.1-.4.4-.6.8-.6h2.5c.2 0 .4.1.5.3s.1.3 0 .5l-3.3 7.2v4.1z" fill="#FFF"/></svg>