<?xml version="1.0" encoding="utf-8"?>
<!-- Generator: Adobe Illustrator 18.1.1, SVG Export Plug-In . SVG Version: 6.00 Build 0)  -->
<svg version="1.1" id="Layer_1" xmlns="http://www.w3.org/2000/svg" xmlns:xlink="http://www.w3.org/1999/xlink" x="0px" y="0px"
	 viewBox="0 0 182.8 44.6" enable-background="new 0 0 182.8 44.6" xml:space="preserve">
<g>
	<polygon fill="#EC0044" points="14.9,0 182.8,0 182.8,22.3 182.8,44.6 14.9,44.6 0,22.3 	"/>
	<polygon fill="#E4003F" points="182.8,22.1 182.8,44.4 14.9,44.4 0,22.1 	"/>
</g>
<g>
	<path fill="#FFFFFF" d="M30.3,25.6c0.4-0.1,0.7,0,0.8,0.4l0.4,1.7c0,0.2,0,0.4,0,0.5s-0.2,0.2-0.4,0.3c-0.8,0.4-1.7,0.6-2.8,0.6
		c-1.8,0-3.2-0.5-4.1-1.5s-1.3-2.7-1.3-5.1c0-2.4,0.4-4.1,1.3-5.1c0.9-1,2.2-1.5,4-1.5c1,0,1.9,0.2,2.8,0.6c0.4,0.2,0.5,0.4,0.5,0.8
		L31,18.9c-0.1,0.4-0.3,0.5-0.8,0.4c-0.5-0.1-1-0.2-1.4-0.2c-0.9,0-1.5,0.2-1.8,0.7s-0.5,1.3-0.5,2.7c0,1.3,0.2,2.3,0.5,2.7
		c0.3,0.5,1,0.7,1.9,0.7C29.3,25.9,29.8,25.8,30.3,25.6z"/>
	<path fill="#FFFFFF" d="M33.9,28c-0.8-0.7-1.2-1.8-1.2-3.3v-7.9c0-0.4,0.2-0.6,0.6-0.6h2.4c0.4,0,0.6,0.2,0.6,0.6v7.5
		c0,0.6,0.1,1,0.2,1.2s0.4,0.4,0.8,0.4s0.7-0.1,0.8-0.4s0.2-0.6,0.2-1.2v-7.5c0-0.4,0.2-0.6,0.6-0.6h2.4c0.4,0,0.6,0.2,0.6,0.6v7.9
		c0,1.5-0.4,2.6-1.2,3.3s-1.9,1-3.5,1C35.8,29,34.7,28.7,33.9,28z"/>
	<path fill="#FFFFFF" d="M48.2,16.1c1.7,0,3,0.3,3.8,1s1.2,1.9,1.2,3.6c0,1.9-0.7,3.2-2,3.8l1.9,3.6c0.1,0.2,0.1,0.4,0.1,0.5
		c-0.1,0.2-0.2,0.2-0.4,0.2h-2.4c-0.4,0-0.7-0.2-0.8-0.5l-1.6-3.3h-0.5v3.2c0,0.4-0.2,0.6-0.6,0.6h-2.4c-0.4,0-0.6-0.2-0.6-0.6V16.7
		c0-0.4,0.2-0.6,0.6-0.6H48.2z M48.1,22.2c0.5,0,0.9-0.1,1.1-0.3s0.3-0.6,0.3-1.1c0-0.6-0.1-1-0.3-1.2s-0.5-0.3-1.1-0.3h-0.9v2.9
		H48.1z"/>
	<path fill="#FFFFFF" d="M58.9,16.1c1.7,0,3,0.3,3.8,1s1.2,1.9,1.2,3.6c0,1.9-0.7,3.2-2,3.8l1.9,3.6c0.1,0.2,0.1,0.4,0.1,0.5
		c-0.1,0.2-0.2,0.2-0.4,0.2h-2.4c-0.4,0-0.7-0.2-0.8-0.5l-1.6-3.3H58v3.2c0,0.4-0.2,0.6-0.6,0.6H55c-0.4,0-0.6-0.2-0.6-0.6V16.7
		c0-0.4,0.2-0.6,0.6-0.6H58.9z M58.9,22.2c0.5,0,0.9-0.1,1.1-0.3s0.3-0.6,0.3-1.1c0-0.6-0.1-1-0.3-1.2s-0.5-0.3-1.1-0.3H58v2.9H58.9
		z"/>
	<path fill="#FFFFFF" d="M68.7,23.9v1.8h3.7c0.4,0,0.6,0.2,0.6,0.6v1.9c0,0.4-0.2,0.6-0.6,0.6h-6.7c-0.4,0-0.6-0.2-0.6-0.6V16.7
		c0-0.4,0.2-0.6,0.6-0.6h6.6c0.4,0,0.6,0.2,0.6,0.6v1.9c0,0.4-0.2,0.6-0.6,0.6h-3.6v1.6h3.4c0.4,0,0.6,0.2,0.6,0.6v1.8
		c0,0.4-0.2,0.6-0.6,0.6H68.7z"/>
	<path fill="#FFFFFF" d="M84,28.3c0,0.4-0.2,0.6-0.6,0.6h-2.2c-0.4,0-0.6-0.2-0.8-0.5L77.8,23v5.3c0,0.4-0.2,0.6-0.6,0.6H75
		c-0.4,0-0.6-0.2-0.6-0.6V16.7c0-0.4,0.2-0.6,0.6-0.6h2.2c0.4,0,0.6,0.2,0.8,0.5l2.6,5.4v-5.3c0-0.4,0.2-0.6,0.6-0.6h2.3
		c0.4,0,0.6,0.2,0.6,0.6V28.3z"/>
	<path fill="#FFFFFF" d="M85.1,16.7c0-0.4,0.2-0.6,0.6-0.6h7.1c0.4,0,0.6,0.2,0.6,0.6v2c0,0.4-0.2,0.6-0.6,0.6h-1.8v8.9
		c0,0.4-0.2,0.6-0.6,0.6h-2.4c-0.4,0-0.6-0.2-0.6-0.6v-8.9h-1.8c-0.4,0-0.6-0.2-0.6-0.6V16.7z"/>
	<path fill="#FFFFFF" d="M105,16.1c0.4,0,0.7,0.2,0.8,0.6l2.8,11.4c0.1,0.2,0,0.4,0,0.5c-0.1,0.1-0.2,0.2-0.4,0.2h-2.5
		c-0.4,0-0.6-0.2-0.7-0.6l-0.3-1.5h-2.6l-0.3,1.5c-0.1,0.4-0.3,0.6-0.7,0.6h-2.5c-0.2,0-0.4-0.1-0.4-0.2s-0.1-0.3-0.1-0.5l2.8-11.4
		c0.1-0.4,0.4-0.6,0.8-0.6H105z M104.2,23.8l-0.8-4.1h-0.1l-0.9,4.1H104.2z"/>
	<path fill="#FFFFFF" d="M116.6,25.6c0.4-0.1,0.7,0,0.8,0.4l0.4,1.7c0,0.2,0,0.4,0,0.5s-0.2,0.2-0.4,0.3c-0.8,0.4-1.7,0.6-2.8,0.6
		c-1.8,0-3.2-0.5-4.1-1.5s-1.3-2.7-1.3-5.1c0-2.4,0.4-4.1,1.3-5.1c0.9-1,2.2-1.5,4-1.5c1,0,1.9,0.2,2.8,0.6c0.4,0.2,0.5,0.4,0.5,0.8
		l-0.4,1.7c-0.1,0.4-0.3,0.5-0.8,0.4c-0.5-0.1-1-0.2-1.4-0.2c-0.9,0-1.5,0.2-1.8,0.7s-0.5,1.3-0.5,2.7c0,1.3,0.2,2.3,0.5,2.7
		c0.3,0.5,1,0.7,1.9,0.7C115.6,25.9,116.1,25.8,116.6,25.6z"/>
	<path fill="#FFFFFF" d="M118.7,16.7c0-0.4,0.2-0.6,0.6-0.6h7.1c0.4,0,0.6,0.2,0.6,0.6v2c0,0.4-0.2,0.6-0.6,0.6h-1.8v8.9
		c0,0.4-0.2,0.6-0.6,0.6h-2.4c-0.4,0-0.6-0.2-0.6-0.6v-8.9h-1.8c-0.4,0-0.6-0.2-0.6-0.6V16.7z"/>
	<path fill="#FFFFFF" d="M128.3,16.7c0-0.4,0.2-0.6,0.6-0.6h2.4c0.4,0,0.6,0.2,0.6,0.6v11.5c0,0.4-0.2,0.6-0.6,0.6h-2.4
		c-0.4,0-0.6-0.2-0.6-0.6V16.7z"/>
	<path fill="#FFFFFF" d="M136.5,28.9c-0.4,0-0.7-0.2-0.8-0.6l-2.8-11.4c-0.1-0.2,0-0.4,0-0.5s0.2-0.2,0.4-0.2h2.6
		c0.4,0,0.6,0.2,0.7,0.6l1,5.9l0.4,2.6h0.1l0.4-2.6l1-5.9c0.1-0.4,0.3-0.6,0.7-0.6h2.6c0.2,0,0.4,0.1,0.4,0.2s0.1,0.3,0,0.5
		l-2.8,11.4c-0.1,0.4-0.4,0.6-0.8,0.6H136.5z"/>
	<path fill="#FFFFFF" d="M144.5,16.7c0-0.4,0.2-0.6,0.6-0.6h2.4c0.4,0,0.6,0.2,0.6,0.6v11.5c0,0.4-0.2,0.6-0.6,0.6h-2.4
		c-0.4,0-0.6-0.2-0.6-0.6V16.7z"/>
	<path fill="#FFFFFF" d="M149.3,16.7c0-0.4,0.2-0.6,0.6-0.6h7.1c0.4,0,0.6,0.2,0.6,0.6v2c0,0.4-0.2,0.6-0.6,0.6h-1.8v8.9
		c0,0.4-0.2,0.6-0.6,0.6h-2.4c-0.4,0-0.6-0.2-0.6-0.6v-8.9h-1.8c-0.4,0-0.6-0.2-0.6-0.6V16.7z"/>
	<path fill="#FFFFFF" d="M165.3,28.3c0,0.4-0.2,0.6-0.6,0.6h-2.4c-0.4,0-0.6-0.2-0.6-0.6v-4.1l-3.3-7.2c-0.1-0.2-0.1-0.3,0-0.5
		s0.2-0.3,0.5-0.3h2.5c0.4,0,0.7,0.2,0.8,0.6l1,2.8l0.4,1.6h0.1l0.4-1.6l1-2.8c0.1-0.4,0.4-0.6,0.8-0.6h2.5c0.2,0,0.4,0.1,0.5,0.3
		s0.1,0.3,0,0.5l-3.3,7.2V28.3z"/>
</g>
</svg>
