<?xml version="1.0" encoding="utf-8"?>
<!-- Generator: Adobe Illustrator 18.1.1, SVG Export Plug-In . SVG Version: 6.00 Build 0)  -->
<svg version="1.1" id="Layer_1" xmlns="http://www.w3.org/2000/svg" xmlns:xlink="http://www.w3.org/1999/xlink" x="0px" y="0px"
	 viewBox="0 0 94.9 94.9" enable-background="new 0 0 94.9 94.9" xml:space="preserve">
<path fill="#012639" d="M47.3,0C21.2,0,0,21.2,0,47.3c0,26.1,21.2,47.3,47.3,47.3s47.3-21.2,47.3-47.3C94.6,21.2,73.4,0,47.3,0z
	 M47.3,85.7c-21.2,0-38.4-17.2-38.4-38.4S26.1,8.9,47.3,8.9s38.4,17.2,38.4,38.4S68.5,85.7,47.3,85.7z M65.1,41.4H29.6
	c-1.6,0-3,1.3-3,3v5.9c0,1.6,1.3,3,3,3h35.5c1.6,0,3-1.3,3-3v-5.9C68,42.7,66.7,41.4,65.1,41.4z"/>
</svg>
