<?xml version="1.0" encoding="utf-8"?>
<!-- Generator: Adobe Illustrator 18.1.1, SVG Export Plug-In . SVG Version: 6.00 Build 0)  -->
<svg version="1.1" id="Layer_1" xmlns="http://www.w3.org/2000/svg" xmlns:xlink="http://www.w3.org/1999/xlink" x="0px" y="0px"
	 viewBox="0 0 94.9 94.9" enable-background="new 0 0 94.9 94.9" xml:space="preserve">
<path fill="#012639" d="M47.4,0C21.2,0,0,21.2,0,47.4c0,26.2,21.2,47.4,47.4,47.4c26.2,0,47.4-21.2,47.4-47.4
	C94.9,21.2,73.6,0,47.4,0z M47.4,86C26.1,86,8.9,68.7,8.9,47.4S26.1,8.9,47.4,8.9C68.7,8.9,86,26.1,86,47.4S68.7,86,47.4,86z
	 M65.3,41.5H53.4V29.6c0-1.6-1.3-3-3-3h-5.9c-1.6,0-3,1.3-3,3v11.9H29.6c-1.6,0-3,1.3-3,3v5.9c0,1.6,1.3,3,3,3h11.9v11.8
	c0,1.6,1.3,3,3,3h5.9c1.6,0,3-1.3,3-3V53.4h11.9c1.6,0,3-1.3,3-3v-5.9C68.2,42.8,66.9,41.5,65.3,41.5z"/>
</svg>
