<?xml version="1.0" encoding="utf-8"?>
<!-- Generator: Adobe Illustrator 18.1.1, SVG Export Plug-In . SVG Version: 6.00 Build 0)  -->
<svg version="1.1" id="Layer_1" xmlns="http://www.w3.org/2000/svg" xmlns:xlink="http://www.w3.org/1999/xlink" x="0px" y="0px"
	 viewBox="-241 333 128 128" enable-background="new -241 333 128 128" xml:space="preserve">
<path fill="#45B39C" d="M-177,333c35.3,0,64,28.7,64,64c0,35.3-28.7,64-64,64s-64-28.7-64-64C-241,361.7-212.3,333-177,333z"/>
<path fill="#EFC84A" d="M-207,384h60c1.7,0,3,1.3,3,3v44c0,1.7-1.3,3-3,3h-60c-1.7,0-3-1.3-3-3v-44C-210,385.3-208.7,384-207,384z"
	/>
<path fill="#D7B442" d="M-207,383h60c1.7,0,3,1.3,3,3v4c0,1.7-1.3,3-3,3h-60c-1.7,0-3-1.3-3-3v-4C-210,384.3-208.7,383-207,383z"/>
<path fill="#796320" d="M-197.9,385c-3,0-6.1,1.3-6.1,3s3,3,6.1,3c3,0,5.9-1.3,5.9-3S-194.9,385-197.9,385z M-155.9,385
	c-3,0-6.1,1.3-6.1,3s3,3,6.1,3s5.9-1.3,5.9-3S-152.9,385-155.9,385z"/>
<path fill="#FFFFFF" d="M-177,355c-13.8,0-25,11.2-25,25.1v7.8h0.2c0.6,0.6,2.2,1,3.8,1s3.2-0.4,3.8-1h0.2v-6.8
	c0-10.6,7.1-18.1,17-18.1s17,7.6,17,18.1v6.8h0.2c0.6,0.6,2.2,1,3.7,1s3.2-0.4,3.8-1h0.3v-7.8C-152,366.2-163.2,355-177,355z"/>
<path fill="#553E00" d="M-173,410.1c0-2.3-1.8-4.1-4-4.1s-4,1.8-4,4.1c0,1.5,0.8,2.8,1.9,3.5l-1.1,6.4h6.4l-1.1-6.4
	C-173.8,412.9-173,411.6-173,410.1z"/>
<g>
	<defs>
		<path id="SVGID_1_" d="M-177,355c-13.8,0-25,11.2-25,25.1v7.8h0.2c0.6,0.6,2.2,1,3.8,1s3.2-0.4,3.8-1h0.2v-6.8
			c0-10.6,7.1-18.1,17-18.1s17,7.6,17,18.1v6.8h0.2c0.6,0.6,2.2,1,3.7,1s3.2-0.4,3.8-1h0.3v-7.8C-152,366.2-163.2,355-177,355z"/>
	</defs>
	<clipPath id="SVGID_2_">
		<use xlink:href="#SVGID_1_"  overflow="visible"/>
	</clipPath>
	<path clip-path="url(#SVGID_2_)" fill="#E6E6E6" d="M-177,359c11.6,0,21,9.9,21,22.1v14.8c0,12.2-9.4,22.1-21,22.1
		c-11.6,0-21-9.9-21-22.1v-14.8C-198,368.9-188.6,359-177,359z"/>
</g>
<path fill="#F2D067" d="M-147,393h-60c-1.7,0-3-1.3-3-3v1c0,1.7,1.3,3,3,3h60c1.7,0,3-1.3,3-3v-1C-144,391.7-145.3,393-147,393z"/>
</svg>
