<?xml version="1.0" encoding="utf-8"?>
<!-- Generator: Adobe Illustrator 18.1.1, SVG Export Plug-In . SVG Version: 6.00 Build 0)  -->
<svg version="1.1" id="Layer_1" xmlns="http://www.w3.org/2000/svg" xmlns:xlink="http://www.w3.org/1999/xlink" x="0px" y="0px"
	 viewBox="0 0 600 600" enable-background="new 0 0 600 600" xml:space="preserve">
<g>
	<path fill="#324D5B" d="M192.3,0h215.1c30.9,0,56.1,25.3,56.1,56.1v486.4c0,30.9-25.3,56.1-56.1,56.1H192.3
		c-30.9,0-56.1-25.3-56.1-56.1V56.1C136.1,25.3,161.4,0,192.3,0z"/>
	<path fill="#3F5E6D" d="M173.6,84.2h252.5c5.1,0,9.4,4.2,9.4,9.4v411.5c0,5.1-4.2,9.4-9.4,9.4H173.6c-5.1,0-9.4-4.2-9.4-9.4V93.5
		C164.2,88.4,168.4,84.2,173.6,84.2z"/>
	<path fill="#99A6AD" d="M276.4,542.5h46.8c8,0,14,6.1,14,14s-6.1,14-14,14h-46.8c-8,0-14-6.1-14-14
		C262.4,549,268.5,542.5,276.4,542.5z M271.8,32.7h56.1c5.1,0,9.4,4.2,9.4,9.4s-4.2,9.4-9.4,9.4h-56.1c-5.1,0-9.4-4.2-9.4-9.4
		S266.6,32.7,271.8,32.7z"/>
	<path fill="#4E6B78" d="M319,237.1l8-8c0.9-0.9,0.9-2.8,0-3.7c-0.9-0.9-2.8-0.9-3.7,0l-10.3,9.8c-3.7-0.9-7.5-1.4-11.2-1.4
		c-3.7,0-7.5,0.5-11.2,1.4l-9.4-9.8c-0.9-0.9-2.8-0.9-3.7,0c-0.9,0.9-0.9,2.8,0,3.7l8,8c-13.6,5.1-22.9,16.4-22.9,29.5h79.5
		C341.9,253.5,332.6,242.2,319,237.1L319,237.1z M290.5,257.2c-2.8,0-4.7-1.9-4.7-4.7c0-2.8,1.9-4.7,4.7-4.7c2.8,0,4.7,1.9,4.7,4.7
		C295.1,255.3,293.3,257.2,290.5,257.2z M313.9,257.2c-2.8,0-4.7-1.9-4.7-4.7c0-2.8,1.9-4.7,4.7-4.7s4.7,1.9,4.7,4.7
		C318.5,255.3,316.7,257.2,313.9,257.2z M262.4,322.7c0,8,6.1,14,14,14v19.6c0,4.7,4.2,8.4,9.4,8.4c5.1,0,9.4-3.7,9.4-8.4v-19.6h14
		v19.6c0,4.7,4.2,8.4,9.4,8.4c5.1,0,9.4-3.7,9.4-8.4v-19.6c8,0,14-6.1,14-14v-51.4h-79.5V322.7z M250.7,271.2c-3.7,0-7,3.3-7,7v37.4
		c0,3.7,3.3,7,7,7c3.7,0,7-3.3,7-7v-37.4C257.7,274.5,254.5,271.2,250.7,271.2z M353.6,271.2c-3.7,0-7,3.3-7,7v37.4c0,3.7,3.3,7,7,7
		c3.7,0,7-3.3,7-7v-37.4C360.6,274.5,357.3,271.2,353.6,271.2z"/>
</g>
</svg>
