<?xml version="1.0" encoding="utf-8"?>
<!-- Generator: Adobe Illustrator 18.1.1, SVG Export Plug-In . SVG Version: 6.00 Build 0)  -->
<svg version="1.1" id="Layer_1" xmlns="http://www.w3.org/2000/svg" xmlns:xlink="http://www.w3.org/1999/xlink" x="0px" y="0px"
	 viewBox="0 0 600 600" enable-background="new 0 0 600 600" xml:space="preserve">
<path fill="#CCCBCB" d="M299.9,0c165.6,0,299.8,134.2,299.8,299.8c0,165.6-134.2,299.8-299.8,299.8S0.1,465.4,0.1,299.8
	S134.3,0,299.9,0z"/>
<path fill="#415E6D" d="M134.4,120.5l104.3,27.9c9.6,2.6,15.3,12.4,12.7,22L139.6,586.4c-2.6,9.6-12.4,15.3-22,12.7L13.3,571.3
	c-9.6-2.6-15.3-12.4-12.7-22l111.8-416.1C114.9,123.6,124.8,117.9,134.4,120.5z"/>
<path fill="#2C4552" d="M97.8,468.7c16,4.3,25.5,20.7,21.2,36.7c-4.3,16-20.7,25.5-36.7,21.2c-16-4.3-25.5-20.7-21.2-36.7
	C65.3,473.9,81.8,464.4,97.8,468.7z"/>
<path fill="#FFFFFF" d="M102.4,451.5c-25.6-6.8-51.9,8.3-58.8,33.9c-6.9,25.5,8.3,51.8,33.9,58.6c25.6,6.8,51.9-8.3,58.8-33.9
	C143.2,484.6,128,458.4,102.4,451.5z M119,505.5c-4.3,16-20.7,25.4-36.7,21.2S56.8,506,61,490c4.3-16,20.7-25.4,36.7-21.2
	C113.8,473.1,123.3,489.6,119,505.5z M217.5,183.6l-79.9-21.6c-3.1-0.9-6.4,1-7.2,4.2L72.3,384.8c-0.8,3.2,1,6.4,4.2,7.3l79.9,21.6
	c3.1,0.9,6.4-1,7.2-4.2l58.1-218.5C222.6,187.7,220.7,184.5,217.5,183.6z"/>
<path fill="#B2B2B2" d="M120.8,263.8l-3.2,11.2l59.2,15.1l3.2-11.2L120.8,263.8z M110.2,302.8l59.2,15l3.2-11.2l-59.2-15.1
	L110.2,302.8z"/>
<path fill="#25A5D0" d="M141.1,197.9l56.8,14.8l-9.1,33.2L132,231.1L141.1,197.9z"/>
<g>
	<defs>
		<path id="SVGID_1_" d="M299.9,0c165.6,0,299.8,134.2,299.8,299.8c0,165.6-134.2,299.8-299.8,299.8S0.1,465.4,0.1,299.8
			S134.3,0,299.9,0z"/>
	</defs>
	<clipPath id="SVGID_2_">
		<use xlink:href="#SVGID_1_"  overflow="visible"/>
	</clipPath>
	<g clip-path="url(#SVGID_2_)">
		<path fill="#415E6D" d="M413.8,131.9h107.9c9.9,0,18,8.1,18,18v431.8c0,9.9-8.1,18-18,18H413.8c-9.9,0-18-8-18-18V149.9
			C395.9,140,403.9,131.9,413.8,131.9z"/>
		<path fill="#2C4552" d="M464.8,485.7c18.2,0,33,13.4,33,30s-14.8,30-33,30c-18.2,0-33-13.4-33-30S446.6,485.7,464.8,485.7z"/>
		<path fill="#415E6D" d="M269.9,131.9h107.9c9.9,0,18,8.1,18,18v431.8c0,9.9-8.1,18-18,18H269.9c-9.9,0-18-8-18-18V149.9
			C251.9,140,260,131.9,269.9,131.9z"/>
		<path fill="#2C4552" d="M323.9,485.7c16.6,0,30,13.4,30,30s-13.4,30-30,30c-16.6,0-30-13.4-30-30S307.3,485.7,323.9,485.7z"/>
		<path fill="#FFFFFF" d="M323.9,467.7c-26.5,0-48,21.5-48,48s21.5,48,48,48c26.5,0,48-21.5,48-48S350.4,467.7,323.9,467.7z
			 M323.9,545.7c-16.6,0-30-13.4-30-30s13.4-30,30-30c16.6,0,30,13.4,30,30S340.5,545.7,323.9,545.7z M365.9,179.9h-84
			c-3.3,0-6,2.7-6,6v227.9c0,3.3,2.7,6,6,6h84c3.3,0,6-2.7,6-6V185.9C371.9,182.6,369.2,179.9,365.9,179.9z"/>
		<path fill="#B2B2B2" d="M293.9,275.9v12h60v-12H293.9z M293.9,317.8h60v-12h-60V317.8z"/>
		<path fill="#4DBEA9" d="M293.9,215.9h60v36h-60V215.9z"/>
		<path fill="#344B57" d="M263.9,581.7V149.9c0-9.9,8.1-18,18-18h-12c-9.9,0-18,8.1-18,18v431.8c0,9.9,8.1,18,18,18h12
			C272,599.7,263.9,591.6,263.9,581.7z M407.9,581.7V149.9c0-9.9,8.1-18,18-18h-12c-9.9,0-18,8.1-18,18v431.8c0,9.9,8.1,18,18,18h12
			C415.9,599.7,407.9,591.6,407.9,581.7z"/>
		<path fill="#233742" d="M464.8,485.7c-11.3,0-21.2,5.2-27.2,13c5.7-4.4,13.1-7,21.2-7c18.2,0,33,13.4,33,30c0,6.3-2.1,12.1-5.8,17
			c7.2-5.5,11.8-13.8,11.8-23C497.8,499.2,483,485.7,464.8,485.7z"/>
		<path fill="#FFFFFF" d="M467.8,467.7c-26.5,0-48,21.5-48,48s21.5,48,48,48c26.5,0,48-21.5,48-48S494.3,467.7,467.8,467.7z
			 M467.8,545.7c-16.6,0-30-13.4-30-30s13.4-30,30-30c16.6,0,30,13.4,30,30S484.4,545.7,467.8,545.7z M509.8,179.9h-84
			c-3.3,0-6,2.7-6,6v227.9c0,3.3,2.7,6,6,6h84c3.3,0,6-2.7,6-6V185.9C515.8,182.6,513.1,179.9,509.8,179.9z"/>
		<path fill="#B2B2B2" d="M437.8,275.9v12h60v-12H437.8z M437.8,317.8h60v-12h-60V317.8z"/>
		<path fill="#F2B359" d="M437.8,215.9h60v36h-60V215.9z"/>
		<path fill="#233742" d="M323.9,485.7c-9.8,0-18.4,4.8-23.9,12.1c5-3.8,11.2-6.1,17.9-6.1c16.6,0,30,13.4,30,30
			c0,6.7-2.3,12.9-6.1,17.9c7.3-5.5,12.1-14.1,12.1-23.9C353.9,499.2,340.5,485.7,323.9,485.7z"/>
	</g>
</g>
<path fill="#233742" d="M97.8,468.7c-12.3-3.3-24.7,1.6-31.8,11.2c7.1-5.4,16.5-7.7,25.8-5.2c16,4.3,25.5,20.7,21.2,36.7
	c-1,3.7-2.7,7.1-4.9,10c5.1-3.9,9.1-9.3,10.9-16C123.3,489.5,113.8,473,97.8,468.7z"/>
<path fill="#344B57" d="M134.4,120.5c-9.6-2.6-19.5,3.1-22,12.7L0.6,549.3c-2.6,9.6,3.1,19.4,12.7,22l9.4,2.5
	c-9.5-2.6-15.2-12.6-12.6-22.1l111.8-416.1c2.4-9.1,11.5-14.6,20.6-12.9L134.4,120.5z"/>
</svg>
