<?xml version="1.0" encoding="utf-8"?>
<!-- Generator: Adobe Illustrator 18.1.1, SVG Export Plug-In . SVG Version: 6.00 Build 0)  -->
<svg version="1.1" id="Layer_1" xmlns="http://www.w3.org/2000/svg" xmlns:xlink="http://www.w3.org/1999/xlink" x="0px" y="0px"
	 viewBox="0 0 600 600" enable-background="new 0 0 600 600" xml:space="preserve">
<path fill="#85CFC3" d="M300,0.8c165.1,0,298.9,133.8,298.9,298.9S465.1,598.7,300,598.7S1.1,464.8,1.1,299.7S134.9,0.8,300,0.8z"/>
<path fill="#EFC84A" d="M145.9,131.6h308.3c7.7,0,14,6.3,14,14v308.3c0,7.7-6.3,14-14,14H145.9c-7.7,0-14-6.3-14-14V145.6
	C131.8,137.9,138.1,131.6,145.9,131.6z"/>
<path fill="#FFFFFF" d="M173.9,159.6h252.2c7.7,0,14,6.3,14,14v247.6c0,7.7-6.3,14-14,14H173.9c-7.7,0-14-6.3-14-14V173.6
	C159.9,165.9,166.1,159.6,173.9,159.6z"/>
<path fill="#ECECEC" d="M159.9,290.4V173.6c0-7.7,6.3-14,14-14h252.2c7.7,0,14,6.3,14,14v116.8"/>
<path fill="#D8B442" d="M169.2,309.1h261.6c7.7,0,14,6.3,14,14l14,65.4c0,7.7-6.3,14-14,14H155.2c-7.7,0-14-6.3-14-14l14-65.4
	C155.2,315.4,161.5,309.1,169.2,309.1z"/>
<path fill="#E6E6E5" d="M169.2,309.1c-3.6,0-6.9,1.4-9.3,3.6v89.8h280.3v-89.8c-2.5-2.2-5.7-3.6-9.3-3.6H169.2z"/>
<path fill="#C9A83B" d="M173.9,295.1h252.2c7.7,0,14,6.3,14,14l14,65.4c0,7.7-6.3,14-14,14H159.9c-7.7,0-14-6.3-14-14l14-65.4
	C159.9,301.4,166.1,295.1,173.9,295.1z"/>
<path fill="#D4D4D4" d="M426.1,295.1H173.9c-7.7,0-14,6.3-14,14v79.4h280.3v-79.4C440.1,301.4,433.9,295.1,426.1,295.1z"/>
<path fill="#FFFFFF" d="M173.9,290.4h252.2c7.7,0,14,6.3,14,14l14,65.4c0,7.7-6.3,14-14,14H159.9c-7.7,0-14-6.3-14-14l14-65.4
	C159.9,296.7,166.1,290.4,173.9,290.4z"/>
<path fill="#344D5D" d="M286.7,318.8h-45.2c0.9-2.3,2.3-4.6,4.1-6.8c1.8-2.2,3.8-4.3,6-6.2c2.2-2,4.5-3.8,6.9-5.5
	c2.4-1.7,4.8-3.2,7.1-4.6c3.4-2,6.4-3.9,9.2-6c2.8-2,5.2-4.2,7.2-6.6c2.1-2.4,3.6-5,4.8-7.8c1.1-2.8,1.7-6,1.7-9.5
	c0-4.4-0.8-8.2-2.5-11.5c-1.7-3.3-4-6-7-8.2c-3-2.2-6.5-3.8-10.5-4.9c-4-1.1-8.4-1.6-13-1.6c-12.2,0-23.4,3.7-33.4,11.2
	c-1.3,0.9-1.5,2.1-0.6,3.6l6.4,9.8c0.6,0.7,1.2,1.1,1.8,1.1c0.7,0,1.4-0.2,2.1-0.7c3.8-2.5,7.5-4.4,11.1-5.5
	c3.6-1.2,7.2-1.8,10.7-1.8c2.6,0,4.8,0.3,6.5,0.8s3.1,1.3,4.1,2.1c1,0.8,1.8,1.8,2.2,2.9c0.5,1.1,0.7,2.2,0.7,3.4
	c0,1.3-0.2,2.5-0.6,3.6c-0.4,1.1-1.1,2.3-2,3.4s-2.3,2.4-4.1,3.8c-1.7,1.4-3.9,2.9-6.7,4.6c-3.1,2-6.7,4.4-10.8,7.3
	s-8.1,6.2-11.9,9.9c-4.1,3.9-7.4,7.9-9.7,11.9c-2.4,4-3.6,7.8-3.6,11.2c0,5.2,1.1,10,3.3,11.8c2.2,1.7,5.3,2.6,9.5,2.6h55.8
	c1,0,1.7-0.2,2-0.6c0.3-0.4,0.5-1.1,0.5-2.2v-12.4c0-1.3-0.2-2.1-0.5-2.4S287.8,318.8,286.7,318.8z M379,290.6
	c-1.9-3.7-4.4-6.8-7.7-9.2c-3.3-2.4-7.1-4.2-11.5-5.3c-4.4-1.1-9.1-1.7-14-1.7c-1.5,0-3.2,0.1-5,0.2c-1.8,0.1-3.6,0.4-5.5,0.6
	c-1.8,0.3-3.6,0.6-5.3,0.9c-1.7,0.3-3.2,0.7-4.6,1.1c1.4-6.6,4.3-11.7,8.7-15.2c4.4-3.5,10.1-5.3,17.1-5.3c2.3,0,4.7,0.2,7.1,0.5
	c2.4,0.3,4.6,0.8,6.7,1.3c0.7,0.2,1.4,0.3,2.1,0.2c0.7,0,1.2-0.6,1.5-1.8l3.1-11c0.5-1.5,0.5-2.4,0.1-2.8c-0.4-0.4-0.9-0.7-1.5-0.9
	c-2.9-1-6.2-1.7-9.8-2.2c-3.6-0.4-7-0.6-10.1-0.6c-8.1,0-15.1,1.4-21,4.1c-5.9,2.7-10.8,6.5-14.6,11.3c-3.9,4.8-6.7,10.4-8.6,16.9
	s-2.8,13.5-2.8,21.1c0,6.7,0.8,12.8,2.5,18.3c1.7,5.5,4.2,10.1,7.6,14c3.4,3.9,7.6,6.8,12.7,8.9c5.1,2.1,11.1,3.1,18,3.1
	c4.9,0,9.6-0.7,14.1-2c4.5-1.3,8.5-3.3,12.1-6s6.3-6.1,8.4-10.2c2.1-4.1,3.2-9,3.2-14.6C381.8,298.9,380.9,294.3,379,290.6
	L379,290.6z M355.6,315.1c-3.1,2.4-7.1,3.7-11.8,3.7c-6,0-10.7-2-14.2-5.9c-3.5-4-5.2-9.4-5.2-16.2v-3.2c3.8-1,7.2-1.8,10.3-2.3
	c3.1-0.5,6.4-0.8,10-0.8c5.2,0,9.2,1.2,11.8,3.7c2.6,2.4,3.9,5.8,3.9,10.2C360.3,309,358.8,312.6,355.6,315.1z"/>
<path fill="#E27C3E" d="M276.6,183h46.7c7.7,0,14,6.3,14,14s-6.3,14-14,14h-46.7c-7.7,0-14-6.3-14-14S268.9,183,276.6,183z"/>
<path fill="#737373" d="M185.6,271.7c-3.9,0-7,3.1-7,7v23.4c0,3.9,3.1,7,7,7c3.9,0,7-3.1,7-7v-23.4
	C192.6,274.9,189.4,271.7,185.6,271.7z M414.4,271.7c-3.9,0-7,3.1-7,7v23.4c0,3.9,3.1,7,7,7c3.9,0,7-3.1,7-7v-23.4
	C421.4,274.9,418.3,271.7,414.4,271.7z"/>
<path fill="#4B616F" d="M356.4,294c2.6,2.4,3.9,5.8,3.9,10.2c0,4.8-1.6,8.4-4.7,10.9c-3.1,2.4-7.1,3.7-11.8,3.7
	c-6,0-10.7-2-14.2-5.9c-3.5-4-5.2-9.4-5.2-16.2v-3.2c3.8-1,7.2-1.8,10.3-2.3c2.8-0.5,5.8-0.7,9.1-0.7h-40.3l-0.1,2.4
	c0,6.7,0.8,12.8,2.5,18.3c1.7,5.5,4.2,10.1,7.6,14c3.4,3.9,7.6,6.8,12.7,8.9c5.1,2.1,11.1,3.1,18,3.1c4.9,0,9.6-0.7,14.1-2
	c4.5-1.3,8.5-3.3,12.1-6s6.3-6.1,8.4-10.2c2.1-4.1,3.2-9,3.2-14.6c0-5.3-0.9-9.9-2.8-13.6l-0.1-0.2h-33.7
	C350.1,290.5,353.9,291.7,356.4,294L356.4,294z M230.9,336.8h55.8c1,0,1.7-0.2,2-0.6c0.3-0.4,0.5-1.1,0.5-2.2v-12.4
	c0-1.3-0.2-2.1-0.5-2.4c-0.3-0.3-1-0.4-2-0.4h-45.2c0.9-2.3,2.3-4.6,4.1-6.8c1.8-2.2,3.8-4.3,6-6.2c2.2-2,4.5-3.8,6.9-5.5
	c2.4-1.7,4.8-3.2,7.1-4.6c3-1.7,5.6-3.5,8.1-5.2H242c-3.6,2.6-7.1,5.6-10.5,8.9c-4.1,3.9-7.4,7.9-9.7,11.9c-2.4,4-3.6,7.8-3.6,11.2
	c0,5.2,1.1,10,3.3,11.8C223.6,335.9,226.8,336.8,230.9,336.8z"/>
<path fill="#D8B442" d="M426.1,435.2H173.9c-7.7,0-14-6.3-14-14v4.7c0,7.7,6.3,14,14,14h252.2c7.7,0,14-6.3,14-14v-4.7
	C440.1,428.9,433.9,435.2,426.1,435.2z"/>
<path fill="#868686" d="M185.6,271.7c-3.9,0-7,3.1-7,7v18.7c0,3.9,3.1,7,7,7c3.9,0,7-3.1,7-7v-18.7
	C192.6,274.9,189.4,271.7,185.6,271.7z M414.4,271.7c-3.9,0-7,3.1-7,7v18.7c0,3.9,3.1,7,7,7c3.9,0,7-3.1,7-7v-18.7
	C421.4,274.9,418.3,271.7,414.4,271.7z"/>
</svg>
