<?xml version="1.0" encoding="utf-8"?>
<!-- Generator: Adobe Illustrator 18.1.1, SVG Export Plug-In . SVG Version: 6.00 Build 0)  -->
<svg version="1.1" id="Layer_1" xmlns="http://www.w3.org/2000/svg" xmlns:xlink="http://www.w3.org/1999/xlink" x="0px" y="0px"
	 viewBox="0 0 600 600" enable-background="new 0 0 600 600" xml:space="preserve">
<g>
	<path fill="#012639" d="M74.9,37h449.8c20.6,0,37.5,16.9,37.5,37.5v487.3c0,20.6-16.9,37.5-37.5,37.5H74.9
		c-20.6,0-37.5-16.9-37.5-37.5V74.5C37.4,53.9,54.3,37,74.9,37z"/>
	<path fill="#2C435E" d="M524.7,37H74.9c-20.6,0-37.5,16.9-37.5,37.5V98c0-20.6,16.9-37.5,37.5-37.5h449.8
		c20.6,0,37.5,16.9,37.5,37.5V74.5C562.2,53.9,545.3,37,524.7,37z"/>
	<path fill="#FFFFFF" d="M121.7,102.6h356.1c10.3,0,18.7,8.4,18.7,18.7V515c0,10.3-8.4,18.7-18.7,18.7H121.7
		c-10.3,0-18.7-8.4-18.7-18.7V121.4C103,111.1,111.4,102.6,121.7,102.6z"/>
	<path fill="#CCD0D2" d="M159.2,74.5h281.1c5.2,0,9.4,4.2,9.4,9.4v37.5c0,15.5-12.7,28.1-28.1,28.1H178c-15.5,0-28.1-12.7-28.1-28.1
		V83.9C149.9,78.7,154.1,74.5,159.2,74.5z"/>
	<path fill="#4D4D4D" d="M220.1,238.5h206.2c5.2,0,9.4-4.2,9.4-9.4c0-5.2-4.2-9.4-9.4-9.4H220.1c-5.2,0-9.4,4.2-9.4,9.4
		C210.8,234.3,215,238.5,220.1,238.5z M426.3,266.6H220.1c-5.2,0-9.4,4.2-9.4,9.4c0,5.2,4.2,9.4,9.4,9.4h206.2
		c5.2,0,9.4-4.2,9.4-9.4C435.7,270.9,431.5,266.6,426.3,266.6z M426.3,313.5H220.1c-5.2,0-9.4,4.2-9.4,9.4s4.2,9.4,9.4,9.4h206.2
		c5.2,0,9.4-4.2,9.4-9.4S431.5,313.5,426.3,313.5z M182.7,219.8h-9.4c-5.2,0-9.4,4.2-9.4,9.4c0,5.2,4.2,9.4,9.4,9.4h9.4
		c5.2,0,9.4-4.2,9.4-9.4C192,224,187.8,219.8,182.7,219.8z M182.7,266.6h-9.4c-5.2,0-9.4,4.2-9.4,9.4c0,5.2,4.2,9.4,9.4,9.4h9.4
		c5.2,0,9.4-4.2,9.4-9.4C192,270.9,187.8,266.6,182.7,266.6z M182.7,313.5h-9.4c-5.2,0-9.4,4.2-9.4,9.4s4.2,9.4,9.4,9.4h9.4
		c5.2,0,9.4-4.2,9.4-9.4S187.8,313.5,182.7,313.5z M426.3,360.4H220.1c-5.2,0-9.4,4.2-9.4,9.4s4.2,9.4,9.4,9.4h206.2
		c5.2,0,9.4-4.2,9.4-9.4S431.5,360.4,426.3,360.4z M426.3,407.2H220.1c-5.2,0-9.4,4.2-9.4,9.4s4.2,9.4,9.4,9.4h206.2
		c5.2,0,9.4-4.2,9.4-9.4S431.5,407.2,426.3,407.2z M182.7,360.4h-9.4c-5.2,0-9.4,4.2-9.4,9.4s4.2,9.4,9.4,9.4h9.4
		c5.2,0,9.4-4.2,9.4-9.4S187.8,360.4,182.7,360.4z M182.7,407.2h-9.4c-5.2,0-9.4,4.2-9.4,9.4s4.2,9.4,9.4,9.4h9.4
		c5.2,0,9.4-4.2,9.4-9.4S187.8,407.2,182.7,407.2z"/>
	<path fill="#CCD0D2" d="M238.9-0.4h121.8c15.5,0,28.1,12.7,28.1,28.1v46.9H210.8V27.7C210.8,12.2,223.4-0.4,238.9-0.4z"/>
	<path fill="#BCC0C2" d="M149.9,83.9v18.7h299.9V83.9c0-5.2-4.2-9.4-9.4-9.4H159.2C154.1,74.5,149.9,78.7,149.9,83.9z"/>
	<path fill="#AEB1B3" d="M210.8,55.8h178.1v18.7H210.8V55.8z"/>
</g>
</svg>
