<?xml version="1.0" encoding="utf-8"?>
<!-- Generator: Adobe Illustrator 18.1.1, SVG Export Plug-In . SVG Version: 6.00 Build 0)  -->
<svg version="1.1" id="Layer_1" xmlns="http://www.w3.org/2000/svg" xmlns:xlink="http://www.w3.org/1999/xlink" x="0px" y="0px"
	 viewBox="0 0 600 600" enable-background="new 0 0 600 600" xml:space="preserve">
<path fill="#FDC96B" d="M299.7,1.1c165.3,0,299.2,134,299.2,299.2c0,165.3-134,299.2-299.2,299.2S0.5,465.5,0.5,300.3
	C0.5,135,134.5,1.1,299.7,1.1z"/>
<path fill="#2B424F" d="M243.4,482.6H356v4.6H243.4V482.6z"/>
<path fill="#ECF0F0" d="M480.8,150.8H118.7c-11,0-19.9,8.9-19.9,19.9v235.8c0,11,8.9,19.9,19.9,19.9h143.5
	c-1.7,33.1-4.9,40.3-4.9,40.3s-5.8,13.9-13.7,13.9c0.2,0,0,2,0,2H356c0,0-0.2-2,0-2c-7.6,0-13.1-13.9-13.1-13.9s-3.8-7.2-5.5-40.3
	h140.8c11,0,22.5-8.9,22.5-19.9V170.7C500.7,159.8,491.8,150.8,480.8,150.8L480.8,150.8z"/>
<linearGradient id="SVGID_1_" gradientUnits="userSpaceOnUse" x1="299.7188" y1="119.3979" x2="299.7188" y2="175.605" gradientTransform="matrix(1 0 0 -1 0 602)">
	<stop  offset="0" style="stop-color:#FFFFFF;stop-opacity:0"/>
	<stop  offset="1" style="stop-color:#010101;stop-opacity:0.5"/>
</linearGradient>
<path fill="url(#SVGID_1_)" d="M342.8,466.7c0,0-3.8-7.2-5.5-40.3h-75.1c-1.7,33.1-4.9,40.3-4.9,40.3s-5.8,13.9-13.7,13.9
	c0.2,0,0,2,0,2h112.4c0,0-0.2-2,0-2C348.3,480.6,342.8,466.7,342.8,466.7z"/>
<path fill="#2B424F" d="M480.8,150.7H118.6c-11,0-19.9,8.9-19.9,19.9c0,0,0,199.9,0,199.8c0,0,401.8-0.1,402.1,0V170.6
	C500.7,159.6,491.8,150.7,480.8,150.7z M299.6,384.4c-7.7,0-14,6.2-14,14s6.3,14,14,14c7.7,0,14-6.2,14-14S307.4,384.4,299.6,384.4z
	"/>
<path fill="#3C5867" d="M477.4,173.9V347c-0.8,0-355.2,0.2-355.3,0V173.9C122.1,173.9,477.5,173.9,477.4,173.9z"/>
</svg>
