<?xml version="1.0" encoding="utf-8"?>
<!-- Generator: Adobe Illustrator 18.1.1, SVG Export Plug-In . SVG Version: 6.00 Build 0)  -->
<svg version="1.1" id="Layer_1" xmlns="http://www.w3.org/2000/svg" xmlns:xlink="http://www.w3.org/1999/xlink" x="0px" y="0px"
	 viewBox="0 0 751.9 665.6" enable-background="new 0 0 751.9 665.6" xml:space="preserve">
<circle fill="#FFFFFF" cx="39.3" cy="458.7" r="2.5"/>
<g>
	
		<circle fill="none" stroke="#666666" stroke-width="3" stroke-linecap="round" stroke-miterlimit="10" stroke-dasharray="12.0169,12.0169" cx="357.9" cy="354.1" r="309.8"/>
</g>
<g>
	<path fill="#EDEDED" d="M60.6,328.9C27.1,328.9,0,356.1,0,389.5s27.1,60.6,60.6,60.6c33.5,0,60.6-27.1,60.6-60.6
		S94.1,328.9,60.6,328.9z"/>
	<path fill="#2B414D" d="M23,402.9h-2.4c-0.1,7-1.2,9.7-1.2,9.7l7.3,1.2C26.7,413.8,23,409.2,23,402.9z M23,384.7h-2.4v17H23V384.7z
		 M23,402.9h-2.4c-0.1,7-1.2,9.7-1.2,9.7l7.3,1.2C26.7,413.8,23,409.2,23,402.9z M23,384.7h-2.4v17H23V384.7z"/>
	<path fill="#475F6C" d="M21.8,399.2c2,0,3.6,1.6,3.6,3.6c0,2-1.6,3.6-3.6,3.6s-3.6-1.6-3.6-3.6C18.2,400.9,19.8,399.2,21.8,399.2z"
		/>
	<path fill="#2B414D" d="M12,383.4L58,362.2c1.4-0.7,3.7-0.7,5.1,0l46.1,21.2c1.4,0.7,1.4,1.9,0,2.6l-46.1,21.2
		c-1.4,0.7-3.7,0.7-5.1,0L12,386C10.5,385.3,10.5,384.1,12,383.4z M60.6,395.6c13.9,0,25.2,4.9,25.2,10.9c0,6-11.3,10.9-25.2,10.9
		c-13.9,0-25.2-4.9-25.2-10.9C35.4,400.5,46.7,395.6,60.6,395.6z"/>
	<path fill="#455E6B" d="M60.6,395.6c13.9,0,25.2,4.9,25.2,10.9v0l0,0.1l-2.2-17.1c0-5.4-10.3-9.7-23-9.7c-12.7,0-23,4.3-23,9.7h0
		l-2.1,15.8C36.9,399.9,47.6,395.6,60.6,395.6z"/>
	<path fill="#4B6370" d="M85.8,406.5l0,0.1l-2.2-17.1c0-5.4-10.3-9.7-23-9.7v15.8C74.5,395.6,85.8,400.5,85.8,406.5z"/>
</g>
<g>
	<path fill="#EDEDED" d="M250.8,0c32,0,58,26,58,58s-26,58-58,58c-32,0-58-26-58-58S218.8,0,250.8,0z"/>
	<path fill="#2B414D" d="M284.5,50.5c0-17-13.8-30.7-30.8-30.7c-14.5,0-26.6,10-29.9,23.5l0,0l0,0.1c-0.2,0.9-0.4,1.8-0.5,2.7
		c-0.3,1.3-0.7,2.7-1.1,3.4c-2.4,4.1-6.5,11.3-6.5,11.3c-0.7,1.3-0.3,3,1,3.7l6.7,3.9v13.7c0,1.4,1.2,2.6,2.6,2.6h12.4v14.8
		c0,1.4,1.2,2.6,2.6,2.6l27.1-9.4c1.4,0,2.6-1.2,2.6-2.6V76.1C279,70.6,284.5,61.2,284.5,50.5z"/>
	<path fill="#415F6F" d="M257.8,38c0-0.5,0-1,0-1.5l-1.5-0.4l-0.4-1.7l1.1-1.1c-0.2-0.5-0.5-0.9-0.8-1.3l-1.5,0.4l-1.2-1.2l0.4-1.5
		c-0.4-0.3-0.9-0.6-1.3-0.8l-1.1,1.1l-1.7-0.5l-0.4-1.5l-0.1,0c-0.5,0-1,0-1.4,0l-0.4,1.5l-1.7,0.4l-1.1-1.1
		c-0.5,0.2-0.9,0.5-1.3,0.8l0.4,1.5l-1.2,1.2l-1.5-0.4c-0.3,0.4-0.6,0.9-0.8,1.3l1.1,1.1l-0.5,1.7l-1.5,0.4c0,0.5,0,1,0,1.5l1.5,0.4
		l0.4,1.7l-1.1,1.1c0.2,0.5,0.5,0.9,0.8,1.3l1.5-0.4l1.2,1.2l-0.4,1.5c0.4,0.3,0.9,0.6,1.3,0.8l1.1-1.1l1.7,0.5l0.4,1.5l0.1,0
		c0.5,0,1,0,1.4,0l0.4-1.5l1.7-0.4l1.1,1.1c0.5-0.2,0.9-0.5,1.3-0.8l-0.4-1.5l1.2-1.2l1.5,0.4c0.3-0.4,0.6-0.9,0.8-1.3l-1.1-1.1
		l0.5-1.7L257.8,38L257.8,38z M249.7,41.5c-2.4,0.7-5-0.8-5.6-3.2c-0.7-2.4,0.8-5,3.2-5.6c2.4-0.7,5,0.8,5.6,3.2
		C253.6,38.4,252.1,40.9,249.7,41.5z"/>
	<path fill="#E2574C" d="M275.7,51.9l1.9-0.6c0-0.6,0-1.3-0.1-1.9l-1.9-0.4l-0.7-2.1l1.3-1.5c-0.3-0.6-0.7-1.1-1.1-1.6l-1.9,0.6
		l-1.6-1.4l0.4-1.9c-0.6-0.3-1.1-0.6-1.7-0.9l-1.3,1.5l-2.1-0.4l-0.6-1.9c-0.6,0-1.3,0-1.9,0.1l-0.4,1.9l-2.1,0.7l-1.5-1.3
		c-0.6,0.3-1.1,0.7-1.6,1.1l0.6,1.9l-1.4,1.6L256,45c-0.3,0.6-0.6,1.1-0.9,1.7l1.5,1.3l-0.4,2.1l-1.9,0.6c0,0.6,0,1.3,0.1,1.9
		l1.9,0.4l0.7,2.1l-1.3,1.5c0.3,0.6,0.7,1.1,1.1,1.6l1.9-0.6l1.6,1.4l-0.4,1.9c0.6,0.3,1.1,0.6,1.7,0.9l1.3-1.5l2.1,0.4l0.6,1.9
		c0.6,0,1.3,0,1.9-0.1l0.4-1.9l2.1-0.7l1.5,1.3c0.6-0.3,1.1-0.7,1.6-1.1l-0.6-1.9l1.4-1.6l1.9,0.4c0.3-0.6,0.6-1.1,0.9-1.7l-1.5-1.3
		L275.7,51.9z M265.9,56.8c-3.2,0-5.8-2.6-5.8-5.8c0-3.2,2.6-5.8,5.8-5.8s5.8,2.6,5.8,5.8C271.7,54.2,269.1,56.8,265.9,56.8z"/>
	<path fill="#668292" d="M252.9,58.9c0.1-0.5,0.2-1,0.2-1.5l-1.4-0.6l-0.2-1.7l1.2-0.9c-0.2-0.5-0.3-1-0.6-1.4l-1.6,0.2l-1-1.4
		l0.6-1.4l-0.1-0.1c-0.4-0.3-0.7-0.6-1.1-0.9l-1.2,0.9l-1.6-0.7l-0.2-1.6c-0.5-0.1-1-0.2-1.5-0.2l-0.6,1.4l-1.7,0.2l-0.9-1.3
		c-0.5,0.2-1,0.3-1.4,0.6l0.2,1.6l-1.4,1l-1.4-0.6c-0.4,0.4-0.7,0.8-0.9,1.2l0.9,1.3l-0.7,1.6l-1.5,0.2c-0.1,0.5-0.2,1-0.2,1.5
		l1.4,0.6l0.2,1.7l-1.2,0.9c0.2,0.5,0.3,1,0.6,1.4l1.6-0.2l1,1.4l-0.6,1.4l0.1,0.1c0.4,0.3,0.7,0.6,1.1,0.9l1.2-0.9l1.6,0.7l0.2,1.6
		c0.5,0.1,1,0.2,1.5,0.2l0.6-1.4l1.7-0.2l0.9,1.3c0.5-0.2,1-0.3,1.4-0.6l-0.2-1.6l1.4-1l1.4,0.6c0.4-0.4,0.7-0.8,0.9-1.2l-0.9-1.3
		l0.7-1.6L252.9,58.9z M248.4,58c-0.7,2.5-3.2,3.9-5.7,3.3c-2.5-0.7-3.9-3.2-3.3-5.7c0.7-2.5,3.2-3.9,5.7-3.3
		C247.6,53,249,55.6,248.4,58z"/>
</g>
<g>
	<path fill="#EDEDED" d="M661.4,328.3c-33.8,0-61.2,27.4-61.2,61.2c0,33.8,27.4,61.2,61.2,61.2s61.2-27.4,61.2-61.2
		C722.6,355.7,695.2,328.3,661.4,328.3z"/>
	<path fill="#FFFFFF" d="M632,367.5l-2.4,49c0,1,1.1,16.2,1.8,26.4c8.9,5,19.1,7.9,30,7.9c33.8,0,61.2-27.4,61.2-61.2
		c0-10.6-2.7-20.7-7.5-29.4h-75.8C635.3,360.2,632,363.4,632,367.5z"/>
	<path fill="#DADADA" d="M683.4,421.4l-36.6-50.2L631,386.9l-1.4,28.9l1.8,27.1c6.7,3.8,14.1,6.3,22,7.3L683.4,421.4z"/>
	<path fill="#E7E7E7" d="M629.5,415.3l1.8,27.6c8.9,5,19.1,7.9,30.1,7.9c24.6,0,45.8-14.5,55.6-35.5H629.5z"/>
	<path fill="#CFCFCF" d="M683.4,421.4l-4.5-6.1h-49.3l0,0.5l1.8,27.1c6.7,3.8,14.1,6.3,22,7.3L683.4,421.4z"/>
	<path fill="#3E4E5C" d="M668.1,385.9l-18.9,8.7l15.3,34.2l8.2-7.3l10.8-0.1L668.1,385.9z"/>
	<path fill="#52606D" d="M654.1,387.1l18.3,8.4l-14.8,33.2l-7.9-7.4l-10.4,0L654.1,387.1z"/>
	<path fill="#394754" d="M668.1,385.9l-18.9,8.7l9.1,20.2c1.1-0.5,2.1-1.3,3.2-1.3c1.7,0,3.6,2.2,5.2,1.8c1.6-0.4,2.4-3.2,3.9-3.9
		c1.5-0.7,4.1,0.4,5.4-0.7c0.9-0.7,1-2.4,1.3-3.8L668.1,385.9z"/>
	<path fill="#4C5965" d="M654.1,387.1l-8.5,19.7c0.3,1.4,0.4,3,1.3,3.8c1.3,1.1,3.9,0,5.4,0.7c1.5,0.7,2.3,3.5,3.9,3.9
		c1.6,0.4,3.5-1.8,5.2-1.8c0.8,0,1.7,0.5,2.6,1l8.4-18.9L654.1,387.1z"/>
	<path fill="#EFC75E" d="M684.6,389.5c0,1.7-2.5,3.2-2.8,4.8c-0.4,1.7,1.3,4.1,0.5,5.6c-0.7,1.5-3.6,1.7-4.6,3
		c-1,1.3-0.6,4.2-1.9,5.3c-1.3,1.1-3.9,0-5.4,0.7c-1.5,0.7-2.3,3.5-3.9,3.9c-1.6,0.4-3.5-1.8-5.2-1.8s-3.6,2.2-5.2,1.8
		c-1.6-0.4-2.4-3.2-3.9-3.9c-1.5-0.7-4.1,0.4-5.4-0.7c-1.3-1.1-0.8-3.9-1.9-5.3c-1-1.3-3.9-1.5-4.6-3c-0.7-1.5,0.9-3.9,0.5-5.6
		c-0.4-1.6-2.8-3-2.8-4.8c0-1.7,2.5-3.2,2.8-4.8c0.4-1.7-1.3-4.1-0.5-5.6c0.7-1.5,3.6-1.7,4.6-3c1-1.3,0.6-4.2,1.9-5.3
		c1.3-1.1,3.9,0,5.4-0.7c1.5-0.7,2.3-3.5,3.9-3.9c1.6-0.4,3.5,1.8,5.2,1.8s3.6-2.2,5.2-1.8c1.6,0.4,2.4,3.2,3.9,3.9
		c1.5,0.7,4.1-0.4,5.4,0.7c1.3,1.1,0.8,3.9,1.9,5.3c1,1.3,3.9,1.5,4.6,3c0.7,1.5-0.9,3.9-0.5,5.6
		C682.1,386.4,684.6,387.8,684.6,389.5z"/>
	<path fill="#D7B354" d="M661.4,372.4c-9.5,0-17.2,7.7-17.2,17.1c0,9.5,7.7,17.1,17.2,17.1c9.5,0,17.2-7.7,17.2-17.1
		C678.5,380.1,670.8,372.4,661.4,372.4z M661.4,403c-7.4,0-13.5-6-13.5-13.5c0-7.4,6-13.5,13.5-13.5c7.4,0,13.5,6,13.5,13.5
		C674.8,397,668.8,403,661.4,403z M661.4,382.2c-4.1,0-7.3,3.3-7.3,7.3c0,4.1,3.3,7.3,7.3,7.3c4.1,0,7.3-3.3,7.3-7.3
		C668.7,385.5,665.4,382.2,661.4,382.2z"/>
	<g>
		<path fill="#CCD0D2" d="M722,398.1h-22.7c-1.4,0-2.4,1.1-2.4,2.4c0,1.4,1.1,2.4,2.4,2.4h21.8C721.4,401.4,721.7,399.8,722,398.1z
			 M696.9,376.1c0,1.4,1.1,2.4,2.4,2.4h22.3c-0.3-1.7-0.7-3.3-1.1-4.9h-21.2C698,373.6,696.9,374.7,696.9,376.1z M696.9,388.3
			c0,1.4,1.1,2.4,2.4,2.4h23.2l0-1.2c0-1.2,0-2.5-0.1-3.7h-23.1C698,385.9,696.9,387,696.9,388.3z"/>
	</g>
</g>
<path fill="#FFFFFF" d="M742.9,334.4c1.8,1.8,9,4.9,9,4.9s-7.2,3.1-9,4.9c-1.8,1.8-4.9,9-4.9,9s-3.1-7.2-4.9-9c-1.8-1.8-9-4.9-9-4.9
	s7.2-3.1,9-4.9c1.8-1.8,4.9-9,4.9-9S741.1,332.6,742.9,334.4z"/>
<path fill="#FFFFFF" d="M39,230.3c1.5,1.5,7.3,4,7.3,4s-5.8,2.5-7.3,4c-1.5,1.5-4,7.3-4,7.3s-2.5-5.8-4-7.3s-7.3-4-7.3-4
	s5.8-2.5,7.3-4s4-7.3,4-7.3S37.5,228.9,39,230.3z"/>
<path fill="#FFFFFF" d="M330.1,77.2c0.8,0.8,3.8,2.1,3.8,2.1s-3.1,1.3-3.8,2.1c-0.8,0.8-2.1,3.8-2.1,3.8s-1.3-3.1-2.1-3.8
	c-0.8-0.8-3.8-2.1-3.8-2.1s3.1-1.3,3.8-2.1s2.1-3.8,2.1-3.8S329.3,76.4,330.1,77.2z"/>
<path fill="#FFFFFF" d="M114.7,108.6c0.8,0.8,4,2.2,4,2.2s-3.2,1.4-4,2.2s-2.2,4-2.2,4s-1.4-3.2-2.2-4c-0.8-0.8-4-2.2-4-2.2
	s3.2-1.4,4-2.2c0.8-0.8,2.2-4,2.2-4S113.9,107.8,114.7,108.6z"/>
<path fill="#FFFFFF" d="M343.3,63.4c1.2,1.2,6,3.3,6,3.3s-4.8,2.1-6,3.3c-1.2,1.2-3.3,6-3.3,6s-2.1-4.8-3.3-6c-1.2-1.2-6-3.3-6-3.3
	s4.8-2.1,6-3.3c1.2-1.2,3.3-6,3.3-6S342,62.2,343.3,63.4z"/>
<path fill="#FFFFFF" d="M561.3,145.3c0.8,0.8,4.2,2.3,4.2,2.3s-3.3,1.4-4.2,2.3s-2.3,4.2-2.3,4.2s-1.4-3.3-2.3-4.2s-4.2-2.3-4.2-2.3
	s3.3-1.4,4.2-2.3s2.3-4.2,2.3-4.2S560.4,144.5,561.3,145.3z"/>
<path fill="#FFFFFF" d="M531.7,8.8c1.4,1.4,6.8,3.7,6.8,3.7s-5.4,2.3-6.8,3.7S528,23,528,23s-2.3-5.4-3.7-6.8
	c-1.4-1.4-6.8-3.7-6.8-3.7s5.4-2.3,6.8-3.7C525.6,7.4,528,2,528,2S530.3,7.4,531.7,8.8z"/>
<path fill="#FFFFFF" d="M124.6,447.7c1.3,1.3,6.6,3.6,6.6,3.6s-5.2,2.3-6.6,3.6s-3.6,6.6-3.6,6.6s-2.3-5.2-3.6-6.6s-6.6-3.6-6.6-3.6
	s5.2-2.3,6.6-3.6s3.6-6.6,3.6-6.6S123.3,446.4,124.6,447.7z"/>
<path fill="#FFFFFF" d="M726.7,320.9c0.9,0.9,4.5,2.5,4.5,2.5s-3.6,1.6-4.5,2.5s-2.5,4.5-2.5,4.5s-1.6-3.6-2.5-4.5s-4.5-2.5-4.5-2.5
	s3.6-1.6,4.5-2.5c0.9-0.9,2.5-4.5,2.5-4.5S725.8,320,726.7,320.9z"/>
<g>
	<path fill="#EDEDED" d="M96.8,129.1c31.8,0,57.6,25.8,57.6,57.6s-25.8,57.6-57.6,57.6s-57.6-25.8-57.6-57.6S65,129.1,96.8,129.1z"
		/>
	<path fill="#F5F5F5" d="M130.5,218.6l-17.3-7l-15.4,6.8l-16.2-6.8l-17.6,7l5.6-54.9L83,159l14.7,3.9l14.2-4.1l13.4,4.4L130.5,218.6
		z"/>
	<polygon fill="#E5E5E5" points="81.6,211.6 97.8,218.5 97.7,162.9 83,159 	"/>
	<polygon fill="#EFEFEF" points="112,158.7 97.7,162.9 97.8,218.5 113.2,211.7 	"/>
	<path fill="#E45136" d="M113.2,208.7l14.2,5.7l-4.6-49.3l-10.9-3.6l-14.1,4.1l-14.6-3.8l-11.1,3.8l-5,48.8l14.5-5.7l16.1,6.8
		L113.2,208.7z"/>
	<path fill="#CE4830" d="M97.8,191.2l14.7-8.2l-0.6-21.4L97.8,191.2z"/>
	<polygon fill="#BD3E25" points="81.7,208.7 97.8,215.5 97.8,165.7 83.2,161.8 	"/>
	<polygon fill="#BD3E25" points="113.2,208.7 127.4,214.5 122.8,165.1 111.9,161.6 	"/>
	<path fill="#F0C949" d="M97.8,148c-8.9,0-16.2,7.3-16.2,16.3c0,0.4,0.3,5.2,1.5,7.4c4,9.3,14.7,19.5,14.7,19.4
		c0,0.1,10.7-10.2,14.7-19.5c1.4-3,1.5-7.2,1.5-7.4C114,155.3,106.7,148,97.8,148z M97.8,172.2c-4.3,0-7.8-3.5-7.8-7.9
		c0-4.4,3.5-7.9,7.8-7.9c4.3,0,7.8,3.5,7.8,7.9C105.6,168.7,102.1,172.2,97.8,172.2z"/>
	<path fill="#FFFFFF" d="M97.8,156.1c-4.5,0-8.1,3.6-8.1,8.1s3.6,8.1,8.1,8.1c4.5,0,8.1-3.6,8.1-8.1S102.3,156.1,97.8,156.1z
		 M97.8,169.6c-3,0-5.4-2.4-5.4-5.4c0-3,2.4-5.4,5.4-5.4s5.4,2.4,5.4,5.4C103.2,167.1,100.8,169.6,97.8,169.6z"/>
</g>
<g>
	<path fill="#EDEDED" d="M624.6,127.9c32.5,0,58.8,26.3,58.8,58.8c0,32.5-26.3,58.8-58.8,58.8c-32.5,0-58.8-26.3-58.8-58.8
		C565.8,154.3,592.1,127.9,624.6,127.9z"/>
	<path fill="#26A6D1" d="M628.1,196.6c0-11.3-11.3-20.5-25.3-20.5c-14,0-25.3,9.2-25.3,20.5s11.3,20.5,25.3,20.5
		c1.2,0,2.4-0.1,3.6-0.2c5.3,4.1,10.5,5.1,10.6,5c-1.8-1.9-3-4.3-3.7-6.6C622.1,212,628.1,204.9,628.1,196.6z"/>
	<path fill="#FFFFFF" d="M594.6,193.8c-1.6,0-2.9,1.3-2.9,2.9c0,1.6,1.3,2.9,2.9,2.9s2.9-1.3,2.9-2.9
		C597.5,195.1,596.2,193.8,594.6,193.8z M604,193.8c-1.6,0-2.9,1.3-2.9,2.9c0,1.6,1.3,2.9,2.9,2.9c1.6,0,2.9-1.3,2.9-2.9
		C606.9,195.1,605.6,193.8,604,193.8z"/>
	<path fill="#2295BC" d="M628.1,196.6c0-9.5-8-17.5-18.8-19.8l0,0.4c0,10.9,7,20.4,17.6,25.8C627.7,201,628.1,198.9,628.1,196.6z"/>
	<path fill="#2295BC" d="M581.1,196.5c0-8.7,6.1-16.2,14.8-19.6c-10.6,2.5-18.3,10.3-18.3,19.7c0,9.8,8.6,18.1,20,20
		C587.9,213.6,581.1,205.8,581.1,196.5z"/>
	<path fill="#52606D" d="M669.2,148.4c-5.5-2.6-11.9-4.1-18.8-4.1c-20.8,0-37.6,13.7-37.6,30.5c0,12.3,9,22.9,21.9,27.7
		c-1,3.4-2.7,7-5.5,9.8c0.1,0.2,8-1.3,15.8-7.4c1.8,0.2,3.6,0.3,5.4,0.3c14.1,0,26.4-6.3,32.8-15.6c0.1-1,0.1-2.1,0.1-3.2
		C683.4,172,678.1,158.7,669.2,148.4z"/>
	<path fill="#FFFFFF" d="M634,170.3c-2.6,0-4.7,2.1-4.7,4.7c0,2.6,2.1,4.7,4.7,4.7s4.7-2.1,4.7-4.7
		C638.7,172.4,636.6,170.3,634,170.3z M650.5,170.3c-2.6,0-4.7,2.1-4.7,4.7c0,2.6,2.1,4.7,4.7,4.7s4.7-2.1,4.7-4.7
		C655.2,172.4,653.1,170.3,650.5,170.3z M666.9,170.3c-2.6,0-4.7,2.1-4.7,4.7c0,2.6,2.1,4.7,4.7,4.7s4.7-2.1,4.7-4.7
		C671.6,172.4,669.5,170.3,666.9,170.3z"/>
	<path fill="#3E4E5C" d="M632.8,211.2c2.7-2.8,4.4-6.4,5.5-9.8c-12.9-4.8-21.9-15.4-21.9-27.7c0-12.2,8.8-22.7,21.6-27.6
		c-14.6,4.2-25.1,15.5-25.1,28.8c0,12.3,9,22.9,21.9,27.7c-1,3.4-2.7,7-5.5,9.8c0.1,0.1,2.3-0.3,5.5-1.5
		C633.6,211.2,632.9,211.3,632.8,211.2z"/>
	<g>
		<path fill="#3E4E5C" d="M634,179.7c-2.6,0-4.7-2.1-4.7-4.7c0-1,0.3-1.9,0.8-2.7c-1.2,0.9-2,2.3-2,3.9c0,2.6,2.1,4.7,4.7,4.7
			c1.6,0,3-0.8,3.9-2C635.9,179.4,635,179.7,634,179.7z M650.5,179.7c-2.6,0-4.7-2.1-4.7-4.7c0-1,0.3-1.9,0.8-2.7
			c-1.2,0.9-2,2.3-2,3.9c0,2.6,2.1,4.7,4.7,4.7c1.6,0,3-0.8,3.9-2C652.4,179.4,651.5,179.7,650.5,179.7z M666.9,179.7
			c-2.6,0-4.7-2.1-4.7-4.7c0-1,0.3-1.9,0.8-2.7c-1.2,0.9-2,2.3-2,3.9c0,2.6,2.1,4.7,4.7,4.7c1.6,0,3-0.8,3.9-2
			C668.9,179.4,667.9,179.7,666.9,179.7z"/>
	</g>
</g>
<g>
	<circle fill="#EDEDED" cx="465.1" cy="58" r="57.4"/>
	<path fill="#344955" d="M459.4,115.1c1.9,0.2,3.8,0.3,5.7,0.3c2.3,0,4.6-0.2,6.9-0.4v-8.8h-12.6V115.1z"/>
	<path fill="#405C6A" d="M461.2,103.8c2.5-1.3,6.4-1.3,8.9,0c2.5,1.3,2.5,3.5,0,4.8c-2.5,1.3-6.4,1.3-8.9,0
		C458.8,107.3,458.8,105.1,461.2,103.8z"/>
	<path fill="#344955" d="M464,92.5v13.8c0,0.6,0.8,1.1,1.7,1.1s1.7-0.5,1.7-1.1V92.5H464z"/>
	<path fill="#324D5B" d="M466.2,94.8c-9.4,0-18.8-3.6-26-10.7c-14.3-14.3-14.3-37.7,0-52c0.6-0.6,1.7-0.6,2.3,0
		c0.6,0.6,0.6,1.7,0,2.3c-13.1,13.1-13.1,34.3,0,47.4c13.1,13.1,34.3,13.1,47.3,0c0.6-0.6,1.7-0.6,2.3,0c0.6,0.6,0.6,1.7,0,2.3
		C485.1,91.2,475.7,94.8,466.2,94.8z"/>
	<g>
		<path fill="#283E49" d="M489.9,81.7c-0.7,0.7-1.5,1.4-2.3,2.1l2.3,2.3c0.8-0.7,1.5-1.3,2.3-2.1c0.5-0.5,0.6-1.3,0.3-1.9l-0.7-0.7
			C491.2,81.1,490.4,81.2,489.9,81.7z M440.5,36.6c0.7-0.8,1.3-1.5,2.1-2.3c0.5-0.5,0.6-1.2,0.3-1.8l-0.8-0.8
			c-0.6-0.3-1.3-0.2-1.8,0.3c-0.7,0.7-1.4,1.5-2.1,2.3L440.5,36.6z"/>
	</g>
	<path fill="#405C6A" d="M439.2,29.7c-0.9,0.9-0.9,2.4,0,3.2l52.2,52.2c0.9,0.9,2.4,0.9,3.2,0c0.9-0.9,0.9-2.4,0-3.2l-52.2-52.2
		C441.5,28.8,440,28.8,439.2,29.7z"/>
	<path fill="#2EA9D3" d="M466.3,28.1c16.5,0,29.9,13.4,29.9,29.9s-13.4,29.9-29.9,29.9c-16.5,0-29.9-13.4-29.9-29.9
		S449.8,28.1,466.3,28.1z"/>
	<path fill="#AEC225" d="M460.1,52.2c3.3-2.4,4.9,2.4,6.2,0.9c2.2-2.7,0.7-5.1,3.5-10.9c2.9-5.8,3.1-4.7,5.3-9.5
		c0.5-1.1,0.9-2,1-2.9c-3.1-1.1-6.4-1.6-9.8-1.6c-11.7,0-21.9,6.8-26.8,16.6c0.8,1.9,2,3.9,3.8,6.1c4.4,5.3,9.1,7.6,16.3,12
		c7.3,4.4,6.2,6.4,4.4,8.4c-1.8,2-4.5,10.6,0.7,13.3c2.5,1.5,4,2.3,4.7,3.1c5-0.5,9.6-2.3,13.5-4.9c0.6-1.2,1.1-2.5,1.6-3.9
		c2.1-7.3,4.6-20-1.3-18.6c-5.2,1.2-11.7,2.4-14.8,2.9c-3.1,0.4-6.8-2.7-11-4.9C456.9,55.8,456.8,54.6,460.1,52.2L460.1,52.2z"/>
	<path fill="#2998BE" d="M469.7,85.6c-16.5,0-29.9-13.4-29.9-29.9c0-9.6,4.6-18.2,11.6-23.6c-9,5.1-15.1,14.8-15.1,25.9
		c0,16.5,13.4,29.9,29.9,29.9c6.9,0,13.2-2.3,18.2-6.2C480.2,84.1,475.1,85.6,469.7,85.6z"/>
	<g>
		<path fill="#9CAE21" d="M483.1,82.4c-4,2-8.6,3.2-13.4,3.2c-1.3,0-2.6-0.1-3.9-0.3c1.8,1.1,2.9,1.7,3.5,2.4
			c0.6-0.1,1.3-0.1,1.9-0.2l0.2,0c0.7-0.1,1.4-0.3,2-0.4l0.6-0.2c0.6-0.2,1.1-0.3,1.7-0.5l0.5-0.2c1.4-0.5,2.8-1.1,4.1-1.8l0.3-0.2
			c0.6-0.3,1.2-0.7,1.7-1l0.2-0.1l0.4-0.3L483.1,82.4z M441,47.6c1.8-6.2,5.5-11.7,10.5-15.5l-0.3,0.2c-0.4,0.2-0.7,0.4-1.1,0.7
			l-0.6,0.4c-0.3,0.2-0.7,0.5-1,0.7l-0.6,0.5c-0.3,0.3-0.6,0.5-0.9,0.8l-0.6,0.6c-0.3,0.3-0.6,0.5-0.8,0.8c-0.2,0.2-0.5,0.5-0.7,0.7
			l-0.7,0.7c-0.3,0.4-0.7,0.8-1,1.2l-0.3,0.3c-0.4,0.5-0.8,1.1-1.2,1.6l-0.1,0.1c-0.3,0.5-0.7,1-1,1.6l-0.2,0.3
			c-0.3,0.5-0.5,1-0.8,1.5l0,0.1C439.9,45.7,440.4,46.6,441,47.6z"/>
	</g>
</g>
<circle fill="#FFFFFF" cx="158.9" cy="144.3" r="4.2"/>
<circle fill="#FFFFFF" cx="627.9" cy="283.3" r="4.2"/>
<circle fill="#FFFFFF" cx="396.9" cy="16.3" r="4.2"/>
<circle fill="#FFFFFF" cx="615.3" cy="262.7" r="2.5"/>
<circle fill="#FFFFFF" cx="634.3" cy="456.7" r="2.5"/>
<circle fill="#FFFFFF" cx="172.3" cy="151.7" r="2.5"/>
<circle fill="#FFFFFF" cx="53.3" cy="241.7" r="2.5"/>
<circle fill="#FFFFFF" cx="182.3" cy="76.7" r="2.5"/>
<circle fill="#FFFFFF" cx="538.3" cy="29.7" r="2.5"/>
<circle fill="#FFFFFF" cx="550.3" cy="128.7" r="2.5"/>
</svg>
