<?xml version="1.0" encoding="utf-8"?>
<!-- Generator: Adobe Illustrator 18.1.1, SVG Export Plug-In . SVG Version: 6.00 Build 0)  -->
<svg version="1.1" id="Layer_1" xmlns="http://www.w3.org/2000/svg" xmlns:xlink="http://www.w3.org/1999/xlink" x="0px" y="0px"
	 viewBox="0 0 600 600" enable-background="new 0 0 600 600" xml:space="preserve">
<g>
	<path fill="#586980" d="M299.4-0.9C133.8-0.9-0.4,133.3-0.4,298.9c0,165.6,134.2,299.8,299.8,299.8s299.8-134.2,299.8-299.8
		C599.2,133.3,465-0.9,299.4-0.9z"/>
	<path fill="#324D5B" d="M472.3,436.1c0.6-2.7,0.9-5.5,0.9-8.4c0-21.5-17.4-39-39-39s-39,17.4-39,39c0,21.5,17.4,39,39,39
		c2.9,0,5.7-0.3,8.4-0.9l56.5,56.5c10.4-9.3,20.2-19.4,29.2-30.1L472.3,436.1z"/>
	<path fill="#B4E7F8" d="M299.4,149c82.8,0,149.9,67.1,149.9,149.9s-67.1,149.9-149.9,149.9s-149.9-67.1-149.9-149.9
		S216.6,149,299.4,149z"/>
	<path fill="#2D4552" d="M454.7,453.8c-2.7,0.6-5.5,0.9-8.4,0.9c-21.5,0-39-17.4-39-39c0-7.7,2.3-14.8,6.1-20.9
		c-10.9,6.9-18.1,19-18.1,32.9c0,21.5,17.4,39,39,39c2.9,0,5.7-0.3,8.4-0.9l56.5,56.5c4.2-3.8,8.4-7.6,12.4-11.6L454.7,453.8z"/>
	<path fill="#FFFFFF" d="M290.3,388.8c-44.6,0-80.8-36.3-80.8-80.8c0-5,4.1-9.1,9.1-9.1s9.1,4.1,9.1,9.1c0,34.6,28.1,62.7,62.7,62.7
		c5,0,9.1,4.1,9.1,9.1C299.4,384.7,295.3,388.8,290.3,388.8z"/>
	<path fill="#3C5663" d="M299.4,113c-102.7,0-185.9,83.2-185.9,185.9s83.2,185.9,185.9,185.9s185.9-83.2,185.9-185.9
		S402,113,299.4,113z M299.4,448.7c-82.8,0-149.9-67.1-149.9-149.9S216.6,149,299.4,149s149.9,67.1,149.9,149.9
		S382.2,448.7,299.4,448.7z"/>
	<path fill="#A2CFDF" d="M299.4,149c-46,0-87.1,20.7-114.6,53.3c26.1-22,59.8-35.3,96.6-35.3c82.8,0,149.9,67.1,149.9,149.9
		c0,36.8-13.3,70.5-35.3,96.6c32.6-27.5,53.3-68.6,53.3-114.6C449.3,216.1,382.2,149,299.4,149z"/>
</g>
</svg>
