<?xml version="1.0" encoding="utf-8"?>
<!-- Generator: Adobe Illustrator 18.1.1, SVG Export Plug-In . SVG Version: 6.00 Build 0)  -->
<svg version="1.1" id="Layer_1" xmlns="http://www.w3.org/2000/svg" xmlns:xlink="http://www.w3.org/1999/xlink" x="0px" y="0px"
	 viewBox="0 0 600 600" enable-background="new 0 0 600 600" xml:space="preserve">
<g>
	<path fill="#FFD67D" d="M299.5,0C134.1,0,0,134.1,0,299.5c0,165.4,134.1,299.5,299.5,299.5s299.5-134.1,299.5-299.5
		C599.1,134.1,464.9,0,299.5,0z"/>
	<path fill="#E2574C" d="M485.2,167.7H113.8c-13.2,0-24,10.7-24,24v321.7c54,53,128,85.7,209.7,85.7c81.7,0,155.6-32.7,209.7-85.7
		V191.7C509.2,178.5,498.5,167.7,485.2,167.7z"/>
	<path fill="#FFFFFF" d="M461.3,221.6H137.8c-6.6,0-12,5.4-12,12v309.8c49,35,108.9,55.6,173.7,55.6s124.7-20.6,173.7-55.6V233.6
		C473.3,227,467.9,221.6,461.3,221.6z"/>
	<path fill="#BF392B" d="M485.2,167.7H113.8c-13.2,0-24,10.7-24,24v12c0-13.2,10.7-24,24-24h371.4c13.2,0,24,10.7,24,24v-12
		C509.2,178.5,498.5,167.7,485.2,167.7z"/>
	<path fill="#999999" d="M413.3,485.2H185.7c-3.3,0-6,2.7-6,6s2.7,6,6,6h227.6c3.3,0,6-2.7,6-6S416.7,485.2,413.3,485.2z
		 M413.3,425.3H185.7c-3.3,0-6,2.7-6,6c0,3.3,2.7,6,6,6h227.6c3.3,0,6-2.7,6-6C419.3,428,416.7,425.3,413.3,425.3z M413.3,365.4
		H185.7c-3.3,0-6,2.7-6,6c0,3.3,2.7,6,6,6h227.6c3.3,0,6-2.7,6-6C419.3,368.1,416.7,365.4,413.3,365.4z M413.3,545.1H185.7
		c-3.3,0-6,2.7-6,6c0,3.3,2.7,6,6,6h227.6c3.3,0,6-2.7,6-6C419.3,547.8,416.7,545.1,413.3,545.1z M185.7,317.5h227.6
		c3.3,0,6-2.7,6-6c0-3.3-2.7-6-6-6H185.7c-3.3,0-6,2.7-6,6C179.7,314.8,182.4,317.5,185.7,317.5z"/>
	<path fill="#CCD0D2" d="M185.7,191.7h233.6c3.3,0,6,2.7,6,6v41.9c0,9.9-8.1,18-18,18H197.7c-9.9,0-18-8-18-18v-41.9
		C179.7,194.4,182.4,191.7,185.7,191.7z M265.7,131.8h75.8c9.9,0,15.1,7.2,18,18l12,41.9H239.6l12-41.9
		C253.4,142.1,256.8,131.8,265.7,131.8z"/>
	<path fill="#A4A7A9" d="M243.6,177.7l-4,14h131.8l-4-14H243.6z"/>
	<path fill="#B7BBBD" d="M419.3,191.7H185.7c-3.3,0-6,2.7-6,6v18c0-3.3,2.7-6,6-6h233.6c3.3,0,6,2.7,6,6v-18
		C425.3,194.4,422.6,191.7,419.3,191.7z"/>
</g>
</svg>
