<?xml version="1.0" encoding="utf-8"?>
<!-- Generator: Adobe Illustrator 18.1.1, SVG Export Plug-In . SVG Version: 6.00 Build 0)  -->
<svg version="1.1" id="Layer_1" xmlns="http://www.w3.org/2000/svg" xmlns:xlink="http://www.w3.org/1999/xlink" x="0px" y="0px"
	 viewBox="0 0 616.8 514.4" enable-background="new 0 0 616.8 514.4" xml:space="preserve">
<polygon fill="#A9DBD3" points="571.7,215.5 587,220.5 576.4,201.2 "/>
<polygon fill="#A9DBD3" points="122.2,83.2 144.6,76.2 133.4,91.5 "/>
<polygon fill="#A9DBD3" points="144.6,16.3 160.4,11.9 152.5,23.9 "/>
<polygon fill="#A9DBD3" points="38.2,105.3 49.6,99.3 46.9,108 "/>
<polygon fill="#A9DBD3" points="170.1,111.7 187.5,106.8 182.1,116.1 "/>
<polygon fill="#A9DBD3" points="513.4,277.3 530.8,277.3 516.1,296.4 "/>
<polygon fill="#A9DBD3" points="437.7,88.9 440,84.5 453.2,93 453.2,97.6 "/>
<polygon fill="#A9DBD3" points="11,148.4 13.9,152.9 30.8,141.4 25.8,138.1 "/>
<polygon fill="#A9DBD3" points="437.3,38.3 443.9,38.3 430.8,59.3 426.5,54.8 "/>
<polygon fill="#A9DBD3" points="478.7,62.3 491.8,62.3 485.3,69.9 "/>
<polygon fill="#A9DBD3" points="455,6 459.4,0 475.2,10.4 470.8,18 "/>
<rect x="363.2" y="81.8" transform="matrix(0.3566 -0.9342 0.9342 0.3566 147.0632 403.1324)" fill="#A9DBD3" width="6" height="26"/>
<polygon fill="#A9DBD3" points="474.7,117.9 467.3,119.8 471.4,137.1 480.2,133.3 "/>
<polygon fill="#A9DBD3" points="509.4,102.7 518.1,99.4 526.8,121.2 520.8,123.9 "/>
<polygon fill="#A9DBD3" points="545.9,88.1 549.7,94.7 573.7,78.9 571.5,72.3 "/>
<polygon fill="#A9DBD3" points="534.2,119.1 539.1,114.7 551.1,121.8 545.1,126.7 "/>
<polygon fill="#A9DBD3" points="514.7,21.1 521.7,16.5 534.8,42.9 524.7,49.4 "/>
<polygon fill="#A9DBD3" points="66.4,70.5 69.6,75.1 89.8,65.8 86,58.7 "/>
<polygon fill="#A9DBD3" points="593.4,473.5 596.6,478.1 616.8,468.8 613,461.7 "/>
<polygon fill="#A9DBD3" points="534.4,300.5 537.6,305.1 557.8,295.8 554,288.7 "/>
<path fill="#A9DBD3" d="M268.8,0.5"/>
<polygon fill="#A9DBD3" points="222.2,113.1 235.6,125.1 230.8,128.9 222.2,117.5 "/>
<polygon fill="#A9DBD3" points="95,33.7 100.6,27.3 112.1,38.4 108.9,46 "/>
<polygon fill="#A9DBD3" points="107.5,123.9 115.4,117.4 122.5,133.7 115.4,138.1 "/>
<polygon fill="#A9DBD3" points="556.5,442.9 564.4,436.4 571.5,452.7 564.4,457.1 "/>
<polygon fill="#A9DBD3" points="39.3,194.8 37.7,198.9 56.2,209.5 57.3,206.4 "/>
<polygon fill="#A9DBD3" points="514.2,335.5 514.2,353 522.9,345.9 "/>
<polygon fill="#A9DBD3" points="477.2,353 477.2,357.3 489.9,369.9 493.1,364.4 "/>
<path fill="#A9DBD3" d="M481.3,453.4l-3.3,3.8l10.1,18.5c0,0,4.1-2.7,4.1-4.4C492.2,469.7,481.3,453.4,481.3,453.4z"/>
<polygon fill="#A9DBD3" points="542.2,409.6 542.2,422.7 549.9,412.4 "/>
<polygon fill="#A9DBD3" points="42.7,43.5 52.3,52.4 49.8,39.8 "/>
<polygon fill="#A9DBD3" points="531.1,489 551.2,464.8 551.2,494.2 "/>
<polygon fill="#A9DBD3" points="413.3,121.8 427.2,105 427.2,125.4 "/>
<polygon fill="#A9DBD3" points="456.5,471.5 459.5,479.3 438.2,492 438.2,484.3 "/>
<polygon fill="#A9DBD3" points="589.2,46.5 589.2,61.8 597.4,54.2 "/>
<polygon fill="#A9DBD3" points="404.2,487.9 404.2,507.5 415.1,504.2 "/>
<polygon fill="#A9DBD3" points="175.2,466.9 175.2,484.9 185.2,481.9 "/>
<polygon fill="#A9DBD3" points="220.5,482.8 211.4,479.5 203.6,499.1 210.4,499.5 "/>
<polygon fill="#A9DBD3" points="594.7,315.5 587.3,319.7 594.5,324.6 "/>
<polygon fill="#A9DBD3" points="162.2,489.8 154.2,492.8 165.7,514.4 171.7,510.8 "/>
<polygon fill="#A9DBD3" points="48.3,492.2 45.6,501.5 67,512.9 67.4,502.6 "/>
<polygon fill="#A9DBD3" points="565.3,330.2 562.6,339.5 584,350.9 584.4,340.6 "/>
<polygon fill="#A9DBD3" points="92.2,490.8 92.2,497.3 117.2,484.8 112.6,477.7 "/>
<polygon fill="#A9DBD3" points="587.1,190.8 589.3,197 608.6,176.8 601.8,171.6 "/>
<polygon fill="#A9DBD3" points="56.7,459.2 60.5,473.4 67,466.6 "/>
<polygon fill="#A9DBD3" points="474.7,493.2 478.5,507.4 485,500.6 "/>
<polygon fill="#A9DBD3" points="229,53.4 210.5,61.8 221.3,69.2 "/>
<polygon fill="#A9DBD3" points="67.2,422.7 67.2,429.3 86.6,429.3 87.3,426 "/>
<polygon fill="#A9DBD3" points="16.9,426.3 9.8,446.3 16.9,446.3 21.2,429 "/>
<polygon fill="#A9DBD3" points="52.6,380.4 36.5,397.3 56.1,397.3 "/>
<path fill="#A9DBD3" d="M77.1,353c0,0-6.3,0.5-5.7,2.7s8.2,26.1,8.2,26.1l7.6-6L77.1,353z"/>
<polygon fill="#A9DBD3" points="67,324.6 77.1,326.8 61.8,344.3 56.7,341 "/>
<rect x="26.2" y="344.3" fill="#A9DBD3" width="19" height="6"/>
<polygon fill="#A9DBD3" points="3.8,409.6 15.5,412.9 6.5,426 0,422.7 "/>
<polygon fill="#A9DBD3" points="20.8,277.9 26.5,278.9 21.2,299.3 14.7,299.3 "/>
<polygon fill="#A9DBD3" points="60.4,135.1 65,137.2 62.7,146.7 56.2,141.9 "/>
<polygon fill="#A9DBD3" points="559.4,166.1 564,168.2 561.7,177.7 555.2,172.9 "/>
</svg>
