<?xml version="1.0" encoding="utf-8"?>
<!-- Generator: Adobe Illustrator 18.1.1, SVG Export Plug-In . SVG Version: 6.00 Build 0)  -->
<svg version="1.1" id="Layer_1" xmlns="http://www.w3.org/2000/svg" xmlns:xlink="http://www.w3.org/1999/xlink" x="0px" y="0px"
	 viewBox="0 0 600 600" enable-background="new 0 0 600 600" xml:space="preserve">
<g>
	<circle fill="#85CEC3" cx="299.6" cy="300.2" r="300"/>
	<path fill="#37A18E" d="M550.8,136.6L285.5,411.2l0.5,29.5h12.2l287.3-231.5C577.1,183.5,565.4,158.6,550.8,136.6z"/>
	<path fill="#F2F1EF" d="M593.9,123.5L541,71c-7-7-18.7-7-26.2,0L288.4,304.9l-98-96.6c-7-7-18.7-7-26.2,0l-46.9,46.4
		c-7,7-7,18.7,0,25.8l156.5,155.1c4.2,4.2,9.8,5.6,15.5,5.2c5.6,0.5,11.2-0.9,15.5-5.2l289.2-285.9C601,142.2,601,130.5,593.9,123.5
		z"/>
	<path fill="#E6E5E3" d="M304.8,435.6l289.2-285.9c7-7,7-18.7,0-25.8l-8.4-8L288.8,407.5l-164-159.8l-7,7c-7,7-7,18.7,0,25.8
		l156.5,155.1c4.2,4.2,9.8,5.6,15.5,5.2C294.9,441.2,300.5,439.8,304.8,435.6z"/>
</g>
</svg>
