<?xml version="1.0" encoding="utf-8"?>
<!-- Generator: Adobe Illustrator 18.1.1, SVG Export Plug-In . SVG Version: 6.00 Build 0)  -->
<svg version="1.1" id="Layer_1" xmlns="http://www.w3.org/2000/svg" xmlns:xlink="http://www.w3.org/1999/xlink" x="0px" y="0px"
	 viewBox="0 0 600 600" enable-background="new 0 0 600 600" xml:space="preserve">
<g>
	<path fill="#324D5B" d="M300,0.2c165.4,0,299.5,134.1,299.5,299.5S465.4,599.2,300,599.2S0.5,465.1,0.5,299.7S134.6,0.2,300,0.2z"
		/>
	<path fill="#E2574C" d="M300,599.2c-72.9,0-139.7-26.1-191.7-69.4V325.6c0-3.3,2.4-5.9,5.5-6.6c30.5-6.9,54.4-70.7,54.4-148.4
		c0-2.4,0-4.8-0.1-7.1c-0.1-3.5,2.5-6.6,6-7l50-6.2c2.1-0.3,4.1,0.5,5.6,2c15,14.6,40.8,27.9,70.2,27.9s55.2-13.3,70.2-27.9
		c1.5-1.5,3.6-2.2,5.6-2l50.2,6.2c3.4,0.4,5.9,3.4,5.9,6.8c0,2.4-0.1,4.9-0.1,7.3c0,77.6,23.9,141.4,54.3,148.4
		c3.2,0.7,5.5,3.4,5.5,6.7v204.2C439.7,573.1,372.9,599.2,300,599.2z"/>
	<path fill="#C74B41" d="M377.9,167.9c0-6-0.5-11.9-1.2-17.6l-0.8-0.1c-2.1-0.3-4.1,0.5-5.6,2c-15,14.7-40.8,27.9-70.2,27.9
		s-55.2-13.3-70.2-27.9c-1.5-1.5-3.5-2.2-5.6-2l-0.8,0.1c-0.8,5.7-1.2,11.6-1.2,17.6c0,56.2,34.9,101.8,77.9,101.8
		S377.9,224.2,377.9,167.9z"/>
	<path fill="#D9D9D9" d="M377.5,150.4l-1.7-0.2c-2.1-0.3-4.1,0.5-5.6,2c-15,14.7-40.8,27.9-70.2,27.9s-55.2-13.3-70.2-27.9
		c-1.5-1.5-3.5-2.2-5.6-2l-2.1,0.3c4.7,26.7,37.6,47.4,77.7,47.4C339.9,197.9,372.9,177.1,377.5,150.4z"/>
	<path fill="#EC9089" d="M371.9,305.7h35.9c3.3,0,6,2.7,6,6v12c0,3.3-2.7,6-6,6h-35.9c-3.3,0-6-2.7-6-6v-12
		C365.9,308.4,368.6,305.7,371.9,305.7z"/>
	<path fill="#FCEFED" d="M286.2,460.8h-38.7c-1.2,0-1.2-1-0.6-1.6c7-6.9,16.2-12.9,24.4-19.4c11.2-8.9,20.6-18.2,20.6-33.1
		c0-20.1-16.2-29.3-35.8-29.3c-16.5,0-31.5,9.3-32.7,27c0,4.9,2.5,6.9,7.3,7.4c4.7,0.6,9.3-1,10.5-5.9c1.9-7.9,7.6-11.9,14.9-11.9
		c10.2,0,16.2,5.4,16.2,14.8c0,8.5-8.6,16.3-16.9,22.5c-10.2,7.6-19.7,14.7-28.3,24.3c-2,2.4-4.8,7.2-4.8,12.8
		c0,8.3,2.2,10.7,9.8,10.7h54.2c4.8,0,6.1-4.2,6.1-8.5C292.3,466.6,291,460.8,286.2,460.8z M349,415.2c-1-0.1-1.3-1.1-0.7-1.7
		l19-18.5c2.2-2.1,3.8-4.4,3.9-7.6c0.3-4.8-0.9-10-5.7-10h-50.4c-4.8,0-6.1,5.7-6.1,10c0,4.2,1.2,8.5,6.1,8.5h29.5
		c-2.2,1.7-3.8,3.3-5.7,5.2l-12.6,12.7c-2.6,2.7-3.5,6.1-1.9,9.8c1.3,3.4,4.1,5.4,7.6,5.4c12.6,0,26.4,2.1,26.4,18
		c0,9.2-6.6,16.4-16.8,16.4c-8.5,0-13.6-3-17.2-10.2c-2.3-4.4-7-4.9-11.7-3.1c-5.1,2-7,6.5-4.7,11.3c6,12.7,18.8,18.1,33.2,18.1
		c21,0,36.5-13.4,36.7-34.1C378,428.7,366.4,416.9,349,415.2z"/>
	<g>
		<path fill="#CB4E44" d="M486.1,318.9c-8.8-2-17.1-8.9-24.4-19.5v252.3c10.4-6.7,20.4-14,29.9-22V325.6
			C491.7,322.3,489.3,319.7,486.1,318.9z M138.3,299.5c-7.3,10.5-15.6,17.5-24.4,19.5c-3.2,0.7-5.5,3.4-5.5,6.6v204.2
			c9.5,7.9,19.5,15.3,29.9,22V299.5z"/>
	</g>
	<g>
		<path fill="#FFFCFC" d="M370.2,152.2l-0.3,0.2c0.6,5.1,1,10.2,1,15.5c0,52.8-31.8,95.8-71,95.8s-71-43-71-95.8
			c0-5.3,0.4-10.5,1-15.5l-0.3-0.2c-1.5-1.5-3.5-2.2-5.6-2l-6.9,0.9c-0.7,5.5-1.2,11.1-1.2,16.9c0,59.4,37.6,107.8,83.9,107.8
			s83.9-48.4,83.9-107.8c0-5.7-0.5-11.4-1.1-16.9l-6.9-0.9C373.7,149.9,371.7,150.7,370.2,152.2z M180.2,161.9l-0.1-6h-2l-3.9,0.5
			c-3.4,0.4-5.8,3.2-5.9,6.6l0,3.3l0,4.3c0,77.7-23.9,141.4-54.4,148.4c-3.2,0.7-5.5,3.4-5.5,6.6v4
			C148.6,329.6,180.2,256,180.2,161.9z M486.1,318.9c-30.5-7-54.3-70.7-54.3-148.4l0-4.3l0-3.4c-0.1-3.3-2.5-6-5.8-6.4l-4.1-0.5h-2
			l-0.1,6c0,94,31.6,167.7,71.9,167.7v-4C491.7,322.3,489.3,319.7,486.1,318.9z"/>
	</g>
	<g>
		<path fill="#D9D9D9" d="M138.3,299.5c-7.3,10.5-15.6,17.5-24.4,19.5c-3.2,0.7-5.5,3.4-5.5,6.6v4c10.8,0,20.9-5.3,29.9-14.8V299.5z
			 M486.1,318.9c-8.8-2-17.1-8.9-24.4-19.5v15.4c9.1,9.5,19.2,14.8,29.9,14.8v-4C491.7,322.3,489.3,319.7,486.1,318.9z"/>
	</g>
</g>
</svg>
