<?xml version="1.0" encoding="utf-8"?>
<!-- Generator: Adobe Illustrator 18.1.1, SVG Export Plug-In . SVG Version: 6.00 Build 0)  -->
<svg version="1.1" id="Layer_1" xmlns="http://www.w3.org/2000/svg" xmlns:xlink="http://www.w3.org/1999/xlink" x="0px" y="0px"
	 viewBox="0 0 600 600" enable-background="new 0 0 600 600" xml:space="preserve">
<g>
	<circle fill="#447F9A" cx="300.4" cy="300.4" r="300.1"/>
	<g>
		<path fill="#FFFFFF" d="M140.7,177.5h325c12.8,0,23.2,10.4,23.2,23.2v208.9c0,12.8-10.4,23.2-23.2,23.2h-325
			c-12.8,0-23.2-10.4-23.2-23.2V200.7C117.5,187.9,127.9,177.5,140.7,177.5z"/>
		<path fill="#CCD0D1" d="M314.8,258.7v23.2h116.1v-23.2H314.8z M314.8,328.4h116.1v-23.2H314.8V328.4z M314.8,374.8h116.1v-23.2
			H314.8V374.8z"/>
		<path fill="#858485" d="M213.4,259c0,0,14.1-0.2,27.4-0.2l15.7,22.4c0,0,0.2,23.4,0.2,29.2s-11.5,17.2-11.5,17.2v11.8l34.8,13.9
			v21.6H175.4l0.1-22l34.9-13.4v-11.5c0,0-11.6-10.4-11.6-17.6v-29.2C198.8,281.1,199.8,259,213.4,259z"/>
		<path fill="#CCD0D1" d="M465.7,177.5h-325c-12.8,0-23.2,10.4-23.2,23.2v11.6h371.4v-11.6C488.9,187.9,478.5,177.5,465.7,177.5z"/>
	</g>
</g>
</svg>
