<?xml version="1.0" encoding="utf-8"?>
<!-- Generator: Adobe Illustrator 18.1.1, SVG Export Plug-In . SVG Version: 6.00 Build 0)  -->
<svg version="1.1" id="Layer_1" xmlns="http://www.w3.org/2000/svg" xmlns:xlink="http://www.w3.org/1999/xlink" x="0px" y="0px"
	 viewBox="0 0 600 600" enable-background="new 0 0 600 600" xml:space="preserve">
<circle fill="#3DB39E" cx="300" cy="300" r="300"/>
<path fill="#37A18E" d="M551.2,136.4L285.9,411.1l0.5,29.5h12.2l287.3-231.6C577.5,183.3,565.8,158.4,551.2,136.4z"/>
<path fill="#F2F1EF" d="M594.4,123.3l-53-52.5c-7-7-18.8-7-26.2,0L288.8,304.7l-98-96.6c-7-7-18.8-7-26.2,0l-46.9,46.4
	c-7,7-7,18.7,0,25.8l156.6,155.2c4.2,4.2,9.8,5.6,15.5,5.2c5.6,0.5,11.2-0.9,15.5-5.2l289.2-285.9
	C601.4,142,601.4,130.3,594.4,123.3z"/>
<path fill="#E6E5E3" d="M305.2,435.5l289.2-285.9c7-7,7-18.8,0-25.8l-8.4-8L289.2,407.3L125.2,247.5l-7,7c-7,7-7,18.7,0,25.8
	l156.6,155.2c4.2,4.2,9.8,5.6,15.5,5.2C295.3,441.1,300.9,439.7,305.2,435.5z"/>
</svg>
