<?xml version="1.0" encoding="utf-8"?>
<!-- Generator: Adobe Illustrator 18.1.1, SVG Export Plug-In . SVG Version: 6.00 Build 0)  -->
<svg version="1.1" id="Layer_1" xmlns="http://www.w3.org/2000/svg" xmlns:xlink="http://www.w3.org/1999/xlink" x="0px" y="0px"
	 viewBox="0 0 600 600" enable-background="new 0 0 600 600" xml:space="preserve">
<g>
	<circle fill="#CCCCCC" cx="299.4" cy="299.8" r="298.9"/>
	<path fill="#B3B3B3" d="M549.7,136.8L285.4,410.5l0.5,29.4H298l286.3-230.7C575.9,183.5,564.2,158.8,549.7,136.8z"/>
	<path fill="#F2F1EF" d="M592.7,123.7l-52.8-52.3c-7-7-18.7-7-26.2,0l-225.6,233l-97.6-96.2c-7-7-18.7-7-26.2,0l-46.7,46.2
		c-7,7-7,18.7,0,25.7l156,154.6c4.2,4.2,9.8,5.6,15.4,5.1c5.6,0.5,11.2-0.9,15.4-5.1l288.1-284.9
		C599.7,142.4,599.7,130.7,592.7,123.7z"/>
	<path fill="#E6E5E3" d="M304.5,434.8l288.1-284.9c7-7,7-18.7,0-25.7l-8.4-7.9L288.6,406.7L125.2,247.5l-7,7c-7,7-7,18.7,0,25.7
		l156,154.6c4.2,4.2,9.8,5.6,15.4,5.1C294.7,440.4,300.3,439,304.5,434.8z"/>
</g>
</svg>
