<?xml version="1.0" encoding="utf-8"?>
<!-- Generator: Adobe Illustrator 18.1.1, SVG Export Plug-In . SVG Version: 6.00 Build 0)  -->
<svg version="1.1" id="Layer_1" xmlns="http://www.w3.org/2000/svg" xmlns:xlink="http://www.w3.org/1999/xlink" x="0px" y="0px"
	 viewBox="0 0 600 600" enable-background="new 0 0 600 600" xml:space="preserve">
<g>
	<circle fill="#FFCC42" cx="299" cy="299.9" r="299.9"/>
	<polygon fill="#EF4F5B" points="105.2,204 144.6,301 153.7,301 114.4,204 	"/>
	<g>
		<polygon fill="#C34024" points="447,377 415.7,377 387.6,413 447,413 		"/>
		<circle fill="#FE6236" cx="336.6" cy="315.9" r="114"/>
		<circle fill="#B13B27" cx="336.6" cy="315.9" r="71.4"/>
		<path fill="#C34024" d="M336.6,377.4c-33.9,0-61.5-27.6-61.5-61.5s27.6-61.5,61.5-61.5S398,282,398,315.9S370.5,377.4,336.6,377.4
			z"/>
		<path fill="#FE6236" d="M460.8,365.1c-15.4,0-27.9,12.5-27.9,27.9c0,15.4,12.5,27.9,27.9,27.9c15.4,0,27.9-12.5,27.9-27.9
			C488.7,377.6,476.2,365.1,460.8,365.1z M460.8,407.5c-8,0-14.6-6.5-14.6-14.6c0-8,6.5-14.6,14.6-14.6s14.6,6.5,14.6,14.6
			C475.4,401,468.9,407.5,460.8,407.5z"/>
		<path fill="#FE6236" d="M295.8,209.5c-1.7-0.6-57.8,0.8-57.8,0.8v3.7h-49v-10h-83.8l39.4,97h85.7L295.8,209.5z"/>
		<path fill="#B13B27" d="M293.7,209.4c-2.3-0.2-11.2-0.6-21.6-0.6c-32.1,19.6-54.6,52.2-58.8,92.2h10
			C228.2,261,255.9,224.7,293.7,209.4z"/>
	</g>
</g>
</svg>
