<?xml version="1.0" encoding="utf-8"?>
<!-- Generator: Adobe Illustrator 19.2.1, SVG Export Plug-In . SVG Version: 6.00 Build 0)  -->
<svg version="1.1" id="Layer_1" xmlns="http://www.w3.org/2000/svg" xmlns:xlink="http://www.w3.org/1999/xlink" x="0px" y="0px"
	 viewBox="0 0 173.6 200" style="enable-background:new 0 0 173.6 200;" xml:space="preserve">
<style type="text/css">
	.st0{fill:#7A8D8E;}
	.st1{fill:#2B414F;}
	.st2{fill:#334D5D;}
	.st3{fill:#FFFFFF;}
	.st4{fill:#9EA7A8;}
	.st5{fill:#DF5A48;}
	.st6{fill:#EB8B6B;}
</style>
<g>
	<path class="st0" d="M84.1,29.2h5.8V9h-5.8V29.2z M29.2,25.3l9.8,18.3l7.5-4.7l-9.8-18.3L29.2,25.3z M137.1,20.6L127.3,39l7.5,4.7
		l9.8-18.3L137.1,20.6z"/>
	<path class="st1" d="M143.2,179.3c-5.6,0-10.1,4.5-10.1,10.1s4.5,10.1,10.1,10.1s10.1-4.5,10.1-10.1S148.8,179.3,143.2,179.3z
		 M30.7,179.3c-5.6,0-10.1,4.5-10.1,10.1s4.5,10.1,10.1,10.1s10.1-4.5,10.1-10.1S36.3,179.3,30.7,179.3z M86.9,0.4
		c-4.8,0-8.7,3.9-8.7,8.7c0,4.8,3.9,8.7,8.7,8.7c4.8,0,8.7-3.9,8.7-8.7C95.6,4.3,91.7,0.4,86.9,0.4z M24.1,6.9l-4,2.3
		c-13.7,8-17.9,26.5-10,40.3c0,0,53.6-31.1,53.7-31.1C55.9,4.6,37.8-1.1,24.1,6.9z M153.8,9.2l-4-2.3c-13.7-8-31.8-2.3-39.7,11.5
		c0.1,0.1,53.7,31.1,53.7,31.1C171.7,35.7,167.5,17.2,153.8,9.2z"/>
	<path class="st2" d="M86.9,26.4c47.8,0,86.5,38.7,86.5,86.5s-38.7,86.5-86.5,86.5S0.4,160.7,0.4,112.9S39.1,26.4,86.9,26.4z"/>
	<path class="st3" d="M86.9,39.3c40.6,0,73.6,32.9,73.6,73.6c0,40.6-32.9,73.6-73.6,73.6s-73.6-33-73.6-73.6
		C13.3,72.3,46.3,39.3,86.9,39.3z"/>
	<path class="st4" d="M86.9,46.6c-1.6,0-2.9,1.3-2.9,2.9c0,1.6,1.3,2.9,2.9,2.9c1.6,0,2.9-1.3,2.9-2.9
		C89.8,47.8,88.5,46.6,86.9,46.6z M150.4,110c-1.6,0-2.9,1.3-2.9,2.9c0,1.6,1.3,2.9,2.9,2.9c1.6,0,2.9-1.3,2.9-2.9
		C153.3,111.3,152,110,150.4,110z M23.5,110c-1.6,0-2.9,1.3-2.9,2.9c0,1.6,1.3,2.9,2.9,2.9s2.9-1.3,2.9-2.9
		C26.4,111.3,25.1,110,23.5,110z M40.8,66.7c-1.6,0-2.9,1.3-2.9,2.9c0,1.6,1.3,2.9,2.9,2.9s2.9-1.3,2.9-2.9
		C43.7,68,42.4,66.7,40.8,66.7z M133.1,66.7c-1.6,0-2.9,1.3-2.9,2.9c0,1.6,1.3,2.9,2.9,2.9c1.6,0,2.9-1.3,2.9-2.9
		C136,68,134.7,66.7,133.1,66.7z M133.1,153.3c-1.6,0-2.9,1.3-2.9,2.9c0,1.6,1.3,2.9,2.9,2.9c1.6,0,2.9-1.3,2.9-2.9
		C136,154.6,134.7,153.3,133.1,153.3z M40.8,153.3c-1.6,0-2.9,1.3-2.9,2.9c0,1.6,1.3,2.9,2.9,2.9s2.9-1.3,2.9-2.9
		C43.7,154.6,42.4,153.3,40.8,153.3z M86.9,173.5c-1.6,0-2.9,1.3-2.9,2.9c0,1.6,1.3,2.9,2.9,2.9c1.6,0,2.9-1.3,2.9-2.9
		C89.8,174.8,88.5,173.5,86.9,173.5z"/>
	<path class="st5" d="M86.9,107.1h34.6c3.2,0,5.8,2.6,5.8,5.8c0,3.2-2.6,5.8-5.8,5.8H86.9c-3.2,0-5.8-2.6-5.8-5.8
		C81.2,109.7,83.8,107.1,86.9,107.1z"/>
	<path class="st6" d="M86.9,63.9c3.2,0,5.8,2.6,5.8,5.8v43.3c0,3.2-2.6,5.8-5.8,5.8c-3.2,0-5.8-2.6-5.8-5.8V69.6
		C81.2,66.4,83.8,63.9,86.9,63.9z"/>
</g>
</svg>
