<?xml version="1.0" encoding="utf-8"?>
<!-- Generator: Adobe Illustrator 18.1.1, SVG Export Plug-In . SVG Version: 6.00 Build 0)  -->
<svg version="1.1" id="Layer_1" xmlns="http://www.w3.org/2000/svg" xmlns:xlink="http://www.w3.org/1999/xlink" x="0px" y="0px"
	 viewBox="0 0 600 600" enable-background="new 0 0 600 600" xml:space="preserve">
<path fill="#999999" d="M306.7,397.4v-49.7h89.6c9.8,0,18.1-7.8,18.1-18.1v-72c0-9.8-7.8-18.1-18.1-18.1h-89.6v-49.7
	c0-19.7-13-27.5-29-17.6L175.1,275.6c-16.1,9.8-16.1,25.9,0,35.2l102.6,103.6C293.8,424.9,306.7,416.6,306.7,397.4z"/>
<path fill="#999999" d="M133.2,577.2c-61.1,0-110.9-49.7-110.9-110.9V133.2C22.3,72,72,22.3,133.2,22.3h333.2
	c61.1,0,110.9,49.7,110.9,110.9v333.2c0,61.1-49.7,110.9-110.9,110.9H133.2 M133.2,600h333.2c73.6,0,133.2-59.6,133.2-133.2V133.2
	C600,59.6,539.9,0,466.3,0H133.2C59.6,0,0,59.6,0,133.2v333.2C0,539.9,59.6,600,133.2,600L133.2,600z"/>
</svg>
