<?xml version="1.0" encoding="utf-8"?>
<!-- Generator: Adobe Illustrator 18.1.1, SVG Export Plug-In . SVG Version: 6.00 Build 0)  -->
<svg version="1.1" id="Layer_1" xmlns="http://www.w3.org/2000/svg" xmlns:xlink="http://www.w3.org/1999/xlink" x="0px" y="0px"
	 viewBox="0 0 115.8 115.8" enable-background="new 0 0 115.8 115.8" xml:space="preserve">
<path fill="#CDCCCC" d="M59.2,76.7l0-9.6l17.3,0c1.9,0,3.5-1.5,3.5-3.5l0-13.9c0-1.9-1.5-3.5-3.5-3.5l-17.3,0l0-9.6
	c0-3.8-2.5-5.3-5.6-3.4l-19.8,20c-3.1,1.9-3.1,5,0,6.8l19.8,20C56.7,82,59.2,80.4,59.2,76.7z"/>
<path fill="#E6E6E5" d="M25.7,111.4c-11.8,0-21.4-9.6-21.4-21.4V25.7c0-11.8,9.6-21.4,21.4-21.4H90c11.8,0,21.4,9.6,21.4,21.4V90
	c0,11.8-9.6,21.4-21.4,21.4H25.7 M25.7,115.8H90c14.2,0,25.7-11.5,25.7-25.7V25.7C115.8,11.5,104.2,0,90,0L25.7,0
	C11.5,0,0,11.5,0,25.7L0,90C0,104.2,11.5,115.8,25.7,115.8L25.7,115.8z"/>
</svg>
