<?xml version="1.0" encoding="utf-8"?>
<!-- Generator: Adobe Illustrator 18.1.1, SVG Export Plug-In . SVG Version: 6.00 Build 0)  -->
<svg version="1.1" id="Layer_1" xmlns="http://www.w3.org/2000/svg" xmlns:xlink="http://www.w3.org/1999/xlink" x="0px" y="0px"
	 viewBox="0 0 600 600" enable-background="new 0 0 600 600" xml:space="preserve">
<path fill="#999999" d="M293.3,202.6v49.7h-89.6c-9.8,0-18.1,7.8-18.1,18.1v72c0,9.8,7.8,18.1,18.1,18.1h89.6v49.7
	c0,19.7,13,27.5,29,17.6l102.6-103.6c16.1-9.8,16.1-25.9,0-35.2L322.3,185.5C306.2,175.1,293.3,182.9,293.3,202.6z"/>
<path fill="#999999" d="M466.3,22.3c61.1,0,110.9,49.7,110.9,110.9v333.2c0,61.1-49.7,110.9-110.9,110.9H133.2
	c-61.1,0-110.9-49.7-110.9-110.9V133.2C22.3,72,72,22.3,133.2,22.3L466.3,22.3 M466.3,0H133.2C59.6,0,0,59.6,0,133.2v333.2
	c0,73.6,59.6,133.2,133.2,133.2h333.2c73.6,0,133.2-59.6,133.2-133.2V133.2C600,59.6,539.9,0,466.3,0L466.3,0z"/>
</svg>
