<?xml version="1.0" encoding="utf-8"?>
<!-- Generator: Adobe Illustrator 18.1.1, SVG Export Plug-In . SVG Version: 6.00 Build 0)  -->
<svg version="1.1" id="Layer_1" xmlns="http://www.w3.org/2000/svg" xmlns:xlink="http://www.w3.org/1999/xlink" x="0px" y="0px"
	 viewBox="0 0 520.4 262.8" enable-background="new 0 0 520.4 262.8" xml:space="preserve">
<g>
	<path fill="#E4E7E7" d="M513.8,176.4l-10.1,86.5h-53l-10.1-86.5H513.8z"/>
	<g>
		<polygon fill="#C8CBCB" points="449.9,256.2 450.7,262.8 503.7,262.8 504.5,256.2 		"/>
		<polygon fill="#C8CBCB" points="441,179.7 448.9,247.6 513.4,180.1 513.4,179.7 		"/>
	</g>
	<path fill="#349886" d="M477.2,196.3c-11,0-20,8.9-20,20c0,11,8.9,20,20,20c11,0,20-8.9,20-20S488.2,196.3,477.2,196.3z
		 M487.1,225.1c-1.8-1-4.1-1.7-6.8-2l0.1-1.1c2-1.1,3.4-3.3,3.4-5.8c0-3.7-3-6.7-6.7-6.7c-3.7,0-6.7,3-6.7,6.7
		c0,2.5,1.4,4.6,3.4,5.8l0.1,1.1c-2.7,0.3-5,1-6.8,2c-2.1-2.4-3.5-5.4-3.5-8.9c0-7.3,6-13.3,13.3-13.3c7.3,0,13.3,6,13.3,13.3
		C490.5,219.7,489.2,222.8,487.1,225.1z"/>
	<path fill="#2B414D" d="M440.6,166.4h73.2c3.7,0,6.7,3,6.7,6.7v6.7H434V173C434,169.4,436.9,166.4,440.6,166.4z"/>
	<path fill="#475F6C" d="M450.6,156.4h53.2c3.7,0,6.7,3,6.7,6.7v3.3h-66.5v-3.3C443.9,159.4,446.9,156.4,450.6,156.4z"/>
	<g>
		<path fill="#2E8676" d="M477.2,209.6c-3.7,0-6.7,3-6.7,6.7c0,2.3,1.2,4.3,3.1,5.5l9-9.4C481.4,210.7,479.4,209.6,477.2,209.6z
			 M477.2,196.3c-11,0-20,8.9-20,20c0,6.1,2.8,11.6,7.1,15.2l7.7-8c-1.8,0.4-3.3,0.9-4.6,1.6c-2.1-2.4-3.5-5.4-3.5-8.9
			c0-7.3,6-13.3,13.3-13.3c4,0,7.5,1.8,10,4.6l4.6-4.8C488.2,198.8,483,196.3,477.2,196.3z"/>
	</g>
</g>
<g>
	<path fill="#415E6D" d="M39.4,124.7l30,8c2.8,0.7,4.4,3.6,3.7,6.3L40.9,259c-0.7,2.8-3.6,4.4-6.3,3.7l-30-8
		c-2.8-0.7-4.4-3.6-3.7-6.3L33,128.4C33.8,125.6,36.6,124,39.4,124.7z"/>
	<path fill="#2C4552" d="M28.8,225.1c4.6,1.2,7.3,6,6.1,10.6c-1.2,4.6-6,7.3-10.6,6.1c-4.6-1.2-7.3-6-6.1-10.6
		C19.5,226.6,24.2,223.8,28.8,225.1z"/>
	<path fill="#FFFFFF" d="M30.2,220.1c-7.4-2-15,2.4-16.9,9.8c-2,7.4,2.4,14.9,9.8,16.9c7.4,2,15-2.4,16.9-9.8
		C41.9,229.7,37.5,222.1,30.2,220.1z M34.9,235.7c-1.2,4.6-6,7.3-10.6,6.1c-4.6-1.2-7.3-6-6.1-10.6c1.2-4.6,6-7.3,10.6-6.1
		C33.4,226.4,36.2,231.1,34.9,235.7z M63.3,142.9l-23-6.2c-0.9-0.2-1.8,0.3-2.1,1.2l-16.7,63c-0.2,0.9,0.3,1.9,1.2,2.1l23,6.2
		c0.9,0.2,1.8-0.3,2.1-1.2l16.7-63C64.8,144.1,64.2,143.2,63.3,142.9z"/>
	<path fill="#B2B2B2" d="M35.4,166l-0.9,3.2l17,4.3l0.9-3.2L35.4,166z M32.4,177.3l17,4.3l0.9-3.2l-17-4.3L32.4,177.3z"/>
	<path fill="#26A6D1" d="M41.3,147l16.4,4.3l-2.6,9.6l-16.4-4.3L41.3,147z"/>
	<g>
		<path fill="#415E6D" d="M119.9,128H151c2.9,0,5.2,2.3,5.2,5.2v124.4c0,2.9-2.3,5.2-5.2,5.2h-31.1c-2.9,0-5.2-2.3-5.2-5.2V133.2
			C114.7,130.4,117,128,119.9,128z"/>
		<path fill="#2C4552" d="M134.6,230c5.2,0,9.5,3.9,9.5,8.6c0,4.8-4.3,8.6-9.5,8.6s-9.5-3.9-9.5-8.6
			C125.1,233.8,129.3,230,134.6,230z"/>
		<path fill="#415E6D" d="M78.4,128h31.1c2.9,0,5.2,2.3,5.2,5.2v124.4c0,2.9-2.3,5.2-5.2,5.2H78.4c-2.9,0-5.2-2.3-5.2-5.2V133.2
			C73.2,130.4,75.6,128,78.4,128z"/>
		<path fill="#2C4552" d="M94,230c4.8,0,8.6,3.9,8.6,8.6c0,4.8-3.9,8.6-8.6,8.6s-8.6-3.9-8.6-8.6C85.3,233.8,89.2,230,94,230z"/>
		<path fill="#FFFFFF" d="M94,224.8c-7.6,0-13.8,6.2-13.8,13.8c0,7.6,6.2,13.8,13.8,13.8s13.8-6.2,13.8-13.8
			C107.8,231,101.6,224.8,94,224.8z M94,247.3c-4.8,0-8.6-3.9-8.6-8.6c0-4.8,3.9-8.6,8.6-8.6s8.6,3.9,8.6,8.6
			C102.6,243.4,98.7,247.3,94,247.3z M106.1,141.9H81.9c-1,0-1.7,0.8-1.7,1.7v65.7c0,1,0.8,1.7,1.7,1.7h24.2c1,0,1.7-0.8,1.7-1.7
			v-65.7C107.8,142.6,107,141.9,106.1,141.9z"/>
		<path fill="#B2B2B2" d="M85.3,169.5v3.5h17.3v-3.5H85.3z M85.3,181.6h17.3v-3.5H85.3V181.6z"/>
		<path fill="#4BBFAA" d="M85.3,152.2h17.3v10.4H85.3V152.2z"/>
		<path fill="#344B57" d="M76.7,257.6V133.2c0-2.9,2.3-5.2,5.2-5.2h-3.5c-2.9,0-5.2,2.3-5.2,5.2v124.4c0,2.9,2.3,5.2,5.2,5.2h3.5
			C79,262.8,76.7,260.5,76.7,257.6z M118.2,257.6V133.2c0-2.9,2.3-5.2,5.2-5.2h-3.5c-2.9,0-5.2,2.3-5.2,5.2v124.4
			c0,2.9,2.3,5.2,5.2,5.2h3.5C120.5,262.8,118.2,260.5,118.2,257.6z"/>
		<path fill="#233742" d="M134.6,230c-3.3,0-6.1,1.5-7.8,3.7c1.7-1.3,3.8-2,6.1-2c5.2,0,9.5,3.9,9.5,8.6c0,1.8-0.6,3.5-1.7,4.9
			c2.1-1.6,3.4-4,3.4-6.6C144.1,233.8,139.8,230,134.6,230z"/>
		<path fill="#FFFFFF" d="M135.4,224.8c-7.6,0-13.8,6.2-13.8,13.8c0,7.6,6.2,13.8,13.8,13.8c7.6,0,13.8-6.2,13.8-13.8
			C149.3,231,143.1,224.8,135.4,224.8z M135.4,247.3c-4.8,0-8.6-3.9-8.6-8.6c0-4.8,3.9-8.6,8.6-8.6c4.8,0,8.6,3.9,8.6,8.6
			C144.1,243.4,140.2,247.3,135.4,247.3z M147.5,141.9h-24.2c-1,0-1.7,0.8-1.7,1.7v65.7c0,1,0.8,1.7,1.7,1.7h24.2
			c1,0,1.7-0.8,1.7-1.7v-65.7C149.3,142.6,148.5,141.9,147.5,141.9z"/>
		<path fill="#B2B2B2" d="M126.8,169.5v3.5h17.3v-3.5H126.8z M126.8,181.6h17.3v-3.5h-17.3V181.6z"/>
		<path fill="#F4B459" d="M126.8,152.2h17.3v10.4h-17.3V152.2z"/>
		<path fill="#233742" d="M94,230c-2.8,0-5.3,1.4-6.9,3.5c1.4-1.1,3.2-1.8,5.2-1.8c4.8,0,8.6,3.9,8.6,8.6c0,1.9-0.7,3.7-1.8,5.2
			c2.1-1.6,3.5-4.1,3.5-6.9C102.6,233.8,98.7,230,94,230z"/>
	</g>
	<path fill="#233742" d="M28.8,225.1c-3.5-0.9-7.1,0.5-9.2,3.2c2.1-1.6,4.8-2.2,7.4-1.5c4.6,1.2,7.3,6,6.1,10.6
		c-0.3,1.1-0.8,2-1.4,2.9c1.5-1.1,2.6-2.7,3.1-4.6C36.2,231.1,33.4,226.3,28.8,225.1z"/>
	<path fill="#344B57" d="M39.4,124.7c-2.8-0.7-5.6,0.9-6.3,3.7L0.8,248.3c-0.7,2.8,0.9,5.6,3.7,6.3l2.7,0.7
		c-2.7-0.8-4.4-3.6-3.6-6.4l32.2-119.9c0.7-2.6,3.3-4.2,5.9-3.7L39.4,124.7z"/>
</g>
<g>
	<path fill="#F4B459" d="M65.8,19h75.3c1.9,0,3.4,1.5,3.4,3.4v75.3c0,1.9-1.5,3.4-3.4,3.4H65.8c-1.9,0-3.4-1.5-3.4-3.4V22.4
		C62.4,20.5,63.9,19,65.8,19z"/>
	<path fill="#FFFFFF" d="M72.7,25.8h61.6c1.9,0,3.4,1.5,3.4,3.4v60.4c0,1.9-1.5,3.4-3.4,3.4H72.7c-1.9,0-3.4-1.5-3.4-3.4V29.3
		C69.2,27.4,70.8,25.8,72.7,25.8z"/>
	<path fill="#ECECEC" d="M69.2,57.8V29.3c0-1.9,1.5-3.4,3.4-3.4h61.6c1.9,0,3.4,1.5,3.4,3.4v28.5"/>
	<path fill="#D7B442" d="M71.5,62.3h63.9c1.9,0,3.4,1.5,3.4,3.4l3.4,16c0,1.9-1.5,3.4-3.4,3.4H68.1c-1.9,0-3.4-1.5-3.4-3.4l3.4-16
		C68.1,63.9,69.6,62.3,71.5,62.3z"/>
	<path fill="#E6E6E6" d="M71.5,62.3c-0.9,0-1.7,0.3-2.3,0.9v21.9h68.4V63.2c-0.6-0.5-1.4-0.9-2.3-0.9H71.5z"/>
	<path fill="#C8A73B" d="M72.7,58.9h61.6c1.9,0,3.4,1.5,3.4,3.4l3.4,16c0,1.9-1.5,3.4-3.4,3.4H69.2c-1.9,0-3.4-1.5-3.4-3.4l3.4-16
		C69.2,60.4,70.8,58.9,72.7,58.9z"/>
	<path fill="#D4D4D4" d="M134.2,58.9H72.7c-1.9,0-3.4,1.5-3.4,3.4v19.4h68.4V62.3C137.7,60.4,136.1,58.9,134.2,58.9z"/>
	<path fill="#FFFFFF" d="M72.7,57.8h61.6c1.9,0,3.4,1.5,3.4,3.4l3.4,16c0,1.9-1.5,3.4-3.4,3.4H69.2c-1.9,0-3.4-1.5-3.4-3.4l3.4-16
		C69.2,59.3,70.8,57.8,72.7,57.8z"/>
	<path fill="#334D5D" d="M100.5,64.7h-11c0.2-0.6,0.6-1.1,1-1.7c0.4-0.5,0.9-1,1.5-1.5c0.5-0.5,1.1-0.9,1.7-1.4
		c0.6-0.4,1.2-0.8,1.7-1.1c0.8-0.5,1.6-1,2.2-1.5c0.7-0.5,1.3-1,1.8-1.6c0.5-0.6,0.9-1.2,1.2-1.9c0.3-0.7,0.4-1.5,0.4-2.3
		c0-1.1-0.2-2-0.6-2.8c-0.4-0.8-1-1.5-1.7-2S97,46,96,45.8c-1-0.3-2-0.4-3.2-0.4c-3,0-5.7,0.9-8.1,2.7c-0.3,0.2-0.4,0.5-0.1,0.9
		l1.6,2.4c0.1,0.2,0.3,0.3,0.4,0.3c0.2,0,0.3-0.1,0.5-0.2c0.9-0.6,1.8-1.1,2.7-1.4s1.8-0.4,2.6-0.4c0.6,0,1.2,0.1,1.6,0.2
		c0.4,0.1,0.8,0.3,1,0.5c0.3,0.2,0.4,0.4,0.5,0.7c0.1,0.3,0.2,0.5,0.2,0.8c0,0.3,0,0.6-0.1,0.9c-0.1,0.3-0.3,0.6-0.5,0.8
		s-0.6,0.6-1,0.9c-0.4,0.3-1,0.7-1.6,1.1c-0.8,0.5-1.6,1.1-2.6,1.8c-1,0.7-2,1.5-2.9,2.4c-1,1-1.8,1.9-2.4,2.9
		c-0.6,1-0.9,1.9-0.9,2.7c0,1.3,0.3,2.4,0.8,2.9c0.5,0.4,1.3,0.6,2.3,0.6h13.6c0.3,0,0.4-0.1,0.5-0.2c0.1-0.1,0.1-0.3,0.1-0.5v-3
		c0-0.3,0-0.5-0.1-0.6C100.9,64.7,100.7,64.7,100.5,64.7z M123,57.8c-0.5-0.9-1.1-1.7-1.9-2.3c-0.8-0.6-1.7-1-2.8-1.3
		c-1.1-0.3-2.2-0.4-3.4-0.4c-0.4,0-0.8,0-1.2,0.1c-0.4,0-0.9,0.1-1.3,0.2c-0.4,0.1-0.9,0.1-1.3,0.2c-0.4,0.1-0.8,0.2-1.1,0.3
		c0.3-1.6,1-2.9,2.1-3.7c1.1-0.9,2.5-1.3,4.2-1.3c0.6,0,1.1,0,1.7,0.1c0.6,0.1,1.1,0.2,1.6,0.3c0.2,0,0.4,0.1,0.5,0.1
		c0.2,0,0.3-0.2,0.4-0.4l0.8-2.7c0.1-0.4,0.1-0.6,0-0.7c-0.1-0.1-0.2-0.2-0.4-0.2c-0.7-0.2-1.5-0.4-2.4-0.5
		c-0.9-0.1-1.7-0.2-2.5-0.2c-2,0-3.7,0.3-5.1,1c-1.4,0.7-2.6,1.6-3.6,2.7c-0.9,1.2-1.6,2.6-2.1,4.1c-0.5,1.6-0.7,3.3-0.7,5.1
		c0,1.6,0.2,3.1,0.6,4.5c0.4,1.3,1,2.5,1.8,3.4c0.8,0.9,1.9,1.7,3.1,2.2c1.2,0.5,2.7,0.8,4.4,0.8c1.2,0,2.3-0.2,3.4-0.5
		c1.1-0.3,2.1-0.8,2.9-1.5c0.9-0.7,1.5-1.5,2.1-2.5c0.5-1,0.8-2.2,0.8-3.6C123.7,59.8,123.5,58.7,123,57.8L123,57.8z M117.3,63.8
		c-0.8,0.6-1.7,0.9-2.9,0.9c-1.5,0-2.6-0.5-3.5-1.5c-0.9-1-1.3-2.3-1.3-4v-0.8c0.9-0.2,1.8-0.4,2.5-0.6c0.8-0.1,1.6-0.2,2.4-0.2
		c1.3,0,2.2,0.3,2.9,0.9c0.6,0.6,1,1.4,1,2.5C118.4,62.3,118.1,63.2,117.3,63.8z"/>
	<path fill="#E27C3F" d="M97.8,31.5h11.4c1.9,0,3.4,1.5,3.4,3.4c0,1.9-1.5,3.4-3.4,3.4H97.8c-1.9,0-3.4-1.5-3.4-3.4
		C94.3,33.1,95.9,31.5,97.8,31.5z"/>
	<path fill="#727272" d="M75.5,53.2c-0.9,0-1.7,0.8-1.7,1.7v5.7c0,0.9,0.8,1.7,1.7,1.7s1.7-0.8,1.7-1.7v-5.7
		C77.2,54,76.5,53.2,75.5,53.2z M131.4,53.2c-0.9,0-1.7,0.8-1.7,1.7v5.7c0,0.9,0.8,1.7,1.7,1.7c0.9,0,1.7-0.8,1.7-1.7v-5.7
		C133.1,54,132.3,53.2,131.4,53.2z"/>
	<path fill="#4A606E" d="M117.5,58.7c0.6,0.6,1,1.4,1,2.5c0,1.2-0.4,2.1-1.1,2.7c-0.8,0.6-1.7,0.9-2.9,0.9c-1.5,0-2.6-0.5-3.5-1.5
		c-0.9-1-1.3-2.3-1.3-4v-0.8c0.9-0.2,1.8-0.4,2.5-0.6c0.7-0.1,1.4-0.2,2.2-0.2h-9.8l0,0.6c0,1.6,0.2,3.1,0.6,4.5
		c0.4,1.3,1,2.5,1.8,3.4c0.8,0.9,1.9,1.7,3.1,2.2c1.2,0.5,2.7,0.8,4.4,0.8c1.2,0,2.3-0.2,3.4-0.5c1.1-0.3,2.1-0.8,2.9-1.5
		s1.5-1.5,2.1-2.5c0.5-1,0.8-2.2,0.8-3.6c0-1.3-0.2-2.4-0.7-3.3l0,0h-8.2C115.9,57.8,116.9,58.1,117.5,58.7L117.5,58.7z M86.8,69.1
		h13.6c0.3,0,0.4-0.1,0.5-0.2c0.1-0.1,0.1-0.3,0.1-0.5v-3c0-0.3,0-0.5-0.1-0.6c-0.1-0.1-0.2-0.1-0.5-0.1h-11c0.2-0.6,0.6-1.1,1-1.7
		c0.4-0.5,0.9-1,1.5-1.5c0.5-0.5,1.1-0.9,1.7-1.4c0.6-0.4,1.2-0.8,1.7-1.1c0.7-0.4,1.4-0.8,2-1.3h-7.8c-0.9,0.6-1.7,1.4-2.6,2.2
		c-1,1-1.8,1.9-2.4,2.9c-0.6,1-0.9,1.9-0.9,2.7c0,1.3,0.3,2.4,0.8,2.9C85.1,68.9,85.8,69.1,86.8,69.1z"/>
	<path fill="#D7B442" d="M134.2,93.1H72.7c-1.9,0-3.4-1.5-3.4-3.4v1.1c0,1.9,1.5,3.4,3.4,3.4h61.6c1.9,0,3.4-1.5,3.4-3.4v-1.1
		C137.7,91.6,136.1,93.1,134.2,93.1z"/>
	<path fill="#868686" d="M75.5,53.2c-0.9,0-1.7,0.8-1.7,1.7v4.6c0,0.9,0.8,1.7,1.7,1.7s1.7-0.8,1.7-1.7v-4.6
		C77.2,54,76.5,53.2,75.5,53.2z M131.4,53.2c-0.9,0-1.7,0.8-1.7,1.7v4.6c0,0.9,0.8,1.7,1.7,1.7c0.9,0,1.7-0.8,1.7-1.7v-4.6
		C133.1,54,132.3,53.2,131.4,53.2z"/>
</g>
<g>
	<path fill="#334D5D" d="M421,0.8c38.2,0,69.3,31,69.3,69.3s-31,69.3-69.3,69.3s-69.3-31-69.3-69.3S382.8,0.8,421,0.8z"/>
	<path fill="#FFFFFF" d="M421,11.2c32.5,0,58.9,26.4,58.9,58.9c0,32.5-26.4,58.9-58.9,58.9s-58.9-26.4-58.9-58.9
		C362.1,37.6,388.5,11.2,421,11.2z"/>
	<path fill="#9EA7A8" d="M421,17c-1.3,0-2.3,1-2.3,2.3c0,1.3,1,2.3,2.3,2.3c1.3,0,2.3-1,2.3-2.3C423.3,18,422.3,17,421,17z
		 M471.8,67.8c-1.3,0-2.3,1-2.3,2.3c0,1.3,1,2.3,2.3,2.3s2.3-1,2.3-2.3C474.1,68.8,473.1,67.8,471.8,67.8z M370.2,67.8
		c-1.3,0-2.3,1-2.3,2.3c0,1.3,1,2.3,2.3,2.3s2.3-1,2.3-2.3C372.5,68.8,371.5,67.8,370.2,67.8z M384.1,33.2c-1.3,0-2.3,1-2.3,2.3
		c0,1.3,1,2.3,2.3,2.3s2.3-1,2.3-2.3C386.4,34.2,385.3,33.2,384.1,33.2z M457.9,33.2c-1.3,0-2.3,1-2.3,2.3c0,1.3,1,2.3,2.3,2.3
		s2.3-1,2.3-2.3C460.3,34.2,459.2,33.2,457.9,33.2z M457.9,102.4c-1.3,0-2.3,1-2.3,2.3c0,1.3,1,2.3,2.3,2.3s2.3-1,2.3-2.3
		C460.3,103.5,459.2,102.4,457.9,102.4z M384.1,102.4c-1.3,0-2.3,1-2.3,2.3c0,1.3,1,2.3,2.3,2.3s2.3-1,2.3-2.3
		C386.4,103.5,385.3,102.4,384.1,102.4z M421,118.6c-1.3,0-2.3,1-2.3,2.3c0,1.3,1,2.3,2.3,2.3c1.3,0,2.3-1,2.3-2.3
		C423.3,119.6,422.3,118.6,421,118.6z"/>
	<path fill="#DF5A48" d="M421,65.5h27.7c2.5,0,4.6,2.1,4.6,4.6c0,2.5-2.1,4.6-4.6,4.6H421c-2.5,0-4.6-2.1-4.6-4.6
		C416.4,67.6,418.5,65.5,421,65.5z"/>
	<path fill="#EB8B6B" d="M421,30.9c2.5,0,4.6,2.1,4.6,4.6v34.6c0,2.5-2.1,4.6-4.6,4.6c-2.5,0-4.6-2.1-4.6-4.6V35.5
		C416.4,32.9,418.5,30.9,421,30.9z"/>
</g>
<g>
	<path fill="#E4E7E7" d="M145.5,237.2h273.3v17.1c0,4.7-3.8,8.5-8.5,8.5H154c-4.7,0-8.5-3.8-8.5-8.5V237.2z"/>
	<path fill="#CDCFCF" d="M265,237.2h34.2v8.6H265V237.2z"/>
	<path fill="#324D5B" d="M179.6,83.5h205c4.7,0,8.5,3.8,8.5,8.5v145.2h-222V92.1C171.1,87.3,174.9,83.5,179.6,83.5z"/>
	<path fill="#576E78" d="M188.2,100.6H376V220H188.2V100.6z"/>
</g>
</svg>
