<?xml version="1.0" encoding="utf-8"?>
<!-- Generator: Adobe Illustrator 18.1.1, SVG Export Plug-In . SVG Version: 6.00 Build 0)  -->
<svg version="1.1" id="Layer_1" xmlns="http://www.w3.org/2000/svg" xmlns:xlink="http://www.w3.org/1999/xlink" x="0px" y="0px"
	 viewBox="0 0 437.1 218.8" enable-background="new 0 0 437.1 218.8" xml:space="preserve">
<g>
	<path fill="#E4E7E7" d="M286.1,42.1H160.6c-10.5,0-19.1,8.6-19.1,19.1v161c22.8,17.1,51.1,27.3,81.8,27.3c30.7,0,59-10.2,81.8-27.3
		v-161C305.2,50.6,296.7,42.1,286.1,42.1z"/>
	<path fill="#344C59" d="M294.3,74.8H152.4c-1.5,0-2.7,1.2-2.7,2.7v150.2c21.2,13.7,46.5,21.6,73.7,21.6c27.1,0,52.4-8,73.7-21.6
		V77.5C297,76,295.8,74.8,294.3,74.8z"/>
	<path fill="#3F5E6D" d="M291.6,80.3H155.2v150.8c20.1,11.6,43.4,18.3,68.2,18.3c24.9,0,48.1-6.7,68.2-18.3V80.3z"/>
	<path fill="#BFC3C5" d="M237,53h-27.3c-1.5,0-2.7,1.2-2.7,2.7c0,1.5,1.2,2.7,2.7,2.7H237c1.5,0,2.7-1.2,2.7-2.7
		C239.7,54.2,238.5,53,237,53z M247.9,53c-1.5,0-2.7,1.2-2.7,2.7c0,1.5,1.2,2.7,2.7,2.7s2.7-1.2,2.7-2.7
		C250.6,54.2,249.4,53,247.9,53z M258.8,53c-1.5,0-2.7,1.2-2.7,2.7c0,1.5,1.2,2.7,2.7,2.7s2.7-1.2,2.7-2.7
		C261.5,54.2,260.3,53,258.8,53z"/>
	<path fill="#4E6B78" d="M200.2,143c-2.3,0-4.1,1.6-4.1,3.5v14.9c0,1.9,1.8,3.5,4.1,3.5c2.3,0,4.1-1.6,4.1-3.5v-14.9
		C204.3,144.6,202.5,143,200.2,143z M230.3,128.8l3.4-3.2c0.4-0.4,0.4-1,0-1.4c-0.4-0.4-1.1-0.4-1.5,0l-4.1,3.9
		c-1.5-0.3-3-0.5-4.7-0.5c-1.6,0-3.1,0.2-4.6,0.5l-4.1-3.9c-0.4-0.4-1.1-0.4-1.5,0c-0.4,0.4-0.4,1,0,1.4l3.3,3.1
		c-5.6,2-9.5,6.4-9.5,11.5c0,0.1,32.7,0,32.7,0C239.7,135.2,235.8,130.8,230.3,128.8z M217.9,137.5c-1.5,0-2.7-1.2-2.7-2.7
		s1.2-2.7,2.7-2.7c1.5,0,2.7,1.2,2.7,2.7S219.4,137.5,217.9,137.5z M228.8,137.5c-1.5,0-2.7-1.2-2.7-2.7s1.2-2.7,2.7-2.7
		c1.5,0,2.7,1.2,2.7,2.7S230.3,137.5,228.8,137.5z M246.5,143c-2.3,0-4.1,1.6-4.1,3.5v14.9c0,1.9,1.8,3.5,4.1,3.5
		c2.3,0,4.1-1.6,4.1-3.5v-14.9C250.6,144.6,248.8,143,246.5,143z M207,164.7c0,3.1,2.4,5.6,5.6,5.6v10.4c0,1.8,1.8,3.3,3.9,3.3
		c2.1,0,3.9-1.5,3.9-3.3v-10.4h5.8v10.4c0,1.8,1.7,3.3,3.8,3.3c2.1,0,3.8-1.5,3.8-3.3v-10.4h0c3.2,0,5.8-2.5,5.8-5.6V143H207
		L207,164.7L207,164.7z"/>
</g>
<g>
	<path fill="#26A6D1" d="M383.3,0.1c-29.4,0-53.3,19.4-53.3,43.3c0,17.5,12.7,32.5,31.1,39.3c-1.5,4.9-3.8,10-7.7,14
		c0.1,0.3,11.3-1.9,22.4-10.5c2.5,0.3,5,0.5,7.6,0.5c29.4,0,53.3-19.4,53.3-43.3C436.7,19.5,412.8,0.1,383.3,0.1z"/>
	<path fill="#FFFFFF" d="M360,36.8c-3.7,0-6.7,3-6.7,6.7c0,3.7,3,6.7,6.7,6.7s6.7-3,6.7-6.7C366.7,39.8,363.7,36.8,360,36.8z
		 M383.3,36.8c-3.7,0-6.7,3-6.7,6.7c0,3.7,3,6.7,6.7,6.7c3.7,0,6.7-3,6.7-6.7C390,39.8,387,36.8,383.3,36.8z M406.7,36.8
		c-3.7,0-6.7,3-6.7,6.7c0,3.7,3,6.7,6.7,6.7c3.7,0,6.7-3,6.7-6.7C413.3,39.8,410.3,36.8,406.7,36.8z"/>
	<g>
		<path fill="#2295BC" d="M360.8,83.5c0.6-1.5,1.2-3,1.6-4.5c-18.3-6.9-31.1-21.9-31.1-39.3c0-3.7,0.6-7.2,1.7-10.6
			c-2,4.5-3.1,9.3-3.1,14.4c0,17.5,12.7,32.5,31.1,39.3L360.8,83.5z M384.7,83c-2.6,0-5.1-0.2-7.6-0.5c-8.5,6.6-17,9.4-20.6,10.2
			c-0.9,1.4-1.9,2.8-3.2,4c0.1,0.3,11.3-1.9,22.4-10.5c2.5,0.3,5,0.5,7.6,0.5c24.9,0,45.8-13.9,51.7-32.7
			C427.7,70.9,408,83,384.7,83z"/>
	</g>
</g>
<g>
	<path fill="#E2574C" d="M349.6,126.4c-11.8,0-21.3,7.7-21.3,17.3c0,7,5.1,13,12.4,15.7c-0.6,2-1.5,4-3.1,5.6
		c0.1,0.1,4.5-0.7,8.9-4.2c1,0.1,2,0.2,3,0.2c11.8,0,21.3-7.7,21.3-17.3C370.9,134.2,361.4,126.4,349.6,126.4z"/>
	<path fill="#FFFFFF" d="M340.3,141.1c-1.5,0-2.7,1.2-2.7,2.7c0,1.5,1.2,2.7,2.7,2.7s2.7-1.2,2.7-2.7
		C343,142.3,341.8,141.1,340.3,141.1z M349.6,141.1c-1.5,0-2.7,1.2-2.7,2.7c0,1.5,1.2,2.7,2.7,2.7s2.7-1.2,2.7-2.7
		C352.3,142.3,351.1,141.1,349.6,141.1z M359,141.1c-1.5,0-2.7,1.2-2.7,2.7c0,1.5,1.2,2.7,2.7,2.7s2.7-1.2,2.7-2.7
		C361.6,142.3,360.4,141.1,359,141.1z"/>
	<g>
		<path fill="#D8544A" d="M340.6,159.7c0.3-0.6,0.5-1.2,0.7-1.8c-7.3-2.7-12.4-8.7-12.4-15.7c0-1.5,0.2-2.9,0.7-4.2
			c-0.8,1.8-1.2,3.7-1.2,5.7c0,7,5.1,13,12.4,15.7L340.6,159.7z M350.2,159.5c-1,0-2-0.1-3-0.2c-3.4,2.6-6.8,3.8-8.2,4.1
			c-0.4,0.6-0.8,1.1-1.3,1.6c0.1,0.1,4.5-0.7,8.9-4.2c1,0.1,2,0.2,3,0.2c10,0,18.3-5.6,20.6-13.1
			C367.4,154.7,359.5,159.5,350.2,159.5z"/>
	</g>
</g>
<g>
	<path fill="#004D71" d="M31.1,107.2c0,17.3,17.3,31.3,38.5,31.3c1.9,0,3.7-0.1,5.5-0.4c8,6.2,16.1,7.8,16.2,7.6
		c-2.8-2.9-4.5-6.6-5.6-10.1c13.2-5,22.4-15.8,22.4-28.4c0-17.3-17.3-31.3-38.5-31.3C48.3,75.9,31.1,89.9,31.1,107.2z"/>
	<path fill="#FFFFFF" d="M81.7,107.2c0,2.7,2.2,4.8,4.8,4.8c2.7,0,4.8-2.2,4.8-4.8c0-2.7-2.2-4.8-4.8-4.8
		C83.8,102.4,81.7,104.5,81.7,107.2z M64.8,107.2c0,2.7,2.2,4.8,4.8,4.8c2.7,0,4.8-2.2,4.8-4.8c0-2.7-2.2-4.8-4.8-4.8
		C67,102.4,64.8,104.5,64.8,107.2z M47.9,107.2c0,2.7,2.2,4.8,4.8,4.8c2.7,0,4.8-2.2,4.8-4.8c0-2.7-2.2-4.8-4.8-4.8
		C50.1,102.4,47.9,104.5,47.9,107.2z"/>
	<g>
		<path fill="#012639" d="M85.7,135.6c13.2-5,22.4-15.8,22.4-28.4c0-3.6-0.8-7.1-2.2-10.4c0.8,2.5,1.2,5,1.2,7.7
			c0,12.6-9.2,23.5-22.4,28.4c0.3,1.1,0.7,2.2,1.2,3.2L85.7,135.6z M32.3,114.8c4.2,13.6,19.3,23.6,37.3,23.6c1.9,0,3.7-0.1,5.5-0.4
			c8,6.2,16.1,7.8,16.2,7.6c-0.9-0.9-1.6-1.9-2.3-2.9c-2.6-0.6-8.8-2.6-14.9-7.4c-1.8,0.2-3.6,0.4-5.5,0.4
			C51.8,135.8,37.6,127,32.3,114.8z"/>
	</g>
</g>
</svg>
