<?xml version="1.0" encoding="utf-8"?>
<!-- Generator: Adobe Illustrator 18.1.1, SVG Export Plug-In . SVG Version: 6.00 Build 0)  -->
<svg version="1.1" id="Layer_1" xmlns="http://www.w3.org/2000/svg" xmlns:xlink="http://www.w3.org/1999/xlink" x="0px" y="0px"
	 viewBox="0 0 566.3 209.8" enable-background="new 0 0 566.3 209.8" xml:space="preserve">
<g>
	<path fill="#EFEFEF" d="M482,122.1h80.2c2.3,0,4.1,1.9,4.1,4.1v79.5c0,2.3-1.9,4.1-4.1,4.1H482c-2.3,0-4.1-1.9-4.1-4.1v-79.5
		C477.8,124,479.7,122.1,482,122.1z"/>
	<path fill="#324D5B" d="M487.5,131.8h69.1v18h-69.1V131.8z"/>
	<path fill="#AEB5BA" d="M535.8,140.4c0.4-0.2,0.8-0.4,1-0.8c0.2-0.3,0.3-0.8,0.3-1.2c0-0.7-0.3-1.3-0.8-1.7
		c-0.5-0.5-1.2-0.7-2.1-0.7c-1,0-1.7,0.2-2.2,0.7c-0.5,0.5-0.8,1-0.8,1.7c0,0.4,0.1,0.8,0.3,1.1s0.6,0.6,1,0.8c-0.6,0.2-1,0.6-1.2,1
		c-0.3,0.4-0.4,0.9-0.4,1.4c0,0.9,0.3,1.7,1,2.2c0.6,0.5,1.3,0.7,2.2,0.7c1,0,1.7-0.3,2.3-0.8c0.6-0.6,0.9-1.2,0.9-2.1
		c0-0.6-0.1-1-0.4-1.4C536.8,140.9,536.4,140.6,535.8,140.4L535.8,140.4z M533.4,137.7c0.2-0.2,0.5-0.3,0.9-0.3
		c0.3,0,0.6,0.1,0.8,0.3c0.2,0.2,0.3,0.5,0.3,0.8s-0.1,0.6-0.3,0.8s-0.5,0.3-0.8,0.3s-0.6-0.1-0.8-0.3c-0.2-0.2-0.3-0.5-0.3-0.8
		S533.2,137.9,533.4,137.7L533.4,137.7z M535.3,143.8c-0.3,0.3-0.6,0.4-1,0.4c-0.4,0-0.8-0.1-1-0.4c-0.3-0.3-0.4-0.7-0.4-1.2
		c0-0.3,0.1-0.7,0.3-1c0.2-0.3,0.6-0.5,1-0.5c0.4,0,0.8,0.1,1,0.4c0.3,0.3,0.4,0.6,0.4,1C535.7,143.2,535.6,143.5,535.3,143.8z
		 M543.4,140.4c0.4-0.2,0.8-0.4,1-0.8s0.3-0.8,0.3-1.2c0-0.7-0.3-1.3-0.8-1.7c-0.5-0.5-1.2-0.7-2.1-0.7c-1,0-1.7,0.2-2.2,0.7
		c-0.5,0.5-0.8,1-0.8,1.7c0,0.4,0.1,0.8,0.3,1.1s0.6,0.6,1,0.8c-0.6,0.2-1,0.6-1.2,1c-0.3,0.4-0.4,0.9-0.4,1.4c0,0.9,0.3,1.7,1,2.2
		c0.6,0.5,1.3,0.7,2.2,0.7c1,0,1.7-0.3,2.3-0.8c0.6-0.6,0.9-1.2,0.9-2.1c0-0.6-0.1-1-0.4-1.4C544.3,140.9,543.9,140.6,543.4,140.4
		L543.4,140.4z M540.9,137.7c0.2-0.2,0.5-0.3,0.9-0.3c0.3,0,0.6,0.1,0.8,0.3c0.2,0.2,0.3,0.5,0.3,0.8s-0.1,0.6-0.3,0.8
		s-0.5,0.3-0.8,0.3s-0.6-0.1-0.8-0.3s-0.3-0.5-0.3-0.8S540.7,137.9,540.9,137.7L540.9,137.7z M542.8,143.8c-0.3,0.3-0.6,0.4-1,0.4
		c-0.4,0-0.8-0.1-1-0.4c-0.3-0.3-0.4-0.7-0.4-1.2c0-0.3,0.1-0.7,0.3-1c0.2-0.3,0.6-0.5,1-0.5c0.4,0,0.8,0.1,1,0.4
		c0.3,0.3,0.4,0.6,0.4,1C543.2,143.2,543,143.5,542.8,143.8z M551.5,137.1c-0.6-0.8-1.5-1.1-2.4-1.1c-0.9,0-1.7,0.3-2.3,0.9
		c-0.6,0.6-0.9,1.4-0.9,2.4c0,0.9,0.3,1.7,0.8,2.2c0.6,0.6,1.2,0.8,2,0.8c0.7,0,1.3-0.3,1.8-0.8c-0.1,1.1-0.3,1.8-0.6,2.1
		c-0.3,0.3-0.6,0.5-1,0.5c-0.3,0-0.6-0.1-0.8-0.3c-0.2-0.1-0.3-0.4-0.3-0.8l-1.8,0.2c0.1,0.8,0.4,1.4,0.9,1.8
		c0.5,0.4,1.1,0.6,1.9,0.6c1,0,1.9-0.4,2.6-1.2s1-2,1-3.7S552.2,137.8,551.5,137.1L551.5,137.1z M550,140.5
		c-0.3,0.3-0.6,0.4-0.9,0.4s-0.7-0.1-1-0.4c-0.3-0.3-0.3-0.8-0.3-1.3c0-0.6,0.1-1,0.3-1.3s0.6-0.4,0.9-0.4s0.7,0.1,1,0.5
		c0.3,0.3,0.4,0.8,0.4,1.4C550.4,139.8,550.3,140.3,550,140.5z"/>
	<path fill="#E2574C" d="M504.1,156.7h-13.8c-1.5,0-2.8,1.2-2.8,2.8v13.8c0,1.5,1.2,2.8,2.8,2.8h13.8c1.5,0,2.8-1.2,2.8-2.8v-13.8
		C506.9,158,505.6,156.7,504.1,156.7z M527.6,156.7h-13.8c-1.5,0-2.8,1.2-2.8,2.8v13.8c0,1.5,1.2,2.8,2.8,2.8h13.8
		c1.5,0,2.8-1.2,2.8-2.8v-13.8C530.4,158,529.1,156.7,527.6,156.7z M527.6,180.2h-13.8c-1.5,0-2.8,1.2-2.8,2.8v13.8
		c0,1.5,1.2,2.8,2.8,2.8h13.8c1.5,0,2.8-1.2,2.8-2.8V183C530.4,181.5,529.1,180.2,527.6,180.2z M504.1,180.2h-13.8
		c-1.5,0-2.8,1.2-2.8,2.8v13.8c0,1.5,1.2,2.8,2.8,2.8h13.8c1.5,0,2.8-1.2,2.8-2.8V183C506.9,181.5,505.6,180.2,504.1,180.2z"/>
	<path fill="#FFFFFF" d="M493,190.6h8.3v-2.8H493V190.6z M519.3,185.7c0,0.8,0.6,1.4,1.4,1.4c0.8,0,1.4-0.6,1.4-1.4
		c0-0.8-0.6-1.4-1.4-1.4C519.9,184.4,519.3,185,519.3,185.7z M516.6,188.5v2.8h8.3v-2.8H516.6z M520.7,192.7c-0.8,0-1.4,0.6-1.4,1.4
		s0.6,1.4,1.4,1.4c0.8,0,1.4-0.6,1.4-1.4S521.5,192.7,520.7,192.7z M498.6,162.2h-2.8v2.8H493v2.8h2.8v2.8h2.8v-2.8h2.8V165h-2.8
		V162.2z M518.8,170.3l1.9-1.9l1.9,1.9l1.9-1.9l-1.9-1.9l1.9-1.9l-1.9-1.9l-1.9,1.9l-1.9-1.9l-1.9,1.9l1.9,1.9l-1.9,1.9L518.8,170.3
		L518.8,170.3z"/>
	<path fill="#26A6D1" d="M537.3,156.7h16.6c1.5,0,2.8,1.2,2.8,2.8v37.3c0,1.5-1.2,2.8-2.8,2.8h-16.6c-1.5,0-2.8-1.2-2.8-2.8v-37.3
		C534.5,158,535.8,156.7,537.3,156.7z"/>
	<path fill="#FFFFFF" d="M541.4,174.7v2.8h8.3v-2.8H541.4z M541.4,182.3h8.3v-2.8h-8.3V182.3z"/>
	<path fill="#DCDCDC" d="M562.2,207.9H482c-2.3,0-4.1-1.9-4.1-4.1v2.1c0,2.3,1.9,4.1,4.1,4.1h80.2c2.3,0,4.1-1.9,4.1-4.1v-2.1
		C566.3,206,564.5,207.9,562.2,207.9z"/>
	<path fill="#2E4754" d="M487.5,131.8h69.1v2.8h-69.1V131.8z"/>
</g>
<g>
	<path fill="#2993C0" d="M302.7,111.5h183.6c7.2,0,13.1,5.9,13.1,13.1v59c0,7.2-5.9,13.1-13.1,13.1H302.7c-7.2,0-13.1-5.9-13.1-13.1
		v-59C289.6,117.4,295.5,111.5,302.7,111.5z"/>
	<path fill="#CCCCCC" d="M394.6,13.1c10.9,0,19.7,5.9,19.7,13.1h13.1c0-14.5-14.7-26.2-32.8-26.2c-18.1,0-32.8,11.7-32.8,26.2h13.1
		C374.9,19,383.7,13.1,394.6,13.1z"/>
	<path fill="#2384AD" d="M348.7,26.2h91.8c21.7,0,39.4,17.6,39.4,39.4v131.2c0,7.2-5.9,13.1-13.1,13.1H322.4
		c-7.2,0-13.1-5.9-13.1-13.1V65.6C309.3,43.9,326.9,26.2,348.7,26.2z"/>
	<path fill="#2993C0" d="M329,26.2h131.2c14.5,0,26.2,11.7,26.2,26.2v26.2c0,14.5-11.7,26.2-26.2,26.2H329
		c-14.5,0-26.2-11.7-26.2-26.2V52.5C302.7,38,314.5,26.2,329,26.2z"/>
	<g>
		<g>
			<path fill="#EFC75E" d="M342.1,164c0,0,5.1,13.1,10,13.1c4.9,0,9.6-13.1,9.6-13.1V26.2h-19.7V164z M427.4,26.2V164
				c0,0,5.1,13.1,10,13.1c4.9,0,9.6-13.1,9.6-13.1V26.2H427.4z"/>
		</g>
	</g>
	<g>
		<g>
			<path fill="#E4E7E7" d="M335.5,150.8h32.8v-19.7h-32.8V150.8z M420.8,131.2v19.7h32.8v-19.7H420.8z"/>
		</g>
	</g>
</g>
<g>
	<path fill="#F0F0F0" d="M141,164.6c-1.2-2.2-4.2-3-6.4-1.7c-40,23-91.2,9.5-114.2-30c-22.9-39.5-9-90.4,31-113.4
		c2.2-1.2,3-4.2,1.7-6.4c-1.2-2.2-4.2-3-6.4-1.7C2.2,37-13.2,93.6,12.3,137.5c15.9,27.4,43.7,43.4,73.3,45.6v12.8H67.7
		c-3.9,0-7,3.1-7,7s3.1,7,7,7h45.1c3.9,0,7-3.1,7-7s-3.1-7-7-7H93.7h1.2v-12.4c15.1-0.3,30.3-4.4,44.3-12.4
		C141.5,169.6,142.2,166.8,141,164.6z"/>
	<path fill="#2993C0" d="M93.4,16.9c41.2,0,74.7,33.5,74.7,74.7s-33.5,74.7-74.7,74.7s-74.7-33.5-74.7-74.7S52.2,16.9,93.4,16.9z"/>
	<path fill="#8CC6BA" d="M149.1,141.4c5.1-19.9,9.8-48.7-5-45.4c-14.2,3.1-31.7,6.5-40.1,7.8s-18.5-7.2-29.9-13.2
		c-1.6-6.4-1.7-9.8,7.2-16.3c9-6.7,13.2,6.4,16.8,2.5c5.9-7.2,1.9-13.8,9.5-29.4c7.6-15.2,8.4-12.9,13.8-24.9
		c-8.6-3.4-18-5.4-28-5.4c-28.9,0-54,16.5-66.4,40.5c2,4.2,4.8,8.6,8.7,13.4c12,14.5,24.6,20.4,44.3,32.5c19.8,12,16.8,17.4,12,22.9
		s-12.3,28.8,1.9,36.1l6.4,3.9C119.5,164.3,136.8,155.1,149.1,141.4L149.1,141.4z"/>
	<path fill="#2384AD" d="M104.3,155.4c-41.2,0-74.7-33.5-74.7-74.7c0-17.9,6.2-34.2,16.6-47.1c-16.8,13.8-27.5,34.7-27.5,58
		c0,41.2,33.5,74.7,74.7,74.7c23.3,0,44.3-10.7,58-27.5C138.5,149.2,122.2,155.4,104.3,155.4z"/>
	<path fill="#7DB2A7" d="M149.2,140.3c-12.4,9.5-28,15.1-45,15.1c-6.1,0-12-0.8-17.6-2.2c1.1,3.7,3.4,6.8,7.2,8.9
		c2.5,1.6,4.5,2.8,6.4,3.9h0.5l2.6-0.3l1.1-0.2l2.6-0.5l0.9-0.2c3-0.6,5.9-1.4,8.7-2.3l0.9-0.3c0.8-0.3,1.6-0.5,2.2-0.8l1.4-0.5
		l2-0.9c0.5-0.2,0.9-0.5,1.6-0.6l1.9-0.9l1.6-0.8l1.7-0.9l1.9-1.1c0.6-0.3,1.1-0.6,1.7-1.1c0.9-0.6,1.7-1.2,2.6-1.7l1.2-0.9l1.9-1.4
		l1.2-0.9c0.6-0.5,1.2-0.9,1.7-1.4c0.3-0.3,0.8-0.6,1.1-1.1l1.7-1.6c0.3-0.3,0.6-0.6,1.1-0.9l1.9-1.9l0.8-0.8l0.2-0.2
		C149.1,141.1,149.2,140.6,149.2,140.3L149.2,140.3z M31.3,64.9c2.5-11.5,7.8-22.1,14.9-31.1l-0.2,0.2c-0.9,0.8-1.7,1.4-2.5,2.2
		l-0.8,0.8c-0.6,0.6-1.4,1.2-2,2l-0.9,0.9L38,41.7c-0.3,0.3-0.6,0.6-0.9,1.1l-1.9,2.3c-0.3,0.3-0.6,0.8-0.9,1.2L33,47.9l-1.2,1.7
		l-1.2,1.9c-0.3,0.5-0.6,0.9-0.9,1.6l-0.9,1.4l-1.4,2.5l-0.5,0.8C28.2,59.9,29.6,62.2,31.3,64.9L31.3,64.9z"/>
</g>
<g>
	<path fill="#EFEFEF" d="M234.1,132.4v-17.2h0.3c2.2,0,4-1.7,4-3.9s-1.8-3.9-4-3.9h-28c-2.2,0-4,1.7-4,3.9s1.8,3.9,4,3.9h0.3v16.9
		c-15.6,5.4-26.6,20.3-26.6,37.6c0,22.1,17.9,40,40,40s40-17.9,40-40C259.8,152.7,249.1,138.2,234.1,132.4z"/>
	<path fill="#E5E4E4" d="M220.3,118.7h-13.8v13.4c-15.6,5.5-26.6,20.4-26.6,37.7c0,22.1,17.9,40,40,40h0.4V118.7z"/>
	<path fill="#E2574C" d="M213.5,162.1c15.8,0,34-14.6,38.5,0.1c0.8,2.5,0.9,5.2,0.9,7.9c0,18.7-15,33.8-33.5,33.8
		s-33.5-15.1-33.5-33.8c0-4,0.7-7.7,1.9-11.3C190.9,150.7,198.9,162.1,213.5,162.1L213.5,162.1z"/>
	<path fill="#D8544A" d="M220.3,161.3c-2.3,0.4-4.6,0.8-6.8,0.8c-14.6,0-22.6-11.4-25.7-3.4c-1.3,3.5-1.9,7.3-1.9,11.3
		c0,18.7,15,33.8,33.5,33.8h0.9V161.3L220.3,161.3z"/>
	<path fill="#E87970" d="M227.6,183.1c-3.1,0-5.6,2.5-5.6,5.6s2.5,5.6,5.6,5.6c3.1,0,5.6-2.5,5.6-5.6S230.7,183.1,227.6,183.1z
		 M228.5,175.4c1.6,0,3-1.4,3-3c0-1.6-1.4-3-3-3s-3,1.4-3,3C225.5,174,226.8,175.4,228.5,175.4z M239.7,174.5
		c-2.1,0-3.9,1.7-3.9,3.9s1.7,3.9,3.9,3.9s3.9-1.7,3.9-3.9S241.8,174.5,239.7,174.5z M242.2,162.5c-1.6,0-3,1.4-3,3c0,1.6,1.4,3,3,3
		s3-1.4,3-3C245.2,163.9,243.9,162.5,242.2,162.5z"/>
	<path fill="#DCDCDC" d="M206.6,115.2h27.5v3.4h-27.5V115.2z"/>
	<path fill="#EFEFEF" d="M192.8,107.5h-39.5c-1.9,0-3.4,1.5-3.4,3.4v0.9c0,1.9,1.5,3.4,3.4,3.4v74.9c0,10.9,8.9,19.7,19.8,19.7
		c10.9,0,19.8-8.9,19.8-19.7v-74.9c1.9,0,3.4-1.5,3.4-3.4v-0.9C196.2,109.1,194.7,107.5,192.8,107.5z"/>
	<path fill="#DCDCDC" d="M153.3,115.2h39.5v3.4h-39.5V115.2z"/>
	<path fill="#F4B459" d="M178.9,133.3c4.2,0,7.8,2,7.8,2v54.8c0,7.6-6.2,13.7-13.8,13.7c-7.6,0-13.8-6.1-13.8-13.7v-54.8
		c0,0,3.5,2,7.8,2S174.8,133.3,178.9,133.3L178.9,133.3z"/>
	<path fill="#F7CB8B" d="M170.5,159.1c-2.8,0-5.2,2.3-5.2,5.2s2.3,5.2,5.2,5.2c2.8,0,5.2-2.3,5.2-5.2S173.3,159.1,170.5,159.1z
		 M178.6,154.8c1.6,0,3-1.4,3-3c0-1.6-1.4-3-3-3s-3,1.4-3,3C175.6,153.4,177,154.8,178.6,154.8z M178.6,174.5
		c-2.1,0-3.9,1.7-3.9,3.9s1.7,3.9,3.9,3.9s3.9-1.7,3.9-3.9S180.8,174.5,178.6,174.5z M168.7,184.9c-1.5,0-2.6,1.1-2.6,2.6
		c0,1.5,1.1,2.6,2.6,2.6s2.6-1.1,2.6-2.6C171.3,186.1,170.1,184.9,168.7,184.9z"/>
	<ellipse fill="#DE756C" cx="209.1" cy="175.4" rx="6.9" ry="6.9"/>
</g>
</svg>
