<?xml version="1.0" encoding="utf-8"?>
<!-- Generator: Adobe Illustrator 18.1.1, SVG Export Plug-In . SVG Version: 6.00 Build 0)  -->
<svg version="1.1" id="Layer_1" xmlns="http://www.w3.org/2000/svg" xmlns:xlink="http://www.w3.org/1999/xlink" x="0px" y="0px"
	 viewBox="0 0 487.5 223" enable-background="new 0 0 487.5 223" xml:space="preserve">
<path fill="#EFEFEF" d="M291.6,242.1L281.3,95h-67.1l-10.3,147.1c0,0-0.2,4.4-0.2,4.4v0.6c13.9,4.4,28.7,6.7,44.1,6.7
	s30.2-2.4,44.1-6.7L291.6,242.1z"/>
<path fill="#DEDEDE" d="M213.4,106.8h68.8l-0.4-5.9h-67.9L213.4,106.8z"/>
<path fill="#FECC6C" d="M215.5,45h64.7v44.1h-64.7V45z"/>
<path fill="#EFEFEF" d="M247.9,15.6l26.5,23.5h-52.9L247.9,15.6z"/>
<path fill="#D7D7D7" d="M215.6,250.3L226.5,95h-12.3l-10.3,147.1c0,0-0.2,4.4-0.2,4.4v0.6C207.6,248.3,211.6,249.4,215.6,250.3z"/>
<path fill="#C8C8C8" d="M213.4,106.8h12.3l0.4-5.9h-12.3L213.4,106.8z"/>
<path fill="#F4F4F4" d="M267.8,95l11,155.6c4.5-1,8.9-2.1,13.2-3.5l-0.4-5L281.3,95L267.8,95z"/>
<path fill="#E0E0E0" d="M268.6,106.8h13.5l-0.4-5.9h-13.5L268.6,106.8z"/>
<path fill="#F1C266" d="M215.5,45h32.4v44.1h-32.4V45z"/>
<path fill="#EFEFEF" d="M283.2,89.1h-2.9V74.4h5.9c1.6,0,2.9-1.3,2.9-2.9c0-1.6-1.3-2.9-2.9-2.9h-76.5c-1.6,0-2.9,1.3-2.9,2.9
	c0,1.6,1.3,2.9,2.9,2.9h5.9v14.7h-2.9c-3.2,0-5.9,2.6-5.9,5.9c0,3.3,2.6,5.9,5.9,5.9h70.6c3.2,0,5.9-2.6,5.9-5.9
	C289.1,91.8,286.4,89.1,283.2,89.1z M221.4,89.1V74.4h5.9v14.7H221.4z M233.2,89.1V74.4h5.9v14.7H233.2z M244.9,89.1V74.4h5.9v14.7
	H244.9z M256.7,89.1V74.4h5.9v14.7H256.7z M268.5,89.1V74.4h5.9v14.7H268.5z M214,39.1h67.7c2.4,0,4.4,2,4.4,4.4s-2,4.4-4.4,4.4H214
	c-2.4,0-4.4-2-4.4-4.4S211.6,39.1,214,39.1z"/>
<path fill="#D7D7D7" d="M221.4,43.5c0-2.4,2-4.4,4.4-4.4H214c-2.4,0-4.4,2-4.4,4.4s2,4.4,4.4,4.4h11.8C223.4,48,221.4,46,221.4,43.5
	z"/>
<path fill="#E3E3E3" d="M221.4,39.1h26.5V15.6L221.4,39.1z"/>
<g>
	<path fill="#E2574C" d="M209.3,165.6l-1.4,20.6h79.9l-1.4-20.6H209.3z M212.1,124.4l-1.4,20.6h74.1l-1.4-20.6H212.1z M290.6,227.4
		l-1.4-20.6h-82.7l-1.4,20.6H290.6z"/>
</g>
<g>
	<path fill="#CB4E44" d="M212.1,124.4l-1.4,20.6H223l1.5-20.6H212.1z M209.3,165.6l-1.4,20.6h12.2l1.5-20.6H209.3z M217.2,227.4
		l1.5-20.6h-12.2l-1.4,20.6H217.2z"/>
</g>
<g>
	<path fill="#E5685E" d="M269.9,124.4l1.5,20.6h13.5l-1.4-20.6H269.9z M272.8,165.6l1.5,20.6h13.5l-1.4-20.6H272.8z M290.6,227.4
		l-1.4-20.6h-13.5l1.5,20.6H290.6z"/>
</g>
<linearGradient id="SVGID_1_" gradientUnits="userSpaceOnUse" x1="274.3496" y1="43.7669" x2="863" y2="43.7669">
	<stop  offset="0" style="stop-color:#FFB819;stop-opacity:0.3"/>
	<stop  offset="4.688770e-02" style="stop-color:#E5A516;stop-opacity:0.2859"/>
	<stop  offset="0.1513" style="stop-color:#B07F11;stop-opacity:0.2546"/>
	<stop  offset="0.2601" style="stop-color:#815D0D;stop-opacity:0.222"/>
	<stop  offset="0.3708" style="stop-color:#594009;stop-opacity:0.1888"/>
	<stop  offset="0.484" style="stop-color:#392906;stop-opacity:0.1548"/>
	<stop  offset="0.6005" style="stop-color:#201703;stop-opacity:0.1198"/>
	<stop  offset="0.7217" style="stop-color:#0E0A01;stop-opacity:8.350448e-02"/>
	<stop  offset="0.8505" style="stop-color:#030200;stop-opacity:4.486322e-02"/>
	<stop  offset="1" style="stop-color:#000000;stop-opacity:0"/>
</linearGradient>
<polygon fill="url(#SVGID_1_)" points="281.3,47.8 863,-84.8 863,172.3 274.3,74.4 "/>
<linearGradient id="SVGID_2_" gradientUnits="userSpaceOnUse" x1="-14120.6504" y1="46.643" x2="-13534.6504" y2="46.643" gradientTransform="matrix(-1 0 0 1 -13902.6504 0)">
	<stop  offset="0" style="stop-color:#FFB819;stop-opacity:0.3"/>
	<stop  offset="4.688770e-02" style="stop-color:#E5A516;stop-opacity:0.2859"/>
	<stop  offset="0.1513" style="stop-color:#B07F11;stop-opacity:0.2546"/>
	<stop  offset="0.2601" style="stop-color:#815D0D;stop-opacity:0.222"/>
	<stop  offset="0.3708" style="stop-color:#594009;stop-opacity:0.1888"/>
	<stop  offset="0.484" style="stop-color:#392906;stop-opacity:0.1548"/>
	<stop  offset="0.6005" style="stop-color:#201703;stop-opacity:0.1198"/>
	<stop  offset="0.7217" style="stop-color:#0E0A01;stop-opacity:8.350448e-02"/>
	<stop  offset="0.8505" style="stop-color:#030200;stop-opacity:4.486322e-02"/>
	<stop  offset="1" style="stop-color:#000000;stop-opacity:0"/>
</linearGradient>
<polygon fill="url(#SVGID_2_)" points="218,48 -368,-79 -368,172.3 218,72 "/>
</svg>
