<?xml version="1.0" encoding="utf-8"?>
<!-- Generator: Adobe Illustrator 18.1.1, SVG Export Plug-In . SVG Version: 6.00 Build 0)  -->
<svg version="1.1" id="Layer_1" xmlns="http://www.w3.org/2000/svg" xmlns:xlink="http://www.w3.org/1999/xlink" x="0px" y="0px"
	 viewBox="0 0 663 290.7" enable-background="new 0 0 663 290.7" xml:space="preserve">
<linearGradient id="SVGID_1_" gradientUnits="userSpaceOnUse" x1="357.3496" y1="94.7804" x2="663" y2="94.7804">
	<stop  offset="0" style="stop-color:#FFB819;stop-opacity:0.3"/>
	<stop  offset="0.1795" style="stop-color:#9C7F25;stop-opacity:0.1956"/>
	<stop  offset="0.3444" style="stop-color:#494F30;stop-opacity:9.982811e-02"/>
	<stop  offset="0.4599" style="stop-color:#153137;stop-opacity:3.272474e-02"/>
	<stop  offset="0.5162" style="stop-color:#012639;stop-opacity:0"/>
</linearGradient>
<polygon fill="url(#SVGID_1_)" points="361,93.4 663,0 663,189.6 357.3,120 "/>
<linearGradient id="SVGID_2_" gradientUnits="userSpaceOnUse" x1="-13693.3887" y1="94.7804" x2="-13387.6504" y2="94.7804" gradientTransform="matrix(-1 0 0 1 -13387.6504 0)">
	<stop  offset="0" style="stop-color:#FFB819;stop-opacity:0.3"/>
	<stop  offset="0.1795" style="stop-color:#9C7F25;stop-opacity:0.1956"/>
	<stop  offset="0.3444" style="stop-color:#494F30;stop-opacity:9.982811e-02"/>
	<stop  offset="0.4599" style="stop-color:#153137;stop-opacity:3.272474e-02"/>
	<stop  offset="0.5162" style="stop-color:#012639;stop-opacity:0"/>
</linearGradient>
<polygon fill="url(#SVGID_2_)" points="302.2,93.4 0,0 0,189.6 305.7,120 "/>
<path fill="#EFEFEF" d="M374.6,287.7l-10.3-147.1h-67.1l-10.3,147.1c0,0-0.2,4.4-0.2,4.4v0.6c13.9,4.4,28.7,6.7,44.1,6.7
	c15.4,0,30.2-2.4,44.1-6.7L374.6,287.7z"/>
<path fill="#DEDEDE" d="M296.4,152.4h68.8l-0.4-5.9h-67.9L296.4,152.4z"/>
<path fill="#FECC6C" d="M298.5,90.6h64.7v44.1h-64.7V90.6z"/>
<path fill="#EFEFEF" d="M330.9,61.2l26.5,23.5h-52.9L330.9,61.2z"/>
<path fill="#D7D7D7" d="M298.6,295.9l10.9-155.3h-12.3l-10.3,147.1c0,0-0.2,4.4-0.2,4.4v0.6C290.6,293.9,294.6,295,298.6,295.9z"/>
<path fill="#C8C8C8" d="M296.4,152.4h12.3l0.4-5.9h-12.3L296.4,152.4z"/>
<path fill="#F4F4F4" d="M350.8,140.6l11,155.6c4.5-1,8.9-2.1,13.2-3.5l-0.4-5l-10.3-147.1L350.8,140.6z"/>
<path fill="#E0E0E0" d="M351.6,152.4h13.5l-0.4-5.9h-13.5L351.6,152.4z"/>
<path fill="#F1C266" d="M298.5,90.6h32.4v44.1h-32.4V90.6z"/>
<path fill="#EFEFEF" d="M366.2,134.7h-2.9V120h5.9c1.6,0,2.9-1.3,2.9-2.9c0-1.6-1.3-2.9-2.9-2.9h-76.5c-1.6,0-2.9,1.3-2.9,2.9
	c0,1.6,1.3,2.9,2.9,2.9h5.9v14.7h-2.9c-3.2,0-5.9,2.6-5.9,5.9c0,3.3,2.6,5.9,5.9,5.9h70.6c3.2,0,5.9-2.6,5.9-5.9
	C372.1,137.4,369.4,134.7,366.2,134.7z M304.4,134.7V120h5.9v14.7H304.4z M316.2,134.7V120h5.9v14.7H316.2z M327.9,134.7V120h5.9
	v14.7H327.9z M339.7,134.7V120h5.9v14.7H339.7z M351.5,134.7V120h5.9v14.7H351.5z M297,84.7h67.7c2.4,0,4.4,2,4.4,4.4
	c0,2.4-2,4.4-4.4,4.4H297c-2.4,0-4.4-2-4.4-4.4C292.6,86.7,294.6,84.7,297,84.7z"/>
<path fill="#D7D7D7" d="M304.4,89.1c0-2.4,2-4.4,4.4-4.4H297c-2.4,0-4.4,2-4.4,4.4c0,2.4,2,4.4,4.4,4.4h11.8
	C306.4,93.5,304.4,91.6,304.4,89.1z"/>
<path fill="#E3E3E3" d="M304.4,84.7h26.5V61.2L304.4,84.7z"/>
<g>
	<path fill="#E2574C" d="M292.3,211.2l-1.4,20.6h79.9l-1.4-20.6H292.3z M295.1,170l-1.4,20.6h74.1l-1.4-20.6H295.1z M373.6,273
		l-1.4-20.6h-82.7l-1.4,20.6H373.6z"/>
</g>
<g>
	<path fill="#CB4E44" d="M295.1,170l-1.4,20.6H306l1.5-20.6H295.1z M292.3,211.2l-1.4,20.6h12.2l1.5-20.6H292.3z M300.2,273
		l1.5-20.6h-12.2l-1.4,20.6H300.2z"/>
</g>
<g>
	<path fill="#E5685E" d="M352.9,170l1.5,20.6h13.5l-1.4-20.6H352.9z M355.8,211.2l1.5,20.6h13.5l-1.4-20.6H355.8z M373.6,273
		l-1.4-20.6h-13.5l1.5,20.6H373.6z"/>
</g>
</svg>
