<svg xmlns="http://www.w3.org/2000/svg" viewBox="0 0 600 600"><circle fill="#3DB39E" cx="300" cy="300" r="300"/><path fill="#37A18E" d="M551.2 136.4L285.9 411.1l.5 29.5h12.2L585.9 209c-8.4-25.7-20.1-50.6-34.7-72.6z"/><path fill="#F2F1EF" d="M594.4 123.3l-53-52.5c-7-7-18.8-7-26.2 0L288.8 304.7l-98-96.6c-7-7-18.8-7-26.2 0l-46.9 46.4c-7 7-7 18.7 0 25.8l156.6 155.2c4.2 4.2 9.8 5.6 15.5 5.2 5.6.5 11.2-.9 15.5-5.2l289.2-285.9c6.9-7.6 6.9-19.3-.1-26.3z"/><path fill="#E6E5E3" d="M305.2 435.5l289.2-285.9c7-7 7-18.8 0-25.8l-8.4-8-296.8 291.5-164-159.8-7 7c-7 7-7 18.7 0 25.8l156.6 155.2c4.2 4.2 9.8 5.6 15.5 5.2 5 .4 10.6-1 14.9-5.2z"/></svg>