<svg xmlns="http://www.w3.org/2000/svg" viewBox="0 0 600 600"><circle fill="#CCC" cx="299.4" cy="299.8" r="298.9"/><path fill="#B3B3B3" d="M549.7 136.8L285.4 410.5l.5 29.4H298l286.3-230.7c-8.4-25.7-20.1-50.4-34.6-72.4z"/><path fill="#F2F1EF" d="M592.7 123.7l-52.8-52.3c-7-7-18.7-7-26.2 0l-225.6 233-97.6-96.2c-7-7-18.7-7-26.2 0l-46.7 46.2c-7 7-7 18.7 0 25.7l156 154.6c4.2 4.2 9.8 5.6 15.4 5.1 5.6.5 11.2-.9 15.4-5.1l288.1-284.9c7.2-7.4 7.2-19.1.2-26.1z"/><path fill="#E6E5E3" d="M304.5 434.8l288.1-284.9c7-7 7-18.7 0-25.7l-8.4-7.9-295.6 290.4-163.4-159.2-7 7c-7 7-7 18.7 0 25.7l156 154.6c4.2 4.2 9.8 5.6 15.4 5.1 5.1.5 10.7-.9 14.9-5.1z"/></svg>