<?xml version="1.0" encoding="utf-8"?>
<!-- Generator: Adobe Illustrator 13.0.0, SVG Export Plug-In . SVG Version: 6.00 Build 14948)  -->
<!DOCTYPE svg PUBLIC "-//W3C//DTD SVG 1.1//EN" "http://www.w3.org/Graphics/SVG/1.1/DTD/svg11.dtd">
<svg version="1.1"
	 id="svg2" xmlns:dc="http://purl.org/dc/elements/1.1/" xmlns:cc="http://creativecommons.org/ns#" xmlns:svg="http://www.w3.org/2000/svg" xmlns:rdf="http://www.w3.org/1999/02/22-rdf-syntax-ns#"
	 xmlns="http://www.w3.org/2000/svg" xmlns:xlink="http://www.w3.org/1999/xlink" x="0px" y="0px" width="1083.296px"
	 height="241.381px" viewBox="56.227 0.567 1083.296 241.381" enable-background="new 56.227 0.567 1083.296 241.381"
	 xml:space="preserve">
<g id="g12" transform="scale(0.1)">
	<path id="path40" fill="#00263A" d="M6007.963,108.667c-7.52,0.767-11.621,1.211-15.996,1.67
		c2.773,12.808,12.813,19.019,20.781,28.037c-2.559,1.938-5.176,3.926-9.121,6.924c6.797,5.522,12.695,10.308,18.73,15.229
		c-3.984,3.076-5.41,6.123-0.957,9.375c4.199,3.062,8.145,7.158,12.891,8.647c6.641,2.134,8.047,6.06,7.656,12.021
		c-0.098,1.436,0.293,3.594,1.289,4.307c4.863,3.56,8.105,7.627,10.781,13.457c2.344,5.117,9.297,8.228,14.453,11.885
		c4.121,2.9-1.953,9.863,5.117,11.558c3.906,0.928,7.578,2.92,12.285,4.805c-2.031,3.096-3.711,5.664-6.152,9.424
		c-8.105-4.902-15.723-9.971-23.75-14.268c-22.5-12.041-45.02-24.053-67.852-35.42c-9.063-4.517-18.906-7.539-28.555-10.728
		c-2.871-0.942-6.289-0.142-8.887-0.142c-4.238,5.85,10.273,11.572-3.418,15.381c3.77,4.141,6.23,6.807,8.477,9.268
		c-1.23,1.738-2.422,3.398-4.219,5.938c8.887,5.869,12.07,14.6,14.414,23.799c0.371,1.504,0.234,3.75,1.172,4.385
		c7.402,4.932,9.004,12.725,10.391,20.537c1.172,6.543,4.824,11.24,9.258,16.035c12.383,13.457,26.973,23.789,42.246,33.613
		c10.254,6.621,19.082,14.59,25.156,26.377c12.324,23.916,28.633,45.518,43.594,67.91c13.848,20.742,34.668,31.992,53.555,46.094
		c2.539,1.885,6.445,1.973,11.602,3.438c-5.254,5.518-8.594,12.08-13.438,13.496c-8.809,2.568-12.246,11.973-20.371,13.955
		c-8.965,2.197-11.191,13.213-20.508,14.355c-4.512,9.648-15.586,12.92-20.84,22.402c-4.258,7.656-13.867,10.879-21.797,12.5
		c-12.012,2.432-21.602,9.395-32.148,14.238c-10.098,4.639-21.445,8.447-28.965,18.037c-2.09,2.676-6.016,3.896-8.906,6.055
		c-0.566,0.41-0.234,2.041-0.391,4.316c6.621,0.459,13.34,0.918,21.836,1.519c-3.418,4.722-5.762,7.959-8.105,11.187
		c0.879,0.396,1.777,1.055,2.754,1.221c10.469,1.602,21.602-3.311,31.582,3.232c5.742-5.19,14.023-2.822,20.254-6.924
		c8.184-5.396,17.48-7.144,27.109-5.996c1.738,0.215,3.125,3.008,6.309,6.235c5.566-0.396,12.832,0.679,20.84-2.769
		c12.109-5.156,25.977-5.396,37.578-13.022c3.105-2.026,9.18-1.875,12.793-0.269c10.449,4.6,20.313,5.176,30.41-0.264
		c11.934,6.211,24.688-4.683,37.461,2.764c7.52,4.346,17.422-1.875,25.918-4.004c17.852-4.517,35-12.09,50.078-22.271
		c20.391-13.75,42.734-24.844,59.707-43.75c10-11.147,20.684-21.797,33.086-30.967c16.445-12.168,34.727-19.668,53.223-27.236
		c9.883-4.043,19.883-7.803,29.648-12.1c20.02-8.789,39.863-18.037,59.941-26.67c5.137-2.197,10.879-3.213,16.445-4.092
		c12.773-1.992,25.488-2.676,37.422-9.531c6.328-3.643,15.293-2.91,23.125-3.662c7.852-0.781,15.098-4.727,23.398-3.521
		c8.73,1.274,17.598,1.479,26.152,2.144c-4.629-11.279-16.094-16.162-26.426-17.334c-14.043-1.572-24.746-8.311-34.668-16.152
		c-14.199-11.221-30.059-12.52-46.504-11.069c-5.684,0.483-12.07,3.94-16.309,7.959c-20.762,19.604-46.934,29.6-71.895,41.851
		c-12.52,6.147-26.133,8.726-39.395,12.437c-6.484,1.812-13.32,2.896-20.059,3.311c-18.105,1.143-35.762-0.156-52.188-9.463
		c-4.277-2.432-9.883-2.91-14.98-3.506c-4.863-0.566-9.863-0.127-15.977-0.127c-12.949-16.582-26.738-33.394-39.512-50.933
		c-7.871-10.767-13.203-23.467-21.484-33.853c-6.621-8.32-9.688-18.154-15.234-26.855c-5.527-8.691-5.41-19.541-9.707-28.975
		c-2.266-5.039,0.137-12.08-1.836-17.383c-6.094-16.426-13.418-31.904-24.961-45.981c-12.832-15.649-26.27-30.879-41.66-43.315
		c-29.258-23.564-54.59-51.084-82.5-75.894c-17.988-15.981-37.148-30.981-56.816-45.269c-13.965-10.176-28.691-18.34-43.77-26.211
		c-2.52-1.313-5.762-1.191-10.41-2.021c1.543,6.475,2.676,11.23,4.023,16.973c-9.473-0.029-16.602-11.123-26.348-5.391
		c0.488,12.52,13.242,16.67,17.91,28.398c-6.641-1.328-11.719-2.358-18.184-3.647c1.68,14.834,14.648,20.356,21.66,31.89
		c-5.547,0.952-9.863,1.709-14.414,2.485c-1.895,10.84,5.215,17.104,12.031,22.769
		C5991.245,98.789,5998.725,102.705,6007.963,108.667"/>
	<path id="path42" fill="#00263A" d="M5012.666,426.66c-0.361,11.445,20.596,19.014,7.93,31.348
		c16.689,24.346,33.613,48.174,49.531,72.627c9.072,13.916,18.076,27.52,29.824,39.57c21.055,21.602,40.713,44.609,61.445,66.553
		c6.221,6.582,11.328,14.932,21.855,16.768c3.047,0.518,7.9,5.391,7.646,7.832c-1.68,16.445,16.768,27.246,11.934,44.238
		c13.096,56.24,31.66,109.746,67.539,156.572c14.316,18.721,29.414,34.189,50.586,44.414c6.309,3.027,10.654,10.137,18.027,17.52
		c-7.266,4.531-12.334,7.598-17.314,10.811c-16.943,10.967-33.291,22.432-48.77,35.723c-30.342,26.084-58.682,55.996-97.803,69.375
		c-23.232,7.949-43.447,20.869-63.848,33.535c-9.082,5.635-16.035,14.766-23.643,22.627c-10.459,10.82-4.453,21.66,2.002,33.516
		c1.025,0.186,3.76,0.322,6.23,1.221c7.383,2.646,20.42-7.334,21.494,9.512c9.961,2.48,19.238,4.092,29.326-1.934
		c12.9-7.705,27.08-13.271,41.924-20.342c1.377,3.965,2.48,7.168,3.75,10.85c0.293,0.283,1.035,1.611,1.621,1.543
		c12.871-1.484,26.123,3.906,38.75-3.398c10.742-6.211,22.197-11.24,33.516-16.416c18.213-8.33,36.953-14.6,57.393-14.512
		c43.193,0.166,86.543,1.992,129.604-0.518c40.527-2.354,80.566-10.586,117.676-28.389c26.465-12.705,54.59-23.682,77.793-41.035
		c24.961-18.672,49.668-38.174,68.418-65.332c22.168-32.119,47.734-63.184,82.441-83.477c19.121-11.172,39.375-20.947,60.137-28.564
		c20.039-7.344,39.531-15.85,59.453-23.418c24.492-9.336,46.348-23.193,67.988-37.686c6.465-4.316,14.961-8.291,22.344-7.969
		c17.266,0.752,31.016-9.414,46.953-12.754c11.875-2.461,21.816-11.328,35.684-11.426c11.23-0.088,22.207-6.787,33.594-8.535
		c12.969-1.973,26.328-1.191,39.414-2.578c5.996-0.645,11.738-3.603,18.281-5.723c-8.652-12.9-17.578-19.404-31.621-17.256
		c-23.359,3.545-42.227-8.154-60.957-19.57c-4.629-2.822-8.945-6.191-13.535-9.082c-12.109-7.637-22.402-12.637-39.375-7.236
		c-14.961,4.756-31.23,7.783-46.641,12.92c-15.977,5.303-30.703,12.832-39.023,27.93c-7.07,12.783-16.621,22.051-29.746,27.373
		c-17.285,7.012-34.922,13.105-52.363,19.668c-17.52,6.602-36.426,8.867-53.438,17.08c-0.762,0.371-1.875,0.332-2.773,0.186
		c-23.73-4.229-46.055,7.012-69.648,6.016c-23.965-1.025-48.32,2.021-71.875-1.201c-11.465-1.572-23.105-4.678-33.516-4.785
		c-35.43-30.059-60.742-66.865-86.348-103.242c-9.082-12.91-12.441-29.883-21.719-42.617
		c-10.137-13.916-11.641-30.127-16.211-45.225c-7.109-23.496-14.082-47.959-11.621-72.773c1.953-19.863-7.422-36.162-14.863-51.65
		c-10.254-21.299-24.961-40.908-43.652-57.051c-16.66-14.404-31.265-31.152-47.114-46.553
		c-25.215-24.561-53.232-45.469-82.012-65.801c-17.148-12.119-33.359-25.879-50.557-38.232
		c-23.037-16.553-45.02-34.629-68.428-50.605c-25.264-17.236-52.324-31.865-77.383-49.346c-28.096-19.59-56.748-37.588-89.365-48.76
		c-6.641-2.285-12.744-6.133-21.982-6.533c2.139,2.813,4.092,5.801,6.475,8.389c3.242,3.486,6.807,6.68,14.238,13.906
		c-15.527-2.939-26.299-4.971-40.264-7.617c9.629,16.758,17.432,30.352,26.221,45.664c-9.375,1.113-17.178,2.021-29.414,3.447
		c8.379,9.199,13.818,15.361,19.453,21.318c5.098,5.361,10.41,10.488,15.039,15.137c-1.699,3.711-1.992,6.035-3.242,6.836
		c-9.932,6.348-12.324,11.436-6.582,17.627c9.746,10.586,20.254,20.479,28.965,29.199c-5.547,5.537-11.211,11.191-18.379,18.359
		c10.059,9.15,17.275,15.215,23.906,21.885c11.387,11.436,11.23,11.582,2.168,30.527c15.537,13.35,31.602,27.139,47.813,41.055
		c-18.242,15.137,10.361,19.053,6.133,30.498c8.711,6.787,17.402,13.584,26.133,20.371c2.227,5.176-12.754,11.104,1.348,16.416
		c6.68,2.5,11.787,9.209,18.398,14.648c-3.477,1.523-4.57,2.412-5.059,2.158c-31.563-16.563-66.445-25.137-98.105-41.523
		c-14.854-7.695-17.539-6.582-30.234,5.898"/>
	<path id="path44" fill="#00263A" d="M7057.495,706.064c-10.137-15.439-24.316-20.547-38.438-25.82
		c-6.68-2.5-14.18-4.316-19.512-8.652c-15.605-12.676-30.586-26.172-45.313-39.922c-9.531-8.916-19.941-12.988-33.203-13.525
		c-24.473-1.016-46.484,6.514-68.105,16.211c-10.156,4.531-20.391,9.209-29.727,15.186c-17.676,11.318-36.68,19.922-56.836,24.346
		c-20.43,4.482-39.492,12.93-59.844,17.881c-18.438,4.492-37.09,5.977-54.98,10.244c-23.75,5.645-46.914,3.271-70.254,3.594
		c-14.629,0.215-28.965-5.303-44.219-5.078c-29.141,0.4-55.957,7.178-81.738,20.723c-14.688,7.705-31.035,11.553-45.625,20.518
		c-35.039,21.484-70.664,27.666-103.203,36.816c-37.969,10.664-74.297,25.596-104.336,52.754
		c-14.141,12.793-29.102,24.658-43.711,36.963c5.43,11.65,13.477,16.855,23.633,21.895c-6.641,12.295-18.75,19.502-27.07,29.902
		c-7.324,9.15-10.723,10.283-30.82,18.096c-19.18,7.48-37.695,16.777-56.328,25.664c-4.336,2.07-7.988,5.635-11.855,8.672
		c-9.746,7.695-16.66,18.164-28.438,24.385c-7.695,4.063-11.68,15.156-17.188,22.9c2.656,5.479,5.059,10.488,7.285,15.068
		c14.883,2.08,29.492,4.463,44.199,5.977c6.445,0.674,12.344-0.557,18.945-4.043c4.727-2.471,14.98-7.432,17.48-5.459
		c12.266,9.727,27.617,0.195,40.352,9.16c12.383,8.711,25.488,5.732,39.512-4.795c19.199-14.414,37.949-29.424,60.215-46.797
		c7.988,1.445,19.844,4.707,31.855,5.449c17.129,1.055,34.609,2.207,51.445-0.137c34.16-4.756,68.633-9.463,99.688-26.416
		c2.734-1.494,5.234-3.467,9.648-6.436c2.773,10.996,4.551,20.352,7.539,29.297c2.539,7.471,5.586,15.117,10.098,21.465
		c3.926,5.498,13.242,8.447,14.805,14.023c2.246,8.086,5.879,14.844,10.098,21.67c3.789,6.152,8.516,11.973,10.977,18.623
		c3.281,8.867,10.137,14.502,15.41,21.611c5.762,7.793,9.199,17.109,16.816,23.975c4.668,4.209,7.363,10.576,11.133,15.85
		c4.746,6.65,9.395,13.408,14.609,19.688c7.422,8.896,17.539,15.342,22.09,26.924c1.719,4.336,7.578,10.684,10.645,10.215
		c13.359-2.012,13.691,8.809,17.676,15.82c3.887,6.895,6.348,14.668,10.586,21.328c3.496,5.527,9.18,14.6,12.988,14.16
		c15.645-1.738,17.734,10.957,22.52,19.258c6.855,11.914,12.91,24.004,23.77,32.871c5.273-5.254,10.137-10.117,14.16-14.16
		c8.203,11.699,16.523,23.594,25,35.703c20.508-6.035,26.992,11.768,40.43,21.23c3.125-3.965,6.152-7.852,10.645-13.613
		c6.172,7.93,11.953,15.332,17.891,22.949c7.793-0.879,11.973-5.156,12.754-12.764c3.008-29.6-3.848-58.643-5.137-88.018
		c-9.414-15.137-12.148-32.734-17.969-49.199c-15.098-42.705-28.711-85.957-44.238-128.506c-4.883-13.379-10.176-26.699-15.41-39.99
		c-6.758-17.256-7.91-35.82-14.727-53.115c-5.391-13.633-10.645-26.484-20.098-38.184c-9.512-11.729-16.191-25.771-24.004-38.848
		c-1.191-2.031-2.402-4.346-2.598-6.611c-1.895-20.742-4.102-41.475-4.922-62.256c-0.293-6.934,0.918-16.084,5.215-20.654
		c14.375-15.186,27.461-31.777,46.211-42.686c12.344-7.168,26.133-9.404,38.926-11.328c22.676-3.389,43.066-12.432,64.277-19.453
		c19.57-6.494,38.555-14.746,58.066-21.445c5.352-1.836,11.68-1.074,17.559-1.113c19.746-0.107,40.293,3.428,59.043-0.859
		c27.031-6.182,53.691-3.262,80.488-4.092c12.188-0.352,24.922-3.154,36.719,4.57
		C7044.506,707.964,7050.717,706.064,7057.495,706.064"/>
	<g enable-background="new    ">
		<path fill="#00263A" d="M1109.902,1949.736c34.98,0,78.164-7.109,129.561-21.328c40.439-12.012,64.502,0,72.168,36.084
			l32.793,152.519c4.355,18.604,3.535,32.803-2.461,42.637c-6.016,9.844-18.32,19.15-36.895,27.881
			c-69.98,34.98-155.264,52.48-255.84,52.48c-168.384,0-292.202-44.531-371.46-133.652
			c-79.287-89.101-118.901-245.185-118.901-468.223c0-219.756,39.077-373.916,117.261-462.48
			c78.154-88.555,200.337-132.842,366.538-132.842c88.564,0,172.197,16.963,250.918,50.84
			c33.877,14.229,47.559,37.725,41.006,70.527l-32.803,152.52c-7.666,36.074-31.729,48.115-72.158,36.074
			c-47.021-13.115-89.121-19.678-126.279-19.678c-80.928,0-136.123,20.781-165.645,62.314
			c-29.517,41.563-44.277,122.471-44.277,242.725c0,122.461,15.298,205,45.918,247.637
			C969.941,1928.408,1026.807,1949.736,1109.902,1949.736z"/>
		<path fill="#00263A" d="M2126.709,2126.025c-67.803,74.902-168.379,112.344-301.758,112.344
			c-133.408,0-233.701-37.441-300.947-112.344c-67.236-74.883-100.859-193.242-100.859-355.058
			c0-160.723,33.877-278.516,101.68-353.418c67.783-74.883,167.822-112.344,300.127-112.344
			c133.379,0,233.955,37.461,301.758,112.344c67.773,74.902,101.68,192.695,101.68,353.418
			C2228.388,1932.783,2194.482,2051.152,2126.709,2126.025z M1824.951,1990.732c33.877,0,57.109-15.84,69.697-47.559
			c12.559-31.699,18.857-89.102,18.857-172.197s-6.299-140.225-18.857-171.396c-12.588-31.152-35.82-46.729-69.697-46.729
			c-32.803,0-55.508,15.576-68.066,46.729c-12.578,31.172-18.857,88.311-18.857,171.396c0,83.096,6.279,140.498,18.857,172.197
			C1769.443,1974.892,1792.148,1990.732,1824.951,1990.732z"/>
		<path fill="#00263A" d="M3086.094,1703.73v467.392c0,33.906-17.5,50.85-52.48,50.85h-200.078c-33.896,0-50.84-16.943-50.84-50.85
			v-490.351c0-37.148-4.102-63.965-12.295-80.352c-8.203-16.406-23.779-24.609-46.748-24.609c-54.678,0-81.992,42.646-81.992,127.92
			v467.402c0,33.906-16.963,50.84-50.84,50.84h-203.359c-33.906,0-50.84-16.934-50.84-50.84v-798.682
			c0-33.877,16.934-50.84,50.84-50.84h182.031c31.699,0,50.84,13.691,57.402,41.006l11.484,40.996
			c52.48-65.605,124.072-98.398,214.834-98.398c95.127,0,161.26,36.641,198.447,109.883
			c63.389-73.242,143.75-109.883,241.074-109.883c159.619,0,239.443,98.965,239.443,296.836v569.082
			c0,33.906-17.5,50.84-52.48,50.84h-201.719c-35.01,0-52.48-16.934-52.48-50.84v-490.361c0-36.074-4.385-62.568-13.125-79.541
			c-8.76-16.934-24.6-25.42-47.559-25.42C3112.334,1575.81,3086.094,1618.447,3086.094,1703.73z"/>
		<path fill="#00263A" d="M4407.939,1703.73v467.392c0,33.906-17.5,50.85-52.48,50.85H4155.38c-33.896,0-50.84-16.943-50.84-50.85
			v-490.351c0-37.148-4.102-63.965-12.295-80.352c-8.203-16.406-23.779-24.609-46.748-24.609c-54.678,0-81.992,42.646-81.992,127.92
			v467.402c0,33.906-16.963,50.84-50.84,50.84h-203.359c-33.906,0-50.84-16.934-50.84-50.84v-798.682
			c0-33.877,16.934-50.84,50.84-50.84h182.031c31.699,0,50.84,13.691,57.402,41.006l11.484,40.996
			c52.48-65.605,124.072-98.398,214.834-98.398c95.127,0,161.26,36.641,198.447,109.883
			c63.389-73.242,143.75-109.883,241.074-109.883c159.619,0,239.443,98.965,239.443,296.836v569.082
			c0,33.906-17.5,50.84-52.48,50.84h-201.719c-35.01,0-52.48-16.934-52.48-50.84v-490.361c0-36.074-4.385-62.568-13.125-79.541
			c-8.76-16.934-24.6-25.42-47.559-25.42C4434.179,1575.81,4407.939,1618.447,4407.939,1703.73z"/>
		<path fill="#00263A" d="M4978.662,1951.377v-578.926c0-33.887,16.934-50.84,50.84-50.84h206.641
			c33.867,0,50.84,16.953,50.84,50.84v491.992c0,37.188,4.355,63.965,13.115,80.371c8.74,16.387,25.674,24.59,50.84,24.59
			c53.555,0,80.366-40.996,80.366-122.988v-473.965c0-33.887,16.934-50.84,50.84-50.84h206.641c34.98,0,52.48,16.953,52.48,50.84
			v798.672c0,33.906-17.5,50.84-52.48,50.84h-182.051c-31.719,0-50.84-13.652-57.402-40.996l-11.465-40.996
			c-44.849,65.605-112.632,98.398-203.364,98.398c-86.387,0-150.625-22.676-192.705-68.066
			C4999.697,2124.951,4978.662,2051.963,4978.662,1951.377z"/>
		<path fill="#00263A" d="M6633.393,1610.244v560.879c0,33.906-17.5,50.84-52.48,50.84h-206.641c-33.906,0-50.84-16.934-50.84-50.84
			v-487.07c0-38.262-4.668-65.605-13.945-82.012c-9.297-16.387-25.977-24.59-50.02-24.59c-55.762,0-83.633,43.203-83.633,129.551
			v464.121c0,33.906-16.973,50.84-50.84,50.84h-206.641c-33.906,0-50.84-16.934-50.84-50.84v-798.672
			c0-33.887,16.934-50.84,50.84-50.84h182.031c31.699,0,50.84,13.672,57.402,40.996l11.484,40.996
			c48.105-65.605,120.254-98.398,216.484-98.398C6550.834,1305.205,6633.393,1406.894,6633.393,1610.244z"/>
		<path fill="#00263A" d="M7046.655,1060.85h303.398c40.449,0,65.039,18.608,73.809,55.762l255.839,1041.387
			c5.469,19.697,4.102,35.273-4.102,46.758c-8.203,11.475-21.602,17.207-40.176,17.207h-226.328c-35,0-55.762-17.471-62.305-52.471
			l-29.531-134.482h-237.793l-27.891,134.482c-8.75,35-30.078,52.471-63.945,52.471h-224.688c-18.613,0-31.973-5.732-40.176-17.207
			c-8.203-11.484-10.137-27.07-5.742-46.758l257.48-1041.387C6983.237,1079.453,7007.299,1060.85,7046.655,1060.85z
			 M7115.542,1757.851h162.363l-75.449-375.557h-6.563L7115.542,1757.851z"/>
		<path fill="#00263A" d="M8066.732,2144.892l-9.844,36.074c-6.563,27.344-25.703,40.996-57.402,40.996h-180.41
			c-33.887,0-50.84-16.934-50.84-50.84V1111.689c0-33.877,16.953-50.84,50.84-50.84h206.641c33.887,0,50.84,16.963,50.84,50.84
			v272.227c17.48-22.949,45.371-41.807,83.652-56.563c38.262-14.766,78.145-22.148,119.707-22.148
			c101.68,0,177.949,37.461,228.789,112.344c50.84,74.902,76.27,192.695,76.27,353.418c0,165.107-25.703,284.277-77.09,357.529
			c-51.406,73.262-128.477,109.873-231.23,109.873c-40.469,0-81.191-9.297-122.188-27.881S8084.193,2170.049,8066.732,2144.892z
			 M8098.705,1603.691c-15.859,31.729-23.789,87.471-23.789,167.285s7.93,135.85,23.789,168.096
			c15.84,32.266,41.25,48.379,76.27,48.379c33.867,0,58.203-15.83,72.969-47.559c14.766-31.699,22.148-87.998,22.148-168.916
			c0-80.898-7.383-136.943-22.148-168.105c-14.766-31.152-39.102-46.738-72.969-46.738
			C8139.955,1556.123,8114.545,1571.992,8098.705,1603.691z"/>
		<path fill="#00263A" d="M9012.982,1111.689v91.846c0,33.896-16.973,50.84-50.84,50.84h-213.203
			c-33.906,0-50.84-16.934-50.84-50.84v-91.836c0-33.877,16.934-50.849,50.84-50.849h213.203
			C8996.01,1060.85,9012.982,1077.812,9012.982,1111.689z M9009.701,1372.451v798.682c0,33.906-16.973,50.84-50.84,50.84h-206.641
			c-33.906,0-50.84-16.934-50.84-50.84v-798.682c0-33.877,16.934-50.84,50.84-50.84h206.641
			C8992.729,1321.611,9009.701,1338.574,9009.701,1372.451z"/>
		<path fill="#00263A" d="M9459.037,1111.689v1059.433c0,33.906-16.953,50.84-50.84,50.84h-206.641
			c-33.887,0-50.84-16.934-50.84-50.84V1111.689c0-33.877,16.953-50.84,50.84-50.84h206.641
			C9442.084,1060.85,9459.037,1077.812,9459.037,1111.689z"/>
		<path fill="#00263A" d="M9911.654,1111.689v91.846c0,33.896-16.953,50.84-50.84,50.84h-213.203
			c-33.887,0-50.84-16.934-50.84-50.84v-91.836c0-33.877,16.953-50.849,50.84-50.849h213.203
			C9894.701,1060.85,9911.654,1077.812,9911.654,1111.689z M9908.373,1372.451v798.682c0,33.906-16.953,50.84-50.84,50.84h-206.641
			c-33.887,0-50.84-16.934-50.84-50.84v-798.682c0-33.877,16.953-50.84,50.84-50.84h206.641
			C9891.42,1321.611,9908.373,1338.574,9908.373,1372.451z"/>
		<path fill="#00263A" d="M10479.076,1625.01h-98.398v275.527c0,28.438,4.355,47.832,13.125,58.203
			c8.73,10.41,25.137,15.586,49.199,15.586c2.168,0,8.203-0.254,18.027-0.82c9.844-0.527,16.953-0.811,21.328-0.811
			c31.699,0,47.559,16.396,47.559,49.199v145.957c0,27.344-14.766,44.844-44.277,52.471c-32.793,8.75-77.09,13.125-132.852,13.125
			c-99.492,0-170.02-20.762-211.543-62.324c-41.563-41.543-62.324-114.805-62.324-219.746V1625.01h-42.637
			c-32.813,0-49.199-16.396-49.199-49.199v-152.52c0-32.813,16.387-49.199,49.199-49.199h44.277v-186.968
			c0-32.803,17.48-49.194,52.48-49.194h193.516c34.98,0,52.48,16.392,52.48,49.194v186.968h100.039
			c33.867,0,50.84,16.963,50.84,50.84v149.238C10529.916,1608.076,10512.943,1625.01,10479.076,1625.01z"/>
		<path fill="#00263A" d="M11389.271,1380.654l-186.973,765.879c-25.156,101.68-60.684,171.631-106.602,209.922
			c-45.918,38.252-125.195,57.402-237.793,57.402c-84.199,0-144.883-4.922-182.031-14.766c-30.625-8.77-45.938-26.24-45.938-52.48
			v-139.395c0-31.699,15.84-47.568,47.578-47.568c7.637,0,20.215,0.811,37.715,2.461c17.48,1.641,32.227,2.461,44.277,2.461
			c48.105,0,65.039-23.496,50.84-70.518l-226.328-713.398c-12.031-39.355,0-59.043,36.094-59.043h218.105
			c34.98,0,55.762,16.963,62.324,50.84l67.246,339.473l34.434,188.613h6.563l22.969-188.613l42.637-339.473
			c4.355-33.877,24.023-50.84,59.043-50.84h214.824C11384.35,1321.611,11398.002,1341.279,11389.271,1380.654z"/>
	</g>
</g>
</svg>
