<?xml version="1.0" encoding="utf-8"?>
<!-- Generator: Adobe Illustrator 18.1.1, SVG Export Plug-In . SVG Version: 6.00 Build 0)  -->
<svg version="1.1" id="Layer_1" xmlns="http://www.w3.org/2000/svg" xmlns:xlink="http://www.w3.org/1999/xlink" x="0px" y="0px"
	 viewBox="-293 381 32 32" enable-background="new -293 381 32 32" xml:space="preserve">
<path fill="#E2574C" d="M-289,381h17l9,9v21c0,1.1-0.9,2-2,2h-24c-1.1,0-2-0.9-2-2v-28C-291,381.9-290.1,381-289,381z"/>
<path fill="#B53629" d="M-263,390h-7c-1.1,0-2-0.9-2-2v-7L-263,390z"/>
<path fill="#FFFFFF" d="M-270.5,396.2c0.3,0,0.5-0.3,0.5-0.6c0-0.3-0.2-0.6-0.5-0.6h-1.9c-0.4,0-0.6,0.3-0.6,0.6v4.7
	c0,0.4,0.2,0.6,0.6,0.6c0.3,0,0.6-0.2,0.6-0.6v-1.3h1.2c0.4,0,0.5-0.3,0.5-0.6c0-0.3-0.2-0.6-0.5-0.6h-1.2v-1.7
	C-271.9,396.2-270.5,396.2-270.5,396.2z M-277,395h-1.4c-0.4,0-0.6,0.3-0.6,0.6v4.7c0,0.5,0.4,0.6,0.7,0.6h1.5
	c1.7,0,2.9-1.1,2.9-2.9C-274,396.2-275.1,395-277,395z M-276.9,399.8h-0.9v-3.7h0.8c1.2,0,1.7,0.8,1.7,1.9
	C-275.3,399-275.8,399.8-276.9,399.8z M-282,395h-1.4c-0.4,0-0.6,0.3-0.6,0.6v4.7c0,0.4,0.3,0.6,0.6,0.6s0.6-0.2,0.6-0.6V399h0.9
	c1.1,0,2-0.8,2-2C-280,395.8-280.9,395-282,395z M-282,397.9h-0.8v-1.8h0.8c0.5,0,0.8,0.4,0.8,0.9
	C-281.2,397.5-281.5,397.9-282,397.9z"/>
</svg>
