<svg xmlns="http://www.w3.org/2000/svg" width="128" height="128"><path fill="#DF5A48" d="M64 0c35.346 0 64 28.654 64 64 0 35.347-28.654 64-64 64S0 99.347 0 64C0 28.654 28.654 0 64 0z"/><path fill="#F5F5F5" d="M67.465 72.536l5.07-5.071 24.001 24-5.071 5.071-24-24z"/><path fill="#EFC84A" d="M100.203 97.875l-2.829 2.828a4.998 4.998 0 0 1-7.07 0L73.797 84.197a5.001 5.001 0 0 1 0-7.071l2.829-2.828a4.998 4.998 0 0 1 7.07 0l16.507 16.506a5.001 5.001 0 0 1 0 7.071z"/><path fill="#fff" d="M52.5 26C67.136 26 79 37.865 79 52.501c0 14.635-11.864 26.5-26.5 26.5S26 67.136 26 52.501C26 37.865 37.864 26 52.5 26z"/><path fill="#2CA4D5" d="M52.5 32C63.822 32 73 41.178 73 52.5S63.822 73 52.5 73 32 63.822 32 52.501C32 41.179 41.178 32 52.5 32z"/><path fill="#66B6DE" d="M52 54c6.075 0 11 3.134 11 7s-4.925 7-11 7-11-3.135-11-7 4.925-7 11-7z"/><path fill="#2084AB" d="M52.5 36c10.647 0 19.393 8.118 20.399 18.5.063-.659.101-1.325.101-2C73 41.179 63.822 32 52.5 32S32 41.179 32 52.501c0 .675.037 1.341.101 2C33.107 44.118 41.853 36 52.5 36z"/><path fill="#D2AF40" d="M100.203 97.875a4.963 4.963 0 0 0 1.438-3.263 4.458 4.458 0 0 0-2.908 1.292l-2.828 2.828a4.469 4.469 0 0 0-1.301 3.361 4.95 4.95 0 0 0 2.771-1.391l2.828-2.827z"/></svg>