<svg xmlns="http://www.w3.org/2000/svg" width="128" height="128"><path fill="#EFC84A" d="M64 0c35.346 0 64 28.654 64 64s-28.654 64-64 64S0 99.346 0 64 28.654 0 64 0z"/><path fill="#DF5A48" d="M25 46.999h78c1.656 0 3 1.344 3 3v43a3 3 0 0 1-3 3H25a3 3 0 0 1-3-3v-43c0-1.656 1.344-3 3-3z"/><path d="M22.643 94.854A2.986 2.986 0 0 0 25 96h78c.963 0 1.82-.455 2.369-1.16.016.018-41.385-22.84-41.385-22.84S22.695 94.869 22.643 94.854zm81.864-47.451l.005-.007-.075-.042-.035-.021C102.093 46.008 64 24 64 24S23.548 47.391 23.495 47.376l.009.013a3.45 3.45 0 0 0-.906.814C22.651 48.189 63.984 72 63.984 72s41.438-23.81 41.422-23.791a3.364 3.364 0 0 0-.899-.806z" fill="#BD3E25"/><path fill="#E4E7E8" d="M29 33h70v18.158c.052.019-34.521 18.8-35.021 18.842C64 70.5 29 50.577 29 50.632V33z"/><path fill="#ADB2B3" d="M60 39H35v4h25v-4zm-25 7v4h55v-4H35z"/></svg>