<svg xmlns="http://www.w3.org/2000/svg" width="128" height="128"><path fill="#EFC84A" d="M64 0c35.346 0 64 28.654 64 64 0 35.347-28.654 64-64 64-35.346 0-64-28.653-64-64C0 28.654 28.654 0 64 0z"/><path fill="#334D5D" d="M89 31H39a5 5 0 0 0-5 5v62a3 3 0 0 0 3 3h54a3 3 0 0 0 3-3V36a5 5 0 0 0-5-5z"/><path fill="#35718D" d="M89 31H39a5 5 0 0 0-5 5v5h10v10H34v10h10v10H34v10h10v10H34v7a3 3 0 0 0 3 3h54a3 3 0 0 0 3-3v-7H84V81h10V71H84V61h10V51H84V41h10v-5a5 5 0 0 0-5-5zM74 91H54V81h20v10zm0-20H54V61h20v10zm0-20H54V41h20v10z"/><path fill="#2A404E" d="M63 36h2v65h-2V36z"/><path d="M44 51h10v10H44zm30 20h10v10H74zm-30 0h10v10H44zm30-40h10v10H74zm0 60h10v10H74zm-30 0h10v10H44zm0-60h10v10H44zm30 20h10v10H74z" fill="#3485AA"/><path d="M63 51h2v10h-2zm0-15h2v5h-2zm0 55h2v10h-2zm0-20h2v10h-2z" fill="#2D5F78"/><path fill="#EBEEEE" d="M64.5 48a1.5 1.5 0 1 0-.001-3.001A1.5 1.5 0 0 0 64.5 48zm0 7a1.5 1.5 0 1 0 0 3 1.5 1.5 0 0 0 0-3zm0 10a1.5 1.5 0 1 0 0 3 1.5 1.5 0 0 0 0-3zm0 10a1.5 1.5 0 1 0 0 3 1.5 1.5 0 0 0 0-3zm0 10a1.5 1.5 0 1 0 0 3 1.5 1.5 0 0 0 0-3zm0 10a1.5 1.5 0 1 0 0 3 1.5 1.5 0 0 0 0-3z"/><path fill="#EBEEEE" d="M64.5 48a1.5 1.5 0 1 0-.001-3.001A1.5 1.5 0 0 0 64.5 48zm0 7a1.5 1.5 0 1 0 0 3 1.5 1.5 0 0 0 0-3zm0 10a1.5 1.5 0 1 0 0 3 1.5 1.5 0 0 0 0-3zm0 10a1.5 1.5 0 1 0 0 3 1.5 1.5 0 0 0 0-3zm0 10a1.5 1.5 0 1 0 0 3 1.5 1.5 0 0 0 0-3zm0 10a1.5 1.5 0 1 0 0 3 1.5 1.5 0 0 0 0-3z"/><path fill="#2CA4D5" d="M79 24l-11 9 8 8 10-10-7-7zm-37 7l10 10 8-8-11-9-7 7z"/><path fill="#3B5766" d="M49 24h30L64 39 49 24z"/><path fill="#354D5B" d="M72 31l7-7H49l7 7z"/></svg>