<svg xmlns="http://www.w3.org/2000/svg" xmlns:xlink="http://www.w3.org/1999/xlink" viewBox="-241 333 128 128"><path fill="#45B39C" d="M-177 333c35.3 0 64 28.7 64 64s-28.7 64-64 64-64-28.7-64-64 28.7-64 64-64z"/><path fill="#EFC84A" d="M-207 384h60c1.7 0 3 1.3 3 3v44c0 1.7-1.3 3-3 3h-60c-1.7 0-3-1.3-3-3v-44c0-1.7 1.3-3 3-3z"/><path fill="#D7B442" d="M-207 383h60c1.7 0 3 1.3 3 3v4c0 1.7-1.3 3-3 3h-60c-1.7 0-3-1.3-3-3v-4c0-1.7 1.3-3 3-3z"/><path fill="#796320" d="M-197.9 385c-3 0-6.1 1.3-6.1 3s3 3 6.1 3c3 0 5.9-1.3 5.9-3s-2.9-3-5.9-3zm42 0c-3 0-6.1 1.3-6.1 3s3 3 6.1 3 5.9-1.3 5.9-3-2.9-3-5.9-3z"/><path fill="#FFF" d="M-177 355c-13.8 0-25 11.2-25 25.1v7.8h.2c.6.6 2.2 1 3.8 1s3.2-.4 3.8-1h.2v-6.8c0-10.6 7.1-18.1 17-18.1s17 7.6 17 18.1v6.8h.2c.6.6 2.2 1 3.7 1s3.2-.4 3.8-1h.3v-7.8c0-13.9-11.2-25.1-25-25.1z"/><path fill="#553E00" d="M-173 410.1c0-2.3-1.8-4.1-4-4.1s-4 1.8-4 4.1c0 1.5.8 2.8 1.9 3.5l-1.1 6.4h6.4l-1.1-6.4c1.1-.7 1.9-2 1.9-3.5z"/><defs><path id="a" d="M-177 355c-13.8 0-25 11.2-25 25.1v7.8h.2c.6.6 2.2 1 3.8 1s3.2-.4 3.8-1h.2v-6.8c0-10.6 7.1-18.1 17-18.1s17 7.6 17 18.1v6.8h.2c.6.6 2.2 1 3.7 1s3.2-.4 3.8-1h.3v-7.8c0-13.9-11.2-25.1-25-25.1z"/></defs><clipPath id="b"><use xlink:href="#a" overflow="visible"/></clipPath><path clip-path="url(#b)" fill="#E6E6E6" d="M-177 359c11.6 0 21 9.9 21 22.1v14.8c0 12.2-9.4 22.1-21 22.1s-21-9.9-21-22.1v-14.8c0-12.2 9.4-22.1 21-22.1z"/><path fill="#F2D067" d="M-147 393h-60c-1.7 0-3-1.3-3-3v1c0 1.7 1.3 3 3 3h60c1.7 0 3-1.3 3-3v-1c0 1.7-1.3 3-3 3z"/></svg>