<svg xmlns="http://www.w3.org/2000/svg" width="100" height="100" viewBox="0 0 100 100"><circle fill="#3DB39E" cx="50" cy="50" r="50"/><path fill="#37A18E" d="M97.545 34.522a49.822 49.822 0 0 0-5.893-12.18L47.885 67.928l.088 5.073 2.066-.013 47.506-38.466z"/><path fill="#F8F8F8" d="M100.076 19.682l-8.916-8.809a3.143 3.143 0 0 0-4.408 0L48.639 50.131l-16.436-16.24a3.144 3.144 0 0 0-4.409 0L19.891 41.7a3.053 3.053 0 0 0 0 4.354L46.27 72.115a3.117 3.117 0 0 0 2.572.867 3.12 3.12 0 0 0 2.572-.867l48.662-48.078a3.054 3.054 0 0 0 0-4.355z"/><path fill="#EBEBEB" d="M51.414 72.115l48.662-48.078a3.054 3.054 0 0 0 0-4.355l-1.455-1.438-50.057 49.235-27.568-26.872-1.104 1.092a3.053 3.053 0 0 0 0 4.354L46.27 72.115a3.117 3.117 0 0 0 2.572.867 3.114 3.114 0 0 0 2.572-.867z"/></svg>