<svg id="Layer_1" xmlns="http://www.w3.org/2000/svg" viewBox="0 0 173.6 200"><style>.st0{fill:#7a8d8e}.st1{fill:#2b414f}.st2{fill:#334d5d}.st3{fill:#fff}.st4{fill:#9ea7a8}.st5{fill:#df5a48}.st6{fill:#eb8b6b}</style><path class="st0" d="M84.1 29.2h5.8V9h-5.8v20.2zm-54.9-3.9L39 43.6l7.5-4.7-9.8-18.3-7.5 4.7zm107.9-4.7L127.3 39l7.5 4.7 9.8-18.3-7.5-4.8z"/><path class="st1" d="M143.2 179.3c-5.6 0-10.1 4.5-10.1 10.1s4.5 10.1 10.1 10.1 10.1-4.5 10.1-10.1-4.5-10.1-10.1-10.1zm-112.5 0c-5.6 0-10.1 4.5-10.1 10.1s4.5 10.1 10.1 10.1 10.1-4.5 10.1-10.1-4.5-10.1-10.1-10.1zM86.9.4c-4.8 0-8.7 3.9-8.7 8.7 0 4.8 3.9 8.7 8.7 8.7 4.8 0 8.7-3.9 8.7-8.7 0-4.8-3.9-8.7-8.7-8.7zM24.1 6.9l-4 2.3c-13.7 8-17.9 26.5-10 40.3 0 0 53.6-31.1 53.7-31.1-7.9-13.8-26-19.5-39.7-11.5zm129.7 2.3l-4-2.3c-13.7-8-31.8-2.3-39.7 11.5.1.1 53.7 31.1 53.7 31.1 7.9-13.8 3.7-32.3-10-40.3z"/><path class="st2" d="M86.9 26.4c47.8 0 86.5 38.7 86.5 86.5s-38.7 86.5-86.5 86.5S.4 160.7.4 112.9s38.7-86.5 86.5-86.5z"/><path class="st3" d="M86.9 39.3c40.6 0 73.6 32.9 73.6 73.6 0 40.6-32.9 73.6-73.6 73.6s-73.6-33-73.6-73.6c0-40.6 33-73.6 73.6-73.6z"/><path class="st4" d="M86.9 46.6c-1.6 0-2.9 1.3-2.9 2.9 0 1.6 1.3 2.9 2.9 2.9 1.6 0 2.9-1.3 2.9-2.9 0-1.7-1.3-2.9-2.9-2.9zm63.5 63.4c-1.6 0-2.9 1.3-2.9 2.9 0 1.6 1.3 2.9 2.9 2.9 1.6 0 2.9-1.3 2.9-2.9 0-1.6-1.3-2.9-2.9-2.9zm-126.9 0c-1.6 0-2.9 1.3-2.9 2.9 0 1.6 1.3 2.9 2.9 2.9s2.9-1.3 2.9-2.9c0-1.6-1.3-2.9-2.9-2.9zm17.3-43.3c-1.6 0-2.9 1.3-2.9 2.9 0 1.6 1.3 2.9 2.9 2.9s2.9-1.3 2.9-2.9c0-1.6-1.3-2.9-2.9-2.9zm92.3 0c-1.6 0-2.9 1.3-2.9 2.9 0 1.6 1.3 2.9 2.9 2.9 1.6 0 2.9-1.3 2.9-2.9 0-1.6-1.3-2.9-2.9-2.9zm0 86.6c-1.6 0-2.9 1.3-2.9 2.9 0 1.6 1.3 2.9 2.9 2.9 1.6 0 2.9-1.3 2.9-2.9 0-1.6-1.3-2.9-2.9-2.9zm-92.3 0c-1.6 0-2.9 1.3-2.9 2.9 0 1.6 1.3 2.9 2.9 2.9s2.9-1.3 2.9-2.9c0-1.6-1.3-2.9-2.9-2.9zm46.1 20.2c-1.6 0-2.9 1.3-2.9 2.9 0 1.6 1.3 2.9 2.9 2.9 1.6 0 2.9-1.3 2.9-2.9 0-1.6-1.3-2.9-2.9-2.9z"/><path class="st5" d="M86.9 107.1h34.6c3.2 0 5.8 2.6 5.8 5.8 0 3.2-2.6 5.8-5.8 5.8H86.9c-3.2 0-5.8-2.6-5.8-5.8.1-3.2 2.7-5.8 5.8-5.8z"/><path class="st6" d="M86.9 63.9c3.2 0 5.8 2.6 5.8 5.8V113c0 3.2-2.6 5.8-5.8 5.8-3.2 0-5.8-2.6-5.8-5.8V69.6c.1-3.2 2.7-5.7 5.8-5.7z"/></svg>