<svg xmlns="http://www.w3.org/2000/svg" viewBox="0 0 115.8 115.8"><path fill="#CDCCCC" d="M59.2 76.7v-9.6h17.3c1.9 0 3.5-1.5 3.5-3.5V49.7c0-1.9-1.5-3.5-3.5-3.5H59.2v-9.6c0-3.8-2.5-5.3-5.6-3.4l-19.8 20c-3.1 1.9-3.1 5 0 6.8l19.8 20c3.1 2 5.6.4 5.6-3.3z"/><path fill="#E6E6E5" d="M25.7 111.4c-11.8 0-21.4-9.6-21.4-21.4V25.7c0-11.8 9.6-21.4 21.4-21.4H90c11.8 0 21.4 9.6 21.4 21.4V90c0 11.8-9.6 21.4-21.4 21.4H25.7m0 4.4H90c14.2 0 25.7-11.5 25.7-25.7V25.7C115.8 11.5 104.2 0 90 0H25.7C11.5 0 0 11.5 0 25.7V90c0 14.2 11.5 25.8 25.7 25.8z"/></svg>