<?xml version="1.0" encoding="utf-8"?>
<!-- Generator: Adobe Illustrator 18.1.1, SVG Export Plug-In . SVG Version: 6.00 Build 0)  -->
<svg version="1.1" id="Layer_1" xmlns="http://www.w3.org/2000/svg" xmlns:xlink="http://www.w3.org/1999/xlink" x="0px" y="0px"
	 viewBox="0 0 175 175" enable-background="new 0 0 175 175" xml:space="preserve">
<g>
	<path fill="#EFC75E" d="M53,121.8c8.1,8.1,10.6,21.4,2.5,29.5c-8.1,8.1-32.6,17.1-40.8,9c-8.1-8.1,0.9-32.5,9.1-40.6
		C31.8,111.6,44.8,113.7,53,121.8z"/>
	<path fill="#E2574C" d="M128,103.8c12.2,25.4-17.6,84.5-31.4,67.7c-5.6-6.8-5.2-17.6-19.9-31.5c0,0.1,5.3,0.9,11.6-4.7
		C102.8,124.2,128,103.9,128,103.8z"/>
	<path fill="#E2574C" d="M76.6,46.9c-27.4-12.4-91,17.2-72.9,31.2c7.3,5.7,19,5.4,34.1,20.1c-0.1,0-1-5.4,5-11.6
		C54.8,72.2,76.5,46.9,76.6,46.9z"/>
	<path fill="#CF5349" d="M64.5,44.1l-1.2-0.1c-6,7.4-20.7,25.5-29.7,36.9c-3.7,4-4.7,7.6-4.9,9.8c1.8,1.2,3.6,2.6,5.4,4.2
		c0.5-2.2,1.7-5.2,4.7-8.5c11.4-14.7,32.3-40.3,32.4-40.3C69.3,45.3,66.9,44.6,64.5,44.1z"/>
	<path fill="#CF5349" d="M128.2,104.2c-3.6,3-26.3,21.6-39.7,32.2c-4.5,4.1-8.4,4.9-10.4,5c1.9,1.9,3.6,3.8,5,5.7
		c1.8,0,6-0.5,10.9-5c11.3-8.9,28.9-23.3,36.5-29.6C130.1,109.5,129.4,106.7,128.2,104.2z"/>
	<path fill="#D7B354" d="M33.7,114.8c1.1,5.1,4.6,11.1,10,16.5c5.4,5.4,11.4,8.8,16.5,10c0.9-6.8-2-14.3-7.2-19.5
		C47.7,116.5,40.4,113.9,33.7,114.8z"/>
	<path fill="#EBEBEB" d="M173.6,1.3c4.1,3.9-1.9,61.3-41.2,100.2c-24.3,24.1-40.4,33.5-44.3,36.8c-10.7,4.8-17.7,7.4-38.9-13.6
		C28.2,103.8,32.3,98,37,88c3.5-3.9,13.1-20.1,37.4-44.2C113.6,4.8,169.3-2.5,173.6,1.3z"/>
	<path fill="#324D5B" d="M124.6,50.2c8.5,8.5,8.5,22.2,0,30.7c-8.5,8.5-22.2,8.5-30.6,0c-8.5-8.5-8.5-22.2,0-30.7
		C102.4,41.8,116.1,41.8,124.6,50.2z"/>
	<path fill="#CCD0D2" d="M117,57.9c4.3,4.2,4.3,11.1,0,15.3c-4.3,4.2-11.2,4.2-15.4,0c-4.3-4.2-4.3-11.1,0-15.3
		C105.8,53.7,112.7,53.7,117,57.9z"/>
</g>
</svg>
