<?xml version="1.0" encoding="utf-8"?>
<!-- Generator: Adobe Illustrator 18.1.1, SVG Export Plug-In . SVG Version: 6.00 Build 0)  -->
<svg version="1.1" id="Layer_1" xmlns="http://www.w3.org/2000/svg" xmlns:xlink="http://www.w3.org/1999/xlink" x="0px" y="0px"
	 viewBox="0 0 175 175" enable-background="new 0 0 175 175" xml:space="preserve">
<g>
	<rect x="0.7" y="0" fill="#E6E6E6" width="173.5" height="175"/>
	<rect x="0.7" y="0" fill="#F2F2F2" width="173.5" height="163.3"/>
	<rect x="0.7" y="5.9" fill="#BE382E" width="173.5" height="38.9"/>
	<rect x="0.7" y="0" fill="#E1564E" width="173.5" height="36.5"/>
	<circle fill="#BE382E" cx="87.4" cy="17.7" r="5.8"/>
	<g>
		<path fill="#012639" d="M58.1,95.7c0.2,0.9,0.2,1.6,0.2,1.9c0,1.7-0.9,2.5-2.7,2.5H45c-1.5,0-2.5-1-2.9-3.1
			c-0.2-1.3-0.4-2.7-0.4-4.5c0-6.1,1.8-10.9,5.3-14.1c3.5-3.3,8.9-4.9,16.1-4.9c7.6,0,13.2,1.7,16.8,5.2c3.6,3.5,5.4,8,5.4,13.6
			c0,6.1-2,11.8-5.9,17.1c-3.9,5.3-8.6,9.9-14.1,13.7h17.4c1.9,0,2.9,1,2.9,3v8.9c0,1.9-1,2.9-2.9,2.9H44.6c-1.9,0-2.9-1-2.9-2.9
			v-7.3c0-1.4,0.7-2.6,2.2-3.6c6.1-3.8,11.6-8.4,16.3-13.9c4.7-5.5,7.1-10.9,7.1-16.3c0-1.9-0.4-3.3-1.1-4.3c-0.7-1-2-1.4-3.8-1.4
			c-3.1,0-4.7,1.7-4.7,5C57.8,93.9,57.9,94.8,58.1,95.7z"/>
		<path fill="#012639" d="M119.9,87.9c-3.9,0-6.7,0.8-8.3,2.4c-1.6,1.6-2.4,4.2-2.5,7.7c2.7-1.9,6.4-2.9,10.9-2.9
			c6,0,10.5,1.9,13.6,5.7c3.1,3.8,4.7,8.7,4.7,14.8c0,7.1-2,12.7-5.9,16.9c-3.9,4.1-9.3,6.2-16,6.2c-8.7,0-14.9-2.7-18.7-8.1
			c-3.8-5.4-5.6-12.9-5.6-22.6c0-12,1.9-20.8,5.8-26.3c3.9-5.5,10.7-8.3,20.5-8.3c4.5,0,8.4,0.6,11.7,1.7c0.9,0.3,1.5,0.7,1.8,1.2
			c0.3,0.5,0.5,1.2,0.4,2.1l-0.8,8.3c-0.2,1.7-1.3,2.4-3.5,2.1C123.8,88.2,121.1,87.9,119.9,87.9z M122.3,115.8
			c0-2.4-0.6-4.3-1.7-5.7c-1.1-1.3-2.7-2-4.9-2c-4.4,0-6.6,2.6-6.6,7.8c0,5.5,2.3,8.3,6.9,8.3C120.2,124.2,122.3,121.4,122.3,115.8z
			"/>
	</g>
</g>
</svg>
