<?xml version="1.0" encoding="utf-8"?>
<!-- Generator: Adobe Illustrator 18.1.1, SVG Export Plug-In . SVG Version: 6.00 Build 0)  -->
<svg version="1.1" id="Layer_1" xmlns="http://www.w3.org/2000/svg" xmlns:xlink="http://www.w3.org/1999/xlink" x="0px" y="0px"
	 viewBox="0 0 175 175" enable-background="new 0 0 175 175" xml:space="preserve">
<g>
	<path fill="#004D71" d="M90,157.9H8.5c-4.4,0-7.9-3.5-7.9-7.9V78.5c0-4.4,3.5-7.9,7.9-7.9H90c4.4,0,7.9,3.5,7.9,7.9V150
		C97.9,154.4,94.4,157.9,90,157.9z"/>
	<path fill="#64B1BC" d="M167,99.2H70.2c-4.4,0-7.9-3.5-7.9-7.9V8.2c0-4.4,3.5-7.9,7.9-7.9H167c4.4,0,7.9,3.5,7.9,7.9v83.1
		C174.9,95.6,171.4,99.2,167,99.2z"/>
	<polygon fill="#004D71" points="54.7,153.4 54.7,174.6 34.2,154.1 	"/>
	<polygon fill="#64B1BC" points="114.7,93.7 114.7,114.9 135.1,94.4 	"/>
	<circle fill="#FFFFFF" cx="96.9" cy="50.4" r="6.7"/>
	<circle fill="#FFFFFF" cx="120" cy="50.4" r="6.7"/>
	<circle fill="#FFFFFF" cx="143.1" cy="50.4" r="6.7"/>
</g>
</svg>
