<?xml version="1.0" encoding="utf-8"?>
<!-- Generator: Adobe Illustrator 18.1.1, SVG Export Plug-In . SVG Version: 6.00 Build 0)  -->
<svg version="1.1" id="Layer_1" xmlns="http://www.w3.org/2000/svg" xmlns:xlink="http://www.w3.org/1999/xlink" x="0px" y="0px"
	 viewBox="0 0 600 600" enable-background="new 0 0 600 600" xml:space="preserve">
<g>
	<path fill="#CDCCCC" d="M425.7,93l124.1,7.6c28.6,1.7,51.1,12.5,49.4,41.1l-20.4,334.4c-1.7,28.6-25.5,36.5-54,34.8l-124.1-7.6
		c-28.6-1.7-51.1-12.5-49.4-41.1l20.4-334.4C373.4,99.2,397.1,91.2,425.7,93z"/>
	<path fill="#F3F3F3" d="M435.3,474.1l62,3.8c4.8,0.3,8.4,4.4,8.1,9.1c-0.3,4.8-4.4,8.4-9.1,8.1l-62-3.8c-4.8-0.3-8.4-4.4-8.1-9.1
		C426.5,477.5,430.6,473.8,435.3,474.1z"/>
	<path fill="#00C4B3" d="M381.4,138.7l206.8,12.6l-19.3,317.1l-206.8-12.6L381.4,138.7z"/>
	<path fill="#F3F3F3" d="M465.8,116.2l41.4,2.5c1.9,0.1,3.4,1.8,3.2,3.7s-1.8,3.4-3.7,3.2l-41.4-2.5c-1.9-0.1-3.4-1.8-3.2-3.7
		S463.9,116.1,465.8,116.2z"/>
	<path fill="#2E4553" d="M531.3,120.2c-1.9-0.1-3.5,1.3-3.7,3.2c-0.1,1.9,1.3,3.5,3.2,3.7c1.9,0.1,3.5-1.3,3.7-3.2
		C534.6,121.9,533.2,120.3,531.3,120.2z M545,121c-1.9-0.1-3.5,1.3-3.7,3.2c-0.1,1.9,1.3,3.5,3.2,3.7c1.9,0.1,3.5-1.3,3.7-3.2
		C548.4,122.8,546.9,121.1,545,121z M562.5,118.6c-3.8-0.2-7.1,2.7-7.3,6.5s2.7,7.1,6.5,7.3c3.8,0.2,7.1-2.7,7.3-6.5
		S566.3,118.8,562.5,118.6z"/>
	<path fill="#3C5867" d="M491.5,256l6.7-5.9c0.8-0.7,0.9-2.2,0.2-3s-2.2-0.9-3-0.2l-8.6,7.3c-2.9-0.9-5.8-1.5-8.8-1.6
		c-3-0.2-5.9,0-8.9,0.6l-6.9-8.2c-0.7-0.8-2.2-0.9-3-0.2s-0.9,2.2-0.2,3l5.9,6.7c-11,3.4-18.9,11.9-19.5,22.2l62.8,3.7
		C508.9,270,502,260.7,491.5,256L491.5,256z M468,270.5c-2.2-0.1-3.6-1.7-3.5-3.9c0.1-2.2,1.7-3.6,3.9-3.5c2.2,0.1,3.6,1.7,3.5,3.9
		C471.8,269.3,470.2,270.7,468,270.5z M486.5,271.6c-2.2-0.1-3.6-1.7-3.5-3.9c0.1-2.2,1.7-3.6,3.9-3.5c2.2,0.1,3.6,1.7,3.5,3.9
		C490.3,270.4,488.7,271.8,486.5,271.6z M442.8,321c-0.4,6.3,4.1,11.4,10.4,11.7l-0.9,15.5c-0.2,3.7,2.9,6.9,7,7.1s7.6-2.5,7.8-6.2
		l0.9-15.5l11.1,0.7l-0.9,15.5c-0.2,3.7,2.9,6.9,7,7.1c4.1,0.2,7.6-2.5,7.8-6.2l0.9-15.5c6.3,0.4,11.4-4.1,11.7-10.4l2.4-40.7
		l-62.8-3.7L442.8,321z M435.9,279.8c-3-0.2-5.7,2.3-5.9,5.2l-1.8,29.6c-0.2,3,2.3,5.7,5.2,5.9c3,0.2,5.7-2.3,5.9-5.2l1.8-29.6
		C441.3,282.7,438.9,279.9,435.9,279.8z M517.3,284.6c-3-0.2-5.7,2.3-5.9,5.2l-1.8,29.6c-0.2,3,2.3,5.7,5.2,5.9
		c3,0.2,5.7-2.3,5.9-5.2l1.8-29.6C522.6,287.5,520.2,284.8,517.3,284.6z"/>
</g>
<g>
	<path fill="#CDCCCC" d="M49.7,100.7l124.1-7.8c28.6-1.8,52.3,6.1,54.1,34.7l21,334.3c1.8,28.6-20.8,39.4-49.3,41.2l-124.1,7.8
		c-28.6,1.8-52.3-6.1-54.1-34.7l-21-334.3C-1.4,113.3,21.1,102.5,49.7,100.7z"/>
	<path fill="#F3F3F3" d="M106.3,477.8l62-3.9c4.8-0.3,8.9,3.3,9.2,8.1c0.3,4.8-3.3,8.9-8.1,9.2l-62,3.9c-4.8,0.3-8.9-3.3-9.2-8.1
		S101.5,478.1,106.3,477.8z"/>
	<path fill="#3C5867" d="M11.3,151.6l206.8-13l20,317.1l-206.8,13L11.3,151.6z"/>
	<path fill="#F3F3F3" d="M92.3,118.8l41.4-2.6c1.9-0.1,3.5,1.3,3.7,3.2s-1.3,3.5-3.2,3.7l-41.4,2.6c-1.9,0.1-3.5-1.3-3.7-3.2
		S90.4,118.9,92.3,118.8z"/>
	<path fill="#2E4553" d="M157.8,114.7c-1.9,0.1-3.3,1.8-3.2,3.7s1.8,3.3,3.7,3.2c1.9-0.1,3.3-1.8,3.2-3.7
		C161.4,116,159.7,114.5,157.8,114.7z M171.6,113.8c-1.9,0.1-3.3,1.8-3.2,3.7s1.8,3.3,3.7,3.2c1.9-0.1,3.3-1.8,3.2-3.7
		C175.1,115.1,173.5,113.7,171.6,113.8z M188.6,109.3c-3.8,0.2-6.7,3.5-6.5,7.3c0.2,3.8,3.5,6.7,7.3,6.5c3.8-0.2,6.7-3.5,6.5-7.3
		S192.4,109,188.6,109.3z"/>
	<path fill="#00BBAA" d="M136.9,247.6l5.9-6.7c0.7-0.8,0.6-2.3-0.2-3c-0.8-0.7-2.3-0.6-3,0.2l-7.6,8.3c-3-0.5-6-0.7-8.9-0.5
		c-3,0.2-5.9,0.8-8.8,1.7l-7.9-7.3c-0.8-0.7-2.3-0.6-3,0.2s-0.6,2.3,0.2,3l6.7,5.9c-10.4,4.8-17.2,14.1-16.6,24.5l62.8-4.2
		C155.8,259.4,147.9,251,136.9,247.6L136.9,247.6z M115.4,265c-2.2,0.1-3.8-1.2-3.9-3.4c-0.1-2.2,1.2-3.8,3.4-3.9
		c2.2-0.1,3.8,1.2,3.9,3.4S117.6,264.9,115.4,265z M133.9,263.8c-2.2,0.1-3.8-1.2-3.9-3.4s1.2-3.8,3.4-3.9c2.2-0.1,3.8,1.2,3.9,3.4
		S136.1,263.7,133.9,263.8z M96.7,318.2c0.4,6.3,5.5,10.8,11.8,10.3l1,15.5c0.2,3.7,3.8,6.4,7.8,6.2s7.2-3.4,6.9-7.1l-1-15.5
		l11.1-0.7l1,15.5c0.2,3.7,3.8,6.4,7.8,6.2s7.2-3.4,6.9-7.1l-1-15.5c6.3-0.4,10.8-5.5,10.3-11.8l-2.7-40.6L94,277.6L96.7,318.2z
		 M84.7,278.2c-3,0.2-5.4,3-5.2,5.9l2,29.6c0.2,3,3,5.4,5.9,5.2s5.4-3,5.2-5.9l-2-29.6C90.5,280.4,87.7,278,84.7,278.2z M166,272.8
		c-3,0.2-5.4,3-5.2,5.9l2,29.6c0.2,3,3,5.4,5.9,5.2c3-0.2,5.4-3,5.2-5.9l-2-29.6C171.7,275,169,272.6,166,272.8z"/>
</g>
<circle fill="#EC0044" cx="269.5" cy="270.5" r="5.9"/>
<circle fill="#EC0044" cx="289.7" cy="270.5" r="5.9"/>
<circle fill="#EC0044" cx="309.9" cy="270.5" r="5.9"/>
<circle fill="#EC0044" cx="330.1" cy="270.5" r="5.9"/>
</svg>
