<?xml version="1.0" encoding="utf-8"?>
<!-- Generator: Adobe Illustrator 18.1.1, SVG Export Plug-In . SVG Version: 6.00 Build 0)  -->
<svg version="1.1" id="Layer_1" xmlns="http://www.w3.org/2000/svg" xmlns:xlink="http://www.w3.org/1999/xlink" x="0px" y="0px"
	 viewBox="0 0 175 175" enable-background="new 0 0 175 175" xml:space="preserve">
<rect x="0.2" y="24.2" fill="#CCCCCC" width="174.5" height="125.7"/>
<rect x="0.2" y="43.3" fill="#E6E6E6" width="174.5" height="107.5"/>
<g>
	<path fill="#B3B3B3" d="M62.9,87.5c1,0.7,0.8,1.9,0.5,3c-0.3,1.3-0.6,2.6-1.1,3.9c-0.2,0.5-0.7,1-1.1,1.4C61.2,96,61,96.2,61,96.5
		c-0.2,0.8-0.4,1.6-0.5,2.4c-0.3,1.7-1,3.3-1.8,4.8c-0.2,0.4-0.4,0.9-0.4,1.4c0,1.7,0,3.5,0,5.2c0,0.8,0.4,1.3,1,1.6
		c1.8,1,3.7,1.2,5.7,1.5c4,0.6,7.6,1.9,10.7,4.5c1.6,1.4,2.6,3.1,2.7,5.3H23.6c-0.2-1,0.2-1.9,0.6-2.7c0.9-1.9,2.4-3.1,4.2-4.2
		c2.9-1.8,6.2-2.6,9.5-3.1c1.6-0.3,3.2-0.8,4.7-1.3c0.7-0.2,1-0.8,1-1.6c0-1.9,0-3.7,0-5.6c0-0.3-0.1-0.6-0.2-0.8
		c-1.4-2.1-2-4.5-2.3-6.9c-0.1-0.6-0.1-1.2-0.9-1.5c-0.3-0.1-0.5-0.5-0.6-0.9c-0.5-1.7-1-3.4-1.3-5.1c-0.2-0.8,0-1.7,0.7-2.1
		c-0.2-2.5-0.6-4.9-0.7-7.2c-0.2-4.6,2.4-8.7,6.8-10.5c4.3-1.7,8.6-1.7,12.7,0.5c3.7,2,5.8,5.2,5.8,9.5
		C63.6,82.2,63.2,84.8,62.9,87.5"/>
</g>
<rect x="97.4" y="71.6" fill="#B3B3B3" width="52.6" height="9.5"/>
<rect x="97.4" y="91.2" fill="#B3B3B3" width="52.6" height="9.5"/>
<rect x="97.4" y="111.8" fill="#B3B3B3" width="52.6" height="9.5"/>
</svg>
