<?xml version="1.0" encoding="utf-8"?>
<!-- Generator: Adobe Illustrator 18.1.1, SVG Export Plug-In . SVG Version: 6.00 Build 0)  -->
<svg version="1.1" id="Layer_1" xmlns="http://www.w3.org/2000/svg" xmlns:xlink="http://www.w3.org/1999/xlink" x="0px" y="0px"
	 viewBox="0 0 468.7 468.7" enable-background="new 0 0 468.7 468.7" xml:space="preserve">
<rect x="217.5" y="45.9" fill="#D0D2D3" width="31.1" height="376.1"/>
<rect x="234.6" y="217.6" fill="#D0D2D3" width="61" height="31.1"/>
<rect x="172.1" y="119.4" fill="#D0D2D3" width="61" height="31.1"/>
<rect x="172.1" y="313.8" fill="#D0D2D3" width="61" height="31.1"/>
<g>
	<path fill="#012639" d="M146.1,366.4c-20.4,0-37.1-16.6-37.1-37.1s16.6-37,37.1-37c20.4,0,37,16.6,37,37S166.5,366.4,146.1,366.4z"
		/>
	<path fill="#CCCBCB" d="M146.1,299.3c16.6,0,30.1,13.5,30.1,30s-13.5,30-30.1,30s-30.1-13.5-30.1-30S129.5,299.3,146.1,299.3
		 M146.1,285.3c-24.3,0-44.1,19.8-44.1,44s19.8,44,44.1,44s44.1-19.8,44.1-44S170.4,285.3,146.1,285.3L146.1,285.3z"/>
</g>
<g>
	<path fill="#012639" d="M146.1,171.4c-20.4,0-37.1-16.6-37.1-37c0-20.4,16.6-37.1,37.1-37.1c20.4,0,37,16.6,37,37.1
		C183.1,154.8,166.5,171.4,146.1,171.4z"/>
	<path fill="#CCCBCB" d="M146.1,104.3c16.6,0,30.1,13.5,30.1,30.1s-13.5,30.1-30.1,30.1S116,150.9,116,134.3
		S129.5,104.3,146.1,104.3 M146.1,90.3c-24.3,0-44.1,19.8-44.1,44.1s19.8,44.1,44.1,44.1s44.1-19.8,44.1-44.1S170.4,90.3,146.1,90.3
		L146.1,90.3z"/>
</g>
<g>
	<path fill="#012639" d="M326.1,270.9c-21.3,0-38.6-17.3-38.6-38.5c0-21.3,17.3-38.6,38.6-38.6s38.5,17.3,38.5,38.6
		C364.6,253.6,347.3,270.9,326.1,270.9z"/>
	<path fill="#CCCBCB" d="M326.1,202.3c16.6,0,30,13.5,30,30.1s-13.5,30-30,30c-16.6,0-30.1-13.5-30.1-30S309.5,202.3,326.1,202.3
		 M326.1,185.3c-25.9,0-47.1,21.1-47.1,47.1s21.1,47,47.1,47c25.9,0,47-21.1,47-47S352,185.3,326.1,185.3L326.1,185.3z"/>
</g>
<path fill="#FFFFFF" d="M321.9,238.5c-0.2-0.2-0.4-0.4-0.6-0.5c-1.9-1.9-3.9-3.9-5.8-5.8c-0.9-0.9-1.9-0.9-2.8,0
	c-0.7,0.7-1.5,1.4-2.2,2.2c-0.8,0.9-0.9,1.8,0,2.7c3.3,3.3,6.6,6.6,9.9,9.9c1.6,1.6,3.3,1.4,4.6-0.5c1.4-2,2.8-4.1,4.2-6.1
	c4.2-6.1,8.3-12.2,12.5-18.4c1-1.5,0.9-2.3-0.7-3.3c-0.6-0.4-1.2-0.8-1.9-1.3c-1.5-1-2.2-0.8-3.2,0.6c-2.9,4.3-5.8,8.5-8.7,12.8
	C325.5,233.3,323.7,235.9,321.9,238.5z"/>
<path fill="#FFFFFF" d="M141.9,141.1c-0.2-0.2-0.4-0.4-0.6-0.5c-1.9-1.9-3.9-3.9-5.8-5.8c-0.9-0.9-1.9-0.9-2.8,0
	c-0.7,0.7-1.5,1.4-2.2,2.2c-0.8,0.9-0.9,1.8,0,2.7c3.3,3.3,6.6,6.6,9.9,9.9c1.6,1.6,3.3,1.4,4.6-0.5c1.4-2,2.8-4.1,4.2-6.1
	c4.2-6.1,8.3-12.2,12.5-18.4c1-1.5,0.9-2.3-0.7-3.3c-0.6-0.4-1.2-0.8-1.9-1.3c-1.5-1-2.2-0.8-3.2,0.6c-2.9,4.3-5.8,8.5-8.7,12.8
	C145.5,135.9,143.7,138.5,141.9,141.1z"/>
<path fill="#FFFFFF" d="M141.9,335.5c-0.2-0.2-0.4-0.4-0.6-0.5c-1.9-1.9-3.9-3.9-5.8-5.8c-0.9-0.9-1.9-0.9-2.8,0
	c-0.7,0.7-1.5,1.4-2.2,2.2c-0.8,0.9-0.9,1.8,0,2.7c3.3,3.3,6.6,6.6,9.9,9.9c1.6,1.6,3.3,1.4,4.6-0.5c1.4-2,2.8-4.1,4.2-6.1
	c4.2-6.1,8.3-12.2,12.5-18.4c1-1.5,0.9-2.3-0.7-3.3c-0.6-0.4-1.2-0.8-1.9-1.3c-1.5-1-2.2-0.8-3.2,0.6c-2.9,4.3-5.8,8.5-8.7,12.8
	C145.5,330.3,143.7,332.9,141.9,335.5z"/>
<path fill="#D0D2D3" d="M461.3,222.3H394c-3.9,0-7-3.1-7-7s3.1-7,7-7h67.3c3.9,0,7,3.1,7,7S465.2,222.3,461.3,222.3z"/>
<path fill="#D0D2D3" d="M461.3,254.7H394c-3.9,0-7-3.1-7-7s3.1-7,7-7h67.3c3.9,0,7,3.1,7,7S465.2,254.7,461.3,254.7z"/>
<path fill="#D0D2D3" d="M76,125.8H8.7c-3.9,0-7-3.1-7-7s3.1-7,7-7H76c3.9,0,7,3.1,7,7S79.9,125.8,76,125.8z"/>
<path fill="#D0D2D3" d="M76,158.1H8.7c-3.9,0-7-3.1-7-7s3.1-7,7-7H76c3.9,0,7,3.1,7,7S79.9,158.1,76,158.1z"/>
<path fill="#D0D2D3" d="M76,320.2H8.7c-3.9,0-7-3.1-7-7s3.1-7,7-7H76c3.9,0,7,3.1,7,7S79.9,320.2,76,320.2z"/>
<path fill="#D0D2D3" d="M76,352.5H8.7c-3.9,0-7-3.1-7-7s3.1-7,7-7H76c3.9,0,7,3.1,7,7S79.9,352.5,76,352.5z"/>
</svg>
