<svg xmlns="http://www.w3.org/2000/svg" viewBox="0 0 600 600"><path fill="#FFF" d="M223.8 412.5c-4.3-4-7.7-6.9-10.8-10-36-35.8-71.7-71.9-107.9-107.5-16.9-16.6-34.4-16.5-51.5 0-13.7 13.2-27.2 26.7-40.4 40.4-15.2 15.8-15.9 33.8-.8 49 60.9 61.4 121.9 122.9 183.7 183.4 29.9 29.2 60.6 25.3 84.2-9 25.9-37.5 51.2-75.3 76.7-113 76.7-113.1 153.4-226.1 230.1-339.2 19-28 16-42.1-12.4-61.4-11.5-7.8-22.9-15.6-34.3-23.3-26.8-18-41.1-15.5-59 10.8-53.4 78.7-106.8 157.4-160.1 236.2-32.3 47.5-64.6 95.2-97.5 143.6z"/></svg>