<svg xmlns="http://www.w3.org/2000/svg" viewBox="0 0 111.8 154.5"><path fill="#DF564E" d="M41.6 153.7l-11.8-12.2c-.6-.6-1.5-.9-2.4-.8L10.6 143c-2.1.3-3.7-1.7-3-3.7l18.7-53.7c.5-1.5 2.1-2.2 3.6-1.7l33.4 11.6c1.5.5 2.2 2.1 1.7 3.6l-18.7 53.7c-.7 1.8-3.2 2.4-4.7.9z"/><path fill="#CA4C46" d="M72.9 153.7l11.8-12.2c.6-.6 1.5-.9 2.4-.8l16.8 2.3c2.1.3 3.7-1.7 3-3.7L88.3 85.5c-.5-1.5-2.1-2.2-3.6-1.7L51.3 95.4c-1.5.5-2.2 2.1-1.7 3.6l18.7 53.7c.6 1.9 3.1 2.5 4.6 1z"/><path fill="#ECC45C" d="M58.1 6.5L65.5.7c1.7-1.4 4.3-.8 5.3 1.2l4.1 8.4c.7 1.4 2.3 2.2 3.9 1.9l9.2-2c2.2-.5 4.2 1.2 4.2 3.4l.1 9.4c0 1.6 1.1 3 2.7 3.4l9.1 2.2c2.2.5 3.3 2.9 2.3 4.9l-4 8.5c-.7 1.5-.3 3.2 1 4.2l7.3 5.9c1.7 1.4 1.7 4 0 5.4l-7.3 5.9c-1.2 1-1.6 2.7-1 4.2l4 8.5c.9 2-.2 4.4-2.3 4.9L95 83.2c-1.6.4-2.7 1.8-2.7 3.4l-.1 9.4c0 2.2-2.1 3.8-4.2 3.4l-9.2-2c-1.6-.3-3.2.4-3.9 1.9l-4.1 8.4c-1 2-3.5 2.6-5.3 1.2l-7.4-5.8c-1.3-1-3-1-4.3 0l-7.4 5.8c-1.7 1.4-4.3.8-5.3-1.2L37 98.8c-.7-1.4-2.3-2.2-3.9-1.9L24 99c-2.2.5-4.2-1.2-4.2-3.4l-.1-9.4c0-1.6-1.1-3-2.7-3.4l-9.1-2.2c-2.2-.5-3.3-2.9-2.3-4.9l4-8.5c.7-1.5.3-3.2-1-4.2l-7.3-5.9c-1.7-1.4-1.7-4 0-5.4L8.6 46c1.2-1 1.6-2.7 1-4.2l-4-8.5c-.9-2 .2-4.4 2.3-4.9l9.1-2.2c1.6-.4 2.7-1.8 2.7-3.4l.1-9.4c0-2.2 2.1-3.8 4.2-3.4l9.2 2c1.6.3 3.2-.4 3.9-1.9l4.1-8.4c1-2 3.5-2.6 5.3-1.2l7.4 5.8c1.1 1.2 2.9 1.2 4.2.2z"/></svg>