<svg xmlns="http://www.w3.org/2000/svg" width="128" height="128"><path fill="#334D5D" d="M64 0c35.346 0 64 28.654 64 64 0 35.345-28.654 64-64 64S0 99.346 0 64C0 28.655 28.654 0 64 0z"/><path fill="#E27C3F" d="M25.661 36.98h42.685a3.647 3.647 0 0 1 3.648 3.648v25.715a3.647 3.647 0 0 1-3.648 3.648H44.383c-.017-.006-9.262 6.131-9.414 6.08-.008-.009-.033-6.08.002-6.08h-9.31a3.647 3.647 0 0 1-3.647-3.648V40.628a3.647 3.647 0 0 1 3.647-3.648z"/><path fill="#EFC84A" d="M102.348 53.004H56.627a3.647 3.647 0 0 0-3.646 3.648v29.671a3.647 3.647 0 0 0 3.646 3.648h10.254c.018-.006 8.977 6.13 9.129 6.08.008-.008.033-6.08-.002-6.08h26.34a3.647 3.647 0 0 0 3.646-3.648v-29.67a3.647 3.647 0 0 0-3.646-3.649z"/><path fill="#fff" d="M91.492 68.029a3.48 3.48 0 0 0 0 6.959c1.92 0 3.48-1.561 3.48-3.48s-1.558-3.479-3.48-3.479zm-12 0a3.48 3.48 0 0 0 0 6.959c1.92 0 3.48-1.561 3.48-3.48s-1.558-3.479-3.48-3.479zm-12 0a3.48 3.48 0 0 0 0 6.959c1.92 0 3.48-1.561 3.48-3.48s-1.558-3.479-3.48-3.479z"/></svg>