<svg xmlns="http://www.w3.org/2000/svg" width="128" height="128"><path fill="#ECF0F0" d="M64 0c35.347 0 64 28.654 64 64 0 35.346-28.653 64-64 64-35.346 0-64-28.654-64-64C0 28.654 28.654 0 64 0z"/><path fill="#314B59" d="M90.822 62.868L90 53H38l-.766 9.183h.001L36.02 76.768l-.018.209L36 77h.036C36.78 82.731 50.049 90 64 90s27.22-7.269 27.964-13l.011-.148-1.153-13.984z"/><path fill="#3A5261" d="M63.842 61.604H37.283l-.048.579-1.215 14.585-.018.209L36 77h.036c.693 5.337 12.246 12.004 25.098 12.896h2.874l-.166-28.292z"/><path fill="#2B4250" d="M91.01 65.111L90 53H38l-1.008 12.094C49.545 69.686 64.05 74.99 64 75c.006 0 14.48-5.297 27.01-9.889z"/><path fill="#3B5766" d="M64 39c.027 0 34.235 12.541 42.982 15.756-.002.018.002 1.48-.014 1.499C98.198 59.488 64.009 71.999 64 72c.077-.014-34.271-12.554-43.001-15.76l.011-1.475C29.75 51.564 64.018 38.998 64 39z"/><path fill="#425D6B" d="M106.969 54.786C98.198 58.019 64.009 70.53 64 70.531c.077-.014-34.243-12.544-42.99-15.756l-.011 1.465C29.729 59.446 64.077 71.986 64 72c.009-.001 34.198-12.512 42.969-15.745.016-.019.012-1.481.014-1.499l-.011-.004-.003.034z"/><path fill="#2B4250" d="M64 53c1.104 0 2 .672 2 1.5s-.896 1.5-2 1.5-2-.671-2-1.5.896-1.5 2-1.5z"/><path fill="#EFCD5F" d="M63.654 55.938l.691-1.876L87 63l-1.908 1.064-21.438-8.126z"/><path fill="#EFC84A" d="M89 79a2.99 2.99 0 0 0-2-2.816V63l-2 1v12.184a2.99 2.99 0 0 0-.178 5.574c-.31 1.264-.998 3.81-1.822 5.242.052-.041 5 2 5 2s-1.144-4.186-1.059-7.166A2.988 2.988 0 0 0 89 79z"/></svg>