<svg xmlns="http://www.w3.org/2000/svg" width="100" height="100" viewBox="0 0 100 100"><circle fill="#EDEDED" cx="50" cy="50" r="50"/><path fill="#D0D0D0" d="M50 78.999c17.121 0 31 .896 31 2s-13.879 2-31 2-31-.896-31-2 13.879-2 31-2z"/><path fill="#415661" d="M29 18.999h42c5.522 0 10 4.478 10 10v42c0 5.523-4.478 10-10 10H29c-5.522 0-10-4.477-10-10v-42c0-5.522 4.478-10 10-10z"/><path fill="#2B414D" d="M29 22.999h42a6 6 0 0 1 6 6v29a6 6 0 0 1-6 6H29a6 6 0 0 1-6-6v-29a6 6 0 0 1 6-6z"/><path fill="#E2574C" d="M30 25.999h40a4 4 0 0 1 4 4v27a4 4 0 0 1-4 4H30a4 4 0 0 1-4-4v-27a4 4 0 0 1 4-4z"/><path fill="#E87970" d="M70 28.999H30a1 1 0 0 0-1 1v10c0 2.209 9.402 4 21 4s21-1.791 21-4v-10a1 1 0 0 0-1-1z"/><path fill="#fff" d="M58.23 41.896l-12.295-7.632c-.969-.609-1.922-.118-1.922 1.094v15.299c0 1.21.953 1.703 1.922 1.093l12.275-7.521c1.231-.725.782-1.891.02-2.333z"/><path fill="#2B414D" d="M42 67.999a1 1 0 0 0-1 1v5a1 1 0 1 0 2 0v-5a1 1 0 0 0-1-1zm4 0a1 1 0 0 0-1 1v5a1 1 0 1 0 2 0v-5a1 1 0 0 0-1-1zm4 0a1 1 0 0 0-1 1v5a1 1 0 1 0 2 0v-5a1 1 0 0 0-1-1zm4 0a1 1 0 0 0-1 1v5a1 1 0 1 0 2 0v-5a1 1 0 0 0-1-1zm4 0a1 1 0 0 0-1 1v5a1 1 0 1 0 2 0v-5a1 1 0 0 0-1-1z"/><path fill="#fff" d="M66.5 67.999a3.5 3.5 0 1 0 0 7 3.5 3.5 0 0 0 0-7zm-33 0a3.5 3.5 0 1 0 0 7 3.5 3.5 0 0 0 0-7z"/><path fill="#2B414D" d="M33.5 69.999A1.5 1.5 0 1 0 33.501 73a1.5 1.5 0 0 0-.001-3zm33 0A1.5 1.5 0 1 0 66.501 73a1.5 1.5 0 0 0-.001-3z"/><path fill="#CB4E44" d="M58.211 44.228l-12.275 7.521c-.969.61-1.922.117-1.922-1.093v1c0 1.21.953 1.703 1.922 1.093l12.275-7.521c.798-.469.884-1.122.643-1.645-.117.231-.318.454-.643.645z"/><path d="M33.5 74.999a3.5 3.5 0 0 1-3.5-3.5c0-.71.215-1.369.579-1.921A3.492 3.492 0 0 0 29 72.499a3.5 3.5 0 0 0 3.5 3.5 3.493 3.493 0 0 0 2.921-1.579 3.478 3.478 0 0 1-1.921.579zm33 0a3.5 3.5 0 0 1-3.5-3.5c0-.71.215-1.369.578-1.921A3.493 3.493 0 0 0 62 72.499a3.5 3.5 0 0 0 3.5 3.5 3.495 3.495 0 0 0 2.922-1.579 3.483 3.483 0 0 1-1.922.579z" fill="#3A4D57"/><path fill="#3A4D57" d="M71 78.999H29c-5.522 0-10-4.477-10-10v2c0 5.523 4.478 10 10 10h42c5.522 0 10-4.477 10-10v-2c0 5.523-4.478 10-10 10z"/></svg>